<svg width="366" height="390" viewBox="0 0 366 390" fill="none" xmlns="http://www.w3.org/2000/svg">
<path fill-rule="evenodd" clip-rule="evenodd" d="M195.57 0.647507C238.899 4.03577 253.465 66.5439 283.402 102.326C311.908 136.399 357.091 155.879 364.202 202.208C372.09 253.599 353.385 307.906 320.547 344.332C288.033 380.399 240.956 391.286 195.57 389.269C152.114 387.338 113.263 365.493 79.9925 333.643C42.7565 297.996 -3.14585 257.431 0.169804 202.208C3.43295 147.86 59.2862 124.175 94.7668 87.5753C127.237 54.0816 151.835 -2.77248 195.57 0.647507Z" fill="#FF5C8A" fill-opacity="0.2"/>
<path d="M90.6293 299.922C90.6293 299.922 82.1293 302.522 105.329 303.322C128.529 304.122 251.229 304.522 263.929 303.322C276.529 302.122 301.129 302.822 268.529 299.922C235.929 297.022 202.329 298.722 169.529 297.022C136.729 295.222 95.6293 296.922 90.6293 299.922Z" fill="#1B1C1E"/>
<path d="M117.629 219.722C117.629 219.722 137.429 280.822 139.529 289.522C139.529 289.522 129.429 290.822 129.529 300.222C129.529 300.222 142.829 300.222 144.329 300.222C145.829 300.222 148.629 292.422 148.629 292.422C148.629 292.422 146.629 233.422 148.629 220.722C150.629 208.022 117.629 209.522 117.629 219.722Z" fill="#637189"/>
<mask id="mask0_14_944" style="mask-type:luminance" maskUnits="userSpaceOnUse" x="117" y="211" width="32" height="37">
<path d="M148.629 220.622C147.929 225.222 147.729 236.022 147.729 247.822C134.829 234.222 122.029 233.422 122.029 233.422C119.429 225.322 117.629 219.722 117.629 219.722C117.629 209.522 150.629 208.022 148.629 220.622Z" fill="white"/>
</mask>
<g mask="url(#mask0_14_944)">
<g opacity="0.88">
<path d="M127.229 227.622L127.329 227.122C127.429 227.322 127.329 227.422 127.229 227.622Z" fill="#080809"/>
<path d="M136.429 232.422C136.529 232.522 136.529 232.722 136.529 233.022L136.429 232.422Z" fill="#080809"/>
<path d="M135.129 234.322C135.129 234.422 135.029 234.522 135.029 234.522C135.029 234.422 135.129 234.422 135.129 234.322Z" fill="#080809"/>
<path d="M144.929 229.522C145.029 229.522 145.029 229.522 145.029 229.522V229.622C145.029 229.822 145.029 229.622 144.929 229.522Z" fill="#080809"/>
<path d="M144.629 230.222L144.729 230.322C144.729 230.222 144.729 230.222 144.629 230.222Z" fill="#080809"/>
<path d="M144.329 228.022C144.329 228.122 144.329 228.322 144.429 228.522C144.329 228.322 144.229 228.322 144.329 228.022Z" fill="#080809"/>
<path d="M124.129 226.322C124.029 226.222 124.029 226.122 123.929 226.022C124.229 225.922 124.229 226.122 124.129 226.322Z" fill="#080809"/>
<path d="M142.029 229.622C141.829 231.122 142.329 229.722 142.229 231.222C142.129 230.922 142.029 230.622 141.829 231.422C141.929 232.222 142.229 231.422 142.129 232.622L141.929 232.122C141.729 232.722 141.829 233.722 141.729 233.622C141.729 231.822 140.929 234.222 140.629 233.922L140.729 234.122L140.229 234.922V235.022C140.229 234.922 140.229 234.822 140.229 234.722C139.929 235.522 139.629 236.122 139.329 235.922C139.329 234.922 138.329 235.422 138.329 234.622C138.429 234.922 138.529 234.922 138.729 234.722L138.829 233.522C138.529 233.522 138.629 234.622 138.429 233.822C138.729 232.222 138.829 233.922 139.029 233.722C139.029 233.322 138.929 233.022 138.829 232.822C139.229 232.822 139.729 232.322 139.829 233.922C140.029 233.622 140.029 232.922 139.929 232.722C140.129 233.722 140.229 231.822 140.429 232.722C140.529 231.222 139.929 231.922 139.729 231.022C139.229 232.122 138.829 231.022 138.429 230.722C138.229 231.822 138.429 232.822 138.129 233.422C137.629 234.122 137.829 232.822 137.629 232.122C137.229 232.422 137.329 233.922 136.829 233.922L137.029 234.722C136.529 236.222 136.829 234.022 136.629 234.322C136.729 233.922 136.829 233.522 137.029 233.622C137.129 233.022 137.029 232.822 136.929 232.722H137.029C137.029 231.922 137.129 231.122 136.829 231.522C136.829 232.422 136.429 232.122 136.329 232.522V232.722C136.129 232.422 135.929 232.422 135.829 232.322V232.522C135.729 232.122 135.929 231.022 135.629 231.222C135.529 231.722 135.629 232.922 135.429 232.722C135.329 233.422 135.629 233.522 135.929 233.322C135.629 233.522 135.329 234.622 135.629 234.722C135.429 235.522 135.429 234.322 135.229 234.622C135.329 234.322 135.329 234.022 135.329 233.822C135.129 235.022 134.729 233.822 134.929 233.022L135.129 233.722C135.329 232.822 135.129 232.122 135.329 231.622C134.929 233.022 134.729 230.722 134.329 231.922L134.629 231.222C133.929 231.622 133.829 229.722 133.329 229.222C133.429 229.722 133.029 231.322 133.529 230.822C132.929 231.022 133.029 232.322 132.629 233.122C132.029 233.622 132.729 231.622 132.729 231.022L132.929 231.422C133.029 229.522 131.729 231.522 131.429 230.222C131.229 230.722 131.429 230.522 131.529 230.722C131.029 231.622 131.329 230.422 131.229 230.022C130.929 230.122 130.429 230.422 130.329 231.622C129.929 231.822 130.529 230.922 130.529 230.522L130.429 230.722L130.529 229.322C130.129 229.622 129.629 230.122 129.229 231.222C128.729 230.822 129.829 228.522 129.529 228.022C129.129 228.522 129.329 228.922 129.229 229.322L128.929 229.122C128.629 230.422 129.129 229.922 128.729 231.422C128.829 229.822 128.429 230.822 128.329 229.722L128.429 229.622C128.529 228.522 127.929 229.122 127.729 228.822C127.629 229.422 127.929 229.622 128.029 229.922C127.529 230.322 127.029 229.622 127.229 228.222C127.029 228.322 126.429 228.722 126.529 229.422C125.929 229.422 126.929 227.522 126.329 227.722L125.929 228.722C124.829 229.922 125.329 227.122 124.329 228.122L124.829 226.922C124.529 227.422 124.229 227.522 123.929 227.922L124.029 228.422C123.429 229.322 124.129 227.322 123.629 227.922C123.829 227.522 124.329 226.822 124.529 226.422C125.329 227.622 127.029 226.222 127.629 227.822C127.529 227.922 127.429 228.122 127.329 228.322C127.529 228.122 127.629 228.522 127.829 227.822V227.722C128.029 228.122 128.729 226.722 128.929 226.722C128.729 227.622 129.629 226.522 129.029 227.922L129.529 227.122C129.429 227.622 129.129 228.322 129.229 228.622C129.429 228.522 129.629 228.022 129.629 227.622C130.529 227.322 131.329 227.722 132.029 228.422V227.722C132.329 227.422 132.429 229.122 132.629 227.322C132.829 228.122 133.729 227.122 133.329 228.922C134.029 227.222 134.429 228.422 134.829 228.722C134.429 230.222 135.129 229.222 135.129 230.022C135.429 228.822 134.929 228.722 135.129 227.922C135.329 229.922 136.829 226.822 136.529 230.022C136.629 229.922 136.629 229.822 136.629 229.622C136.729 229.622 136.929 229.122 137.129 229.022C137.129 229.622 136.829 229.822 137.029 230.022C137.229 229.922 137.329 229.022 137.429 228.722C137.729 229.522 138.229 229.922 138.129 231.122C138.329 230.822 138.529 230.122 138.429 229.822C138.929 230.922 139.029 229.722 139.529 230.422C139.329 230.322 139.629 229.122 139.229 229.522C139.729 227.822 140.129 229.922 140.729 229.122L140.829 230.322C141.129 230.522 141.229 229.422 141.129 229.022C141.729 228.422 141.929 229.122 142.329 229.122C142.329 229.022 142.329 228.722 142.329 228.822H142.929C142.929 229.122 143.129 229.722 143.029 230.422C142.429 229.622 142.329 229.222 142.029 229.622Z" fill="#080809"/>
<path d="M136.529 234.522C136.629 234.222 136.729 234.122 136.729 234.022C136.629 234.222 136.629 234.422 136.529 234.522Z" fill="#080809"/>
<path d="M147.829 232.622C147.729 234.422 147.429 232.322 147.229 232.822C147.429 233.122 147.329 234.122 147.329 234.622C147.129 232.322 146.929 235.122 146.429 234.622C146.429 235.322 146.629 235.522 146.629 236.322C146.329 235.722 145.829 235.422 145.829 234.122C145.329 234.022 144.929 234.522 144.629 234.222C145.029 234.722 144.629 235.522 144.829 236.622C144.529 235.122 143.729 233.322 143.329 231.522C143.129 232.922 143.129 233.022 143.029 234.322C142.329 235.222 142.929 233.022 142.329 233.422L142.629 233.222C142.429 232.822 142.529 231.522 142.529 230.522L143.229 230.722C143.329 229.722 142.829 229.922 142.729 229.622C142.629 228.422 143.129 228.822 143.129 227.922C143.129 228.722 143.429 228.422 143.629 228.822L143.729 228.322C144.029 227.822 144.129 229.122 144.429 229.122C144.429 229.022 144.429 228.922 144.429 228.822C144.529 229.422 144.529 230.122 144.729 230.322L144.629 230.222C144.829 231.422 145.329 232.222 144.829 233.522L145.529 233.222C145.529 231.922 145.529 229.822 145.129 229.622V229.022C145.429 228.322 145.929 230.122 145.629 231.222C145.729 234.422 146.729 231.422 147.129 232.722C147.229 231.822 146.929 231.522 146.829 230.922C146.729 230.822 146.529 230.822 146.529 231.522C145.929 231.022 146.729 228.722 146.029 229.022C145.629 229.422 146.429 230.422 145.829 230.522L145.629 228.122C145.929 228.222 146.229 228.622 146.429 228.922C147.129 229.822 147.729 229.822 148.229 229.722C148.629 229.622 148.929 229.222 148.929 229.222C150.029 229.322 151.029 229.522 152.129 229.622L155.329 229.822C156.029 230.122 156.229 230.022 156.729 232.422C156.629 232.922 156.129 232.722 156.429 233.522C156.329 232.622 156.029 232.122 155.629 232.222C155.629 233.122 156.029 232.622 155.929 232.822L155.829 232.922C155.929 233.322 155.929 233.622 156.129 233.722C155.829 235.022 155.029 234.822 154.629 233.122C154.329 234.022 154.929 234.522 155.129 235.122C153.929 235.822 153.129 235.722 151.929 235.922C151.829 234.422 151.829 234.922 151.629 233.922L151.529 234.522C151.529 234.222 151.429 233.222 151.629 232.822C150.929 234.022 150.829 230.722 150.329 230.122V230.922C149.929 230.822 149.829 230.722 149.529 230.322C148.929 231.822 150.029 230.522 149.929 232.522L149.629 232.222C149.729 233.022 149.829 234.322 150.029 234.922C149.429 233.622 149.129 235.422 148.529 234.422C148.629 235.322 149.129 236.022 149.329 236.122C149.129 236.222 148.729 235.522 148.629 236.422V235.322C148.229 235.222 148.629 236.322 148.529 237.122C147.629 236.722 148.529 233.322 147.829 232.622Z" fill="#080809"/>
<path d="M138.629 232.522C138.729 232.422 138.829 232.522 138.929 232.622C138.829 232.622 138.729 232.622 138.629 232.522Z" fill="#080809"/>
<path d="M140.129 236.422C140.229 235.922 140.129 235.922 140.129 235.222C140.229 235.622 140.529 235.722 140.129 236.422Z" fill="#080809"/>
<path d="M117.429 226.422C117.229 226.222 117.529 225.322 118.029 224.822L118.129 225.822C118.029 225.722 117.829 225.522 117.429 226.422Z" fill="#080809"/>
<path d="M117.829 226.622C118.229 226.222 118.929 225.322 118.629 226.322C118.429 226.022 117.729 227.422 117.829 226.622Z" fill="#080809"/>
<path d="M120.229 226.722L119.429 227.022C118.729 228.222 119.529 227.522 119.329 228.122C118.729 228.122 119.129 227.822 119.129 226.922C118.929 226.922 119.129 226.222 119.129 225.822C119.229 227.222 120.829 224.322 120.229 226.722Z" fill="#080809"/>
<path d="M118.529 227.422L118.729 226.922V227.422H118.529Z" fill="#080809"/>
<path d="M122.029 226.022C123.029 224.722 122.229 227.122 122.929 226.622C122.929 226.522 123.029 226.422 123.029 226.222L123.229 226.522L123.429 226.222C123.029 227.122 123.229 227.622 123.029 228.322C122.329 229.122 123.329 227.122 122.629 228.022C122.529 228.422 122.329 229.122 122.229 229.422C122.229 228.922 122.429 228.322 122.529 227.822C122.329 227.622 122.229 228.122 122.029 228.522C122.029 227.922 122.629 226.622 122.129 226.822C121.529 227.522 121.729 228.122 121.429 227.622C122.229 226.322 120.929 227.622 121.229 226.722C120.829 226.822 120.229 227.622 120.029 228.122C120.529 227.022 120.729 226.022 120.729 225.622V226.722L121.529 225.522C121.529 226.222 121.729 226.222 122.029 226.222V226.022Z" fill="#080809"/>
<path d="M122.229 229.422C122.229 229.522 122.229 229.622 122.229 229.722C122.129 229.722 122.129 229.622 122.229 229.422Z" fill="#080809"/>
<path d="M119.829 228.322V228.622L119.529 228.922L119.829 228.322Z" fill="#080809"/>
<path d="M122.029 230.422C121.929 230.422 122.129 230.022 122.229 230.022L122.029 230.622V230.422Z" fill="#080809"/>
<path d="M122.729 229.722L123.229 229.122L123.029 229.722H122.729Z" fill="#080809"/>
<path d="M129.929 231.422C129.529 231.822 129.829 230.922 130.029 230.222C130.329 230.122 129.729 231.022 129.929 231.422Z" fill="#080809"/>
<path d="M134.129 233.722C133.729 234.322 133.729 233.322 133.429 233.322C133.729 232.822 134.029 233.222 134.129 233.722Z" fill="#080809"/>
<path d="M135.529 237.222C135.529 236.922 135.429 236.722 135.629 236.622V234.922C136.129 234.422 135.629 236.522 135.529 237.222Z" fill="#080809"/>
<path d="M137.729 237.822L137.429 237.122H137.629C137.629 236.422 137.629 236.122 137.529 235.522C137.829 235.922 138.029 236.622 137.729 237.822Z" fill="#080809"/>
<path d="M137.329 235.222L137.429 235.322C137.329 235.522 137.329 235.722 137.329 235.222Z" fill="#080809"/>
<path d="M137.629 235.322C137.629 235.422 137.629 235.422 137.629 235.522C137.529 235.422 137.529 235.322 137.429 235.322C137.529 235.222 137.529 235.022 137.629 235.322Z" fill="#080809"/>
<path d="M138.129 237.022L138.729 237.322L138.429 237.622C138.629 236.622 138.129 238.222 138.129 237.022Z" fill="#080809"/>
<path d="M141.629 236.622L141.829 235.622C142.229 235.422 142.529 237.622 142.929 236.022C142.729 236.622 143.129 237.222 142.629 237.422C142.529 236.522 141.929 236.322 141.629 236.622Z" fill="#080809"/>
<path d="M143.229 235.222C143.229 234.922 143.329 234.722 143.329 234.422C143.429 234.322 143.629 234.822 143.529 235.222C143.529 233.822 143.329 236.022 143.229 235.222Z" fill="#080809"/>
<path d="M145.129 235.422C145.029 235.422 144.829 235.322 145.029 235.022C145.329 235.122 145.229 236.222 145.329 236.922C145.029 237.522 144.829 235.922 145.129 235.422Z" fill="#080809"/>
<path d="M148.029 227.922C147.929 228.822 147.729 228.722 147.629 228.322C147.729 228.522 147.929 228.322 148.029 227.922Z" fill="#080809"/>
<path d="M147.929 235.222L147.829 235.422L147.729 234.122L147.929 235.222Z" fill="#080809"/>
</g>
</g>
<path d="M265.229 160.222C265.229 160.222 280.029 146.722 284.529 125.522C289.029 104.322 273.729 96.1218 261.529 100.622C247.729 105.622 247.129 122.422 245.429 130.722C244.329 136.122 240.629 133.122 240.229 132.122C238.829 128.422 240.529 84.9218 274.129 91.1218C294.529 94.9218 298.429 113.122 295.629 127.422C292.829 141.722 284.429 156.822 273.129 167.622C265.129 175.222 265.229 160.222 265.229 160.222Z" fill="#637189"/>
<mask id="mask1_14_944" style="mask-type:luminance" maskUnits="userSpaceOnUse" x="265" y="149" width="23" height="21">
<path d="M287.129 149.622C283.329 156.222 278.529 162.422 273.129 167.622C265.229 175.222 265.329 160.222 265.329 160.222C265.329 160.222 268.429 157.422 272.229 152.322C275.029 152.522 279.629 152.122 287.129 149.622Z" fill="white"/>
</mask>
<g mask="url(#mask1_14_944)">
<g opacity="0.88">
<path d="M266.629 160.322C266.729 160.322 266.729 160.222 266.829 160.222C266.829 160.222 266.829 160.222 266.629 160.322Z" fill="#080809"/>
<path d="M268.429 159.122C268.529 159.122 268.629 159.022 268.829 158.922L268.429 159.122Z" fill="#080809"/>
<path d="M268.729 157.722L268.829 157.622C268.729 157.622 268.729 157.722 268.729 157.722Z" fill="#080809"/>
<path d="M270.229 164.722C270.229 164.722 270.129 164.722 270.129 164.822C270.129 164.822 270.229 164.822 270.229 164.722Z" fill="#080809"/>
<path d="M270.829 164.722C270.929 164.722 270.929 164.822 270.829 164.722H270.929C271.029 164.722 270.929 164.722 270.829 164.722Z" fill="#080809"/>
<path d="M275.729 164.222L276.029 164.022C275.929 164.122 275.829 164.222 275.729 164.222Z" fill="#080809"/>
<path d="M269.829 164.922C269.929 164.922 270.029 164.822 270.029 164.822C270.029 164.822 269.929 164.822 269.829 164.922Z" fill="#080809"/>
<path d="M266.529 160.422L266.629 160.322C266.629 160.422 266.629 160.422 266.529 160.422Z" fill="#080809"/>
<path d="M269.629 163.122C270.229 162.422 269.829 163.222 270.429 162.622C270.229 162.722 270.029 162.722 270.329 162.322C270.729 162.022 270.429 162.522 271.029 162.022L270.729 162.122C270.929 161.722 271.429 161.422 271.329 161.422C270.529 162.022 271.229 160.722 271.029 160.722H271.129L271.229 160.222L271.129 160.322C271.429 159.922 271.529 159.422 271.229 159.422C270.729 159.822 270.529 159.122 270.129 159.422C270.329 159.422 270.329 159.422 270.329 159.622L269.829 160.122C269.729 160.022 270.229 159.622 269.829 159.822C269.229 160.622 270.029 160.022 270.029 160.222C269.829 160.322 269.629 160.422 269.529 160.422C269.729 160.622 269.729 161.122 270.529 160.522C270.429 160.722 270.129 161.022 270.029 161.022C270.529 160.722 269.729 161.522 270.229 161.322C269.529 161.922 269.629 161.422 269.129 161.622C269.429 160.922 268.729 161.222 268.429 161.122C268.829 160.622 269.429 160.322 269.529 159.922C269.629 159.422 269.029 160.022 268.729 160.122C268.729 159.822 269.429 159.222 269.229 159.022L269.629 158.822C270.129 157.922 269.229 159.022 269.229 158.722C269.129 158.922 268.929 159.122 269.129 159.222C268.929 159.522 268.729 159.522 268.629 159.522C268.229 159.822 267.929 160.222 267.929 159.922C268.429 159.622 268.029 159.522 268.229 159.222L268.329 159.122C268.129 159.122 268.029 159.022 267.829 159.022L267.929 158.922C267.729 159.022 267.229 159.522 267.229 159.322C267.429 159.122 268.029 158.622 267.829 158.622C268.129 158.322 268.329 158.422 268.329 158.622C268.329 158.422 268.629 157.822 268.829 157.922C269.129 157.422 268.529 158.022 268.629 157.722C268.529 157.822 268.429 158.022 268.329 158.122C268.729 157.522 268.029 157.822 267.729 158.222L268.129 158.022C267.729 158.522 267.329 158.622 267.229 158.922C267.729 158.122 266.529 158.922 266.929 158.222L266.729 158.622C266.629 158.122 265.629 158.822 265.229 158.722C265.529 158.522 266.129 157.822 266.129 158.222C265.929 157.822 266.629 157.322 266.829 156.922C266.829 156.422 266.129 157.622 265.929 157.722H266.229C265.329 158.522 265.729 157.022 264.929 157.422C265.029 157.122 265.129 157.322 265.229 157.222C265.429 156.622 265.029 157.222 264.829 157.322C264.729 157.122 264.729 156.822 265.229 156.222C265.129 155.922 265.029 156.622 264.729 156.722L264.829 156.522L264.229 157.022C264.229 156.722 264.229 156.222 264.529 155.622C264.029 155.522 263.529 156.922 263.129 157.022C263.229 156.622 263.429 156.522 263.629 156.322L263.329 156.222C263.829 155.622 263.829 156.022 264.329 155.222C263.629 155.922 263.929 155.322 263.329 155.622V155.722C262.829 156.222 262.829 155.622 262.629 155.622C262.929 155.322 263.129 155.422 263.329 155.322C263.329 154.922 262.729 154.922 262.129 155.522C262.129 155.322 262.029 154.922 262.329 154.722C262.029 154.422 261.629 155.722 261.429 155.322L261.729 154.822C261.829 153.822 260.629 155.222 260.729 154.322L260.329 155.022C260.429 154.722 260.329 154.522 260.429 154.222L260.729 154.122C260.929 153.422 260.229 154.622 260.329 154.122C260.229 154.322 260.129 154.922 260.029 155.122C260.929 155.122 261.129 156.422 262.129 156.122C262.129 156.022 262.129 155.922 262.229 155.822C262.229 156.022 262.429 155.922 262.229 156.322H262.129C262.429 156.322 262.029 157.222 262.129 157.222C262.429 156.822 262.329 157.622 262.729 156.822L262.529 157.422C262.729 157.122 262.929 156.822 263.129 156.722C263.229 156.822 263.029 157.122 262.829 157.322C263.129 157.922 263.729 158.122 264.329 158.222L263.929 158.522C263.929 158.822 264.729 158.222 264.029 159.022C264.529 158.822 264.429 159.722 265.129 158.822C264.629 159.822 265.329 159.622 265.729 159.722C266.229 158.922 266.129 159.722 266.529 159.422C266.129 160.022 265.829 159.822 265.529 160.222C266.529 159.522 265.829 161.522 267.129 160.122C267.129 160.222 267.029 160.222 267.029 160.322C267.129 160.422 266.929 160.722 266.929 160.822C267.129 160.622 267.129 160.322 267.329 160.422C267.429 160.522 267.029 160.922 266.929 161.122C267.429 160.922 267.829 161.122 268.429 160.522C268.329 160.722 268.129 161.122 267.929 161.222C268.629 161.022 268.129 161.622 268.729 161.622C268.629 161.522 268.129 162.222 268.229 161.822C267.629 162.722 268.829 162.122 268.729 162.722L269.329 162.322C269.529 162.422 269.129 162.822 268.829 162.922C268.829 163.422 269.229 163.322 269.429 163.522C269.429 163.622 269.229 163.722 269.229 163.622L269.529 163.922C269.729 163.822 270.029 163.722 270.329 163.322C269.829 163.422 269.529 163.522 269.629 163.122Z" fill="#080809"/>
<path d="M269.429 158.422C269.329 158.622 269.329 158.622 269.329 158.722C269.429 158.622 269.429 158.522 269.429 158.422Z" fill="#080809"/>
<path d="M273.629 165.122C274.429 164.422 273.329 165.022 273.429 164.722C273.629 164.722 274.129 164.322 274.329 164.122C273.129 164.822 274.429 163.722 273.929 163.622C274.229 163.322 274.429 163.422 274.829 163.122C274.429 163.222 274.029 163.022 273.429 163.522C273.129 163.222 273.229 162.922 272.929 162.822C273.329 162.822 273.529 162.322 274.129 162.022C273.229 162.422 272.129 162.722 271.029 163.222C271.629 162.622 271.629 162.522 272.229 162.022C272.329 161.322 271.529 162.522 271.429 162.022V162.222C271.129 162.222 270.529 162.822 270.129 163.122L270.529 163.422C270.129 163.822 269.929 163.522 269.829 163.622C269.229 164.022 269.629 164.122 269.229 164.522C269.629 164.222 269.629 164.522 269.829 164.422L269.629 164.622C269.529 165.022 270.229 164.522 270.329 164.722C270.229 164.822 270.229 164.822 270.229 164.922C270.529 164.722 270.929 164.522 271.029 164.522H270.929C271.629 164.122 272.229 164.122 272.629 163.422L272.829 163.922C272.229 164.422 271.229 165.222 270.929 165.022L270.629 165.222C270.429 165.722 271.429 165.222 271.929 164.622C273.529 163.522 272.529 165.122 273.329 164.822C272.929 165.222 272.629 165.122 272.329 165.322C272.229 165.322 272.129 165.222 272.529 164.922C272.029 164.822 271.329 166.122 271.129 165.622C271.129 165.222 271.929 165.322 271.829 164.922L270.529 165.722C270.729 165.822 271.029 165.822 271.229 165.822C271.929 165.822 272.229 166.222 272.329 166.522C272.429 166.822 272.429 167.122 272.429 167.122C273.429 168.122 274.429 169.222 275.329 170.422C275.729 170.722 275.729 170.822 277.129 170.322C277.329 170.122 277.129 169.922 277.629 169.722C277.129 169.922 276.829 169.922 276.729 169.722C277.129 169.422 277.029 169.822 277.129 169.722V169.622C277.329 169.522 277.529 169.422 277.629 169.522C278.229 168.922 277.729 168.422 276.729 168.822C277.029 168.322 277.529 168.522 277.929 168.422C277.829 167.522 277.429 167.022 277.029 166.322C276.229 166.822 276.529 166.622 275.929 166.822L276.129 166.522C276.029 166.622 275.429 166.922 275.329 167.222C275.629 166.422 274.029 167.522 273.429 167.522L273.829 167.222C273.629 167.022 273.529 167.022 273.229 167.022C273.729 166.122 273.529 167.222 274.429 166.422H274.229C274.629 166.222 275.329 165.722 275.729 165.722C274.829 165.822 275.629 165.022 274.829 165.022C275.329 164.722 275.929 164.822 276.029 164.822C275.929 164.622 275.529 164.722 275.829 164.322L275.229 164.722C275.029 164.522 275.729 164.322 276.029 164.022C275.529 163.522 274.229 165.222 273.629 165.122Z" fill="#080809"/>
<path d="M269.429 160.222C269.429 160.322 269.529 160.322 269.629 160.322C269.629 160.322 269.529 160.222 269.429 160.222Z" fill="#080809"/>
<path d="M271.229 160.122C271.329 160.022 271.329 160.022 271.429 159.922C271.429 160.022 271.329 160.022 271.229 160.122Z" fill="#080809"/>
<path d="M272.029 159.522C271.829 159.722 271.729 159.722 271.429 159.922C271.629 159.922 271.829 160.022 272.029 159.522Z" fill="#080809"/>
<path d="M267.929 157.522C268.029 157.122 267.529 157.422 267.429 157.322C267.329 157.622 267.629 157.622 267.929 157.522Z" fill="#080809"/>
<path d="M270.229 156.822C270.029 156.922 269.929 156.922 270.029 157.122L269.229 157.822C269.229 158.222 270.029 157.122 270.229 156.822Z" fill="#080809"/>
<path d="M271.629 157.822L271.129 157.922L271.229 158.022C270.929 158.322 270.729 158.422 270.429 158.622C270.729 158.522 271.129 158.322 271.629 157.822Z" fill="#080809"/>
<path d="M270.129 158.522H270.229C270.329 158.422 270.429 158.322 270.129 158.522Z" fill="#080809"/>
<path d="M270.329 158.622C270.329 158.622 270.429 158.622 270.429 158.522C270.329 158.622 270.329 158.622 270.329 158.622C270.229 158.622 270.129 158.722 270.329 158.622Z" fill="#080809"/>
<path d="M271.429 158.322L271.829 158.522V158.222C271.329 158.722 271.929 157.822 271.429 158.322Z" fill="#080809"/>
<path d="M272.729 160.322L272.329 160.822C272.429 161.122 273.629 160.422 273.029 161.222C273.229 160.822 273.729 160.922 273.629 160.522C273.129 160.822 272.729 160.522 272.729 160.322Z" fill="#080809"/>
<path d="M272.829 161.722C272.629 161.822 272.629 161.922 272.529 162.122C272.529 162.222 272.829 162.122 272.929 161.922C272.329 162.322 273.229 161.422 272.829 161.722Z" fill="#080809"/>
<path d="M273.729 162.622C273.629 162.522 273.529 162.522 273.529 162.722C273.729 162.922 274.229 162.322 274.629 162.222C274.729 161.722 273.829 162.222 273.729 162.622Z" fill="#080809"/>
<path d="M271.429 166.922C271.829 166.522 271.629 166.522 271.529 166.522C271.629 166.622 271.529 166.822 271.429 166.922Z" fill="#080809"/>
<path d="M274.929 164.222V164.022L274.229 164.522L274.929 164.222Z" fill="#080809"/>
<path d="M276.129 165.022L276.629 164.922L276.429 164.722L276.129 165.022Z" fill="#080809"/>
<path d="M276.229 165.422L276.429 165.622L276.529 165.422C276.529 165.122 276.229 165.422 276.229 165.422Z" fill="#080809"/>
<path d="M276.729 165.922C276.629 165.922 276.729 165.822 276.829 165.822H276.429L276.729 165.922Z" fill="#080809"/>
</g>
</g>
<path d="M204.429 232.022C204.429 232.022 209.829 248.822 225.529 262.722L215.729 288.722C215.729 288.722 199.329 288.222 199.829 300.122H217.829C217.829 300.122 224.929 293.322 225.529 292.422C226.129 291.422 242.029 258.622 242.029 258.622L230.429 221.622C230.429 221.722 201.929 226.022 204.429 232.022Z" fill="#637189"/>
<path d="M204.829 295.022C204.829 295.022 203.129 296.922 204.329 300.122" stroke="#1B1C1E" stroke-miterlimit="10"/>
<path d="M136.529 294.722C136.529 294.722 134.629 297.022 135.529 300.122" stroke="#1B1C1E" stroke-miterlimit="10"/>
<path d="M76.7294 116.022C76.7294 116.022 63.5294 86.0218 71.6294 85.0218C78.2294 84.2218 96.8294 105.722 96.8294 105.722C96.8294 105.722 79.0294 117.322 76.7294 116.022Z" fill="#637189"/>
<path d="M113.129 106.522C113.129 106.522 121.229 96.2218 131.729 89.7218C142.229 83.2218 141.029 90.5218 138.829 98.8218C136.229 108.222 130.329 118.622 130.329 118.622C130.329 118.622 115.129 110.222 113.129 105.722" fill="#637189"/>
<path d="M82.5294 148.822C80.4294 183.522 90.2294 219.322 118.929 226.222C147.629 233.122 205.729 232.022 205.729 232.022C214.829 250.222 229.429 258.822 229.429 258.822L219.029 289.622C205.729 290.622 207.329 300.222 207.329 300.222H226.629C226.629 300.222 278.829 216.522 279.429 188.922C280.029 161.322 264.029 148.722 218.029 146.122C172.029 143.522 131.929 150.322 131.929 150.322L128.329 144.422C128.329 144.422 135.729 135.422 135.329 126.722C135.129 123.122 133.929 119.422 131.629 116.122C129.829 113.522 127.329 111.222 124.129 109.322C121.629 107.922 118.829 106.822 115.529 106.122C108.929 104.722 102.229 104.422 96.2294 105.022C94.8294 105.122 93.5294 105.322 92.2294 105.622C90.4294 105.922 88.7294 106.322 87.2294 106.822C85.1294 107.522 83.1294 108.322 81.4294 109.322C72.6294 114.422 68.2294 125.422 71.4294 134.722C74.7294 144.122 82.5294 148.822 82.5294 148.822Z" fill="#637189"/>
<path d="M205.729 232.022C214.829 250.222 229.429 258.822 229.429 258.822L219.029 289.622" stroke="#1B1C1E" stroke-miterlimit="10"/>
<path d="M96.1294 105.022C94.7294 105.122 93.4294 105.322 92.1294 105.622C90.3294 105.922 88.6294 106.322 87.1294 106.822" stroke="#1B1C1E" stroke-miterlimit="10"/>
<path d="M82.5293 148.822L84.3293 150.022" stroke="#1B1C1E" stroke-miterlimit="10"/>
<path d="M103.529 146.922C103.529 146.922 105.029 148.022 107.629 147.922C110.229 147.822 111.129 146.522 111.129 146.522C111.129 146.522 109.629 143.322 107.229 143.022C104.829 142.622 103.529 146.922 103.529 146.922Z" fill="#B8BDC4"/>
<path d="M96.7294 131.722C98.8294 131.222 100.029 129.022 99.3294 127.022C98.6294 124.922 97.2294 122.522 94.4294 121.522C91.6294 120.622 89.0294 121.022 87.2294 121.622C85.4294 122.222 84.3294 124.122 84.8294 126.022C85.3294 127.822 86.6294 129.922 89.4294 131.222C91.9294 132.322 94.6294 132.122 96.7294 131.722Z" fill="#B4D3CD"/>
<path d="M116.429 130.622C113.929 130.422 112.429 127.722 113.429 125.522C114.429 123.322 116.329 120.922 119.429 120.222C121.729 119.722 123.529 119.822 124.829 120.222C127.029 120.822 128.129 123.422 127.029 125.422C126.229 126.922 124.829 128.622 122.629 129.622C120.429 130.622 118.229 130.822 116.429 130.622Z" fill="#B4D3CD"/>
<path d="M205.729 232.022C205.729 232.022 203.629 228.222 203.029 225.922" stroke="#1B1C1E" stroke-miterlimit="10"/>
<path d="M212.629 300.122C212.629 300.122 212.429 297.222 214.329 295.222" stroke="#1B1C1E" stroke-miterlimit="10"/>
<path d="M221.229 295.022C221.229 295.022 219.129 296.722 219.329 300.122" stroke="#1B1C1E" stroke-miterlimit="10"/>
<path d="M93.4294 130.122C94.313 130.122 95.0293 128.555 95.0293 126.622C95.0293 124.689 94.313 123.122 93.4294 123.122C92.5457 123.122 91.8293 124.689 91.8293 126.622C91.8293 128.555 92.5457 130.122 93.4294 130.122Z" fill="#1B1C1E"/>
<path d="M119.129 129.022C120.013 129.022 120.729 127.455 120.729 125.522C120.729 123.589 120.013 122.022 119.129 122.022C118.246 122.022 117.529 123.589 117.529 125.522C117.529 127.455 118.246 129.022 119.129 129.022Z" fill="#1B1C1E"/>
<path d="M107.329 141.422V143.422C107.329 143.422 107.129 144.422 104.629 146.722C103.029 148.322 98.0294 150.022 96.0294 146.422C94.0294 142.822 98.2294 137.722 103.729 137.722C109.229 137.722 107.329 141.422 107.329 141.422Z" fill="#B8BDC4"/>
<path d="M107.329 143.422C107.329 143.422 109.029 145.522 110.229 146.322C111.129 146.922 113.729 149.122 116.029 148.022C118.429 147.022 119.129 143.522 118.029 141.222C116.929 138.922 113.629 137.222 110.629 137.722C107.629 138.122 107.029 139.722 107.329 143.422Z" fill="#B8BDC4"/>
<path d="M107.329 141.422C107.329 141.422 103.129 139.422 102.729 137.422C102.329 135.422 106.329 134.822 108.929 135.322C112.229 135.822 112.829 138.322 107.329 141.422Z" fill="#1B1C1E"/>
<path d="M131.329 216.122C131.329 216.122 132.929 221.422 135.029 228.922C138.729 242.022 144.029 261.622 145.129 270.122C146.929 283.422 146.529 289.622 146.529 289.622C146.529 289.622 132.829 289.022 133.329 300.122C133.329 300.122 152.329 300.122 153.429 300.122C154.529 300.122 159.029 287.222 159.029 287.222C159.029 287.222 163.229 251.322 165.429 231.322C166.229 224.422 166.729 219.522 166.729 218.422" fill="#637189"/>
<path d="M135.029 228.922C138.729 242.022 144.029 261.622 145.129 270.122C146.929 283.422 146.529 289.622 146.529 289.622C146.529 289.622 132.829 289.022 133.329 300.122" stroke="#1B1C1E" stroke-miterlimit="10"/>
<path d="M137.029 299.422C137.029 299.422 136.829 296.422 139.329 294.722" stroke="#1B1C1E" stroke-miterlimit="10"/>
<path d="M144.529 296.222C144.529 296.222 143.429 296.822 143.529 300.122" stroke="#1B1C1E" stroke-miterlimit="10"/>
<path d="M131.329 216.122C131.329 216.122 132.929 221.422 135.029 228.922" stroke="#1B1C1E" stroke-miterlimit="10"/>
<path d="M165.329 231.422C166.129 224.522 166.629 219.622 166.629 218.522" stroke="#1B1C1E" stroke-miterlimit="10"/>
<mask id="mask2_14_944" style="mask-type:luminance" maskUnits="userSpaceOnUse" x="121" y="144" width="12" height="9">
<path d="M132.029 150.222L121.529 152.122C122.729 150.122 128.429 144.322 128.429 144.322L132.029 150.222Z" fill="white"/>
</mask>
<g mask="url(#mask2_14_944)">
<g opacity="0.88">
<path d="M126.329 147.122C126.429 147.122 126.529 147.222 126.529 147.222C126.529 147.322 126.429 147.222 126.329 147.122Z" fill="#080809"/>
<path d="M121.629 151.422L121.429 151.222C121.629 151.222 121.629 151.322 121.629 151.422Z" fill="#080809"/>
<path d="M128.129 148.322C128.229 148.322 128.329 148.422 128.529 148.522L128.129 148.322Z" fill="#080809"/>
<path d="M128.529 149.622L128.629 149.722C128.529 149.722 128.529 149.722 128.529 149.622Z" fill="#080809"/>
<path d="M126.229 147.022L126.329 147.122C126.229 147.122 126.229 147.122 126.229 147.022Z" fill="#080809"/>
<path d="M128.429 147.922C128.329 147.922 128.329 148.022 128.429 147.922V147.922Z" fill="#080809"/>
<path d="M129.129 144.222C129.729 144.922 129.329 144.122 129.929 144.722C129.729 144.722 129.529 144.622 129.829 145.022C130.229 145.322 129.929 144.822 130.529 145.322L130.229 145.222C130.429 145.522 131.029 145.822 130.829 145.922C129.929 145.322 130.729 146.622 130.529 146.622H130.629L130.829 147.122L130.729 147.022C131.029 147.422 131.129 147.822 130.929 147.922C130.429 147.522 130.229 148.322 129.829 148.022C130.029 148.022 130.029 148.022 130.029 147.822L129.529 147.322C129.429 147.522 130.029 147.822 129.529 147.622C128.829 146.922 129.729 147.422 129.729 147.222C129.529 147.122 129.329 147.022 129.229 147.022C129.429 146.822 129.329 146.322 130.229 146.922C130.129 146.722 129.829 146.422 129.729 146.422C130.329 146.622 129.429 145.922 129.929 146.122C129.229 145.522 129.329 146.122 128.829 145.822C129.129 146.522 128.429 146.322 128.129 146.422C128.629 146.922 129.129 147.122 129.329 147.522C129.429 148.022 128.829 147.522 128.529 147.322C128.529 147.622 129.329 148.122 129.029 148.422L129.429 148.622C129.929 149.422 129.029 148.522 129.029 148.722C128.929 148.522 128.729 148.322 128.829 148.222C128.629 147.922 128.429 147.922 128.329 147.922C127.929 147.622 127.629 147.322 127.629 147.622C128.129 147.922 127.829 148.022 127.929 148.222L128.029 148.322C127.829 148.322 127.729 148.422 127.629 148.422L127.729 148.522C127.529 148.422 127.029 147.922 126.929 148.122C127.129 148.322 127.829 148.722 127.529 148.822C127.829 149.122 128.029 149.022 128.029 148.822C128.029 149.022 128.429 149.622 128.629 149.522C128.929 149.922 128.329 149.522 128.429 149.722C128.329 149.622 128.229 149.522 128.129 149.322C128.629 149.822 127.829 149.622 127.529 149.222L127.929 149.422C127.529 149.022 127.129 148.822 126.929 148.522C127.429 149.222 126.229 148.522 126.629 149.222L126.429 148.822C126.329 149.322 125.329 148.722 124.929 148.822C125.229 148.922 125.829 149.722 125.829 149.322C125.629 149.722 126.329 150.122 126.529 150.622C126.529 151.122 125.829 150.022 125.529 149.822H125.829C124.929 149.122 125.329 150.522 124.629 150.222C124.829 150.522 124.829 150.322 124.929 150.322C125.129 150.922 124.729 150.322 124.529 150.222C124.429 150.422 124.429 150.822 124.929 151.322C124.829 151.622 124.729 150.922 124.429 150.822L124.529 151.022L123.829 150.522C123.829 150.822 123.829 151.322 124.229 151.922C123.829 152.022 123.129 150.722 122.729 150.622C122.829 151.022 123.029 151.022 123.229 151.322L122.929 151.422C123.429 152.022 123.429 151.622 123.929 152.322C123.229 151.722 123.529 152.322 122.929 151.922V151.822C122.429 151.322 122.429 151.922 122.229 151.922C122.529 152.222 122.729 152.122 122.929 152.122C122.929 152.522 122.329 152.522 121.729 151.922C121.729 152.122 121.629 152.522 122.029 152.722C121.729 153.122 121.229 151.822 121.029 152.222L121.429 152.722C121.529 153.722 120.329 152.422 120.429 153.322L120.029 152.622C120.129 152.922 120.029 153.122 120.229 153.422L120.529 153.522C120.729 154.122 120.029 153.122 120.129 153.622C120.029 153.422 119.929 152.922 119.729 152.622C120.629 152.622 120.729 151.322 121.829 151.522C121.829 151.622 121.929 151.722 122.029 151.822C122.029 151.622 122.229 151.722 122.029 151.322H121.929C122.229 151.322 121.829 150.422 121.929 150.422C122.329 150.822 122.129 150.022 122.629 150.822L122.429 150.322C122.629 150.622 122.929 150.922 123.029 151.022C123.129 150.922 122.929 150.622 122.629 150.422C122.929 149.822 123.429 149.522 124.029 149.422L123.629 149.222C123.629 149.022 124.429 149.522 123.729 148.722C124.229 148.922 124.129 148.022 124.829 148.922C124.329 147.922 125.029 148.122 125.429 148.022C126.029 148.822 125.829 148.022 126.229 148.322C125.829 147.722 125.529 147.922 125.129 147.522C126.129 148.122 125.329 146.222 126.729 147.522C126.729 147.422 126.629 147.422 126.629 147.322C126.729 147.222 126.529 146.922 126.529 146.822C126.829 147.022 126.729 147.222 127.029 147.222C127.129 147.122 126.629 146.722 126.529 146.522C127.029 146.622 127.429 146.522 128.029 147.022C127.929 146.822 127.729 146.422 127.529 146.422C128.229 146.522 127.729 146.022 128.329 146.022C128.229 146.122 127.729 145.522 127.729 145.922C127.129 145.022 128.329 145.622 128.129 144.922L128.729 145.322C128.929 145.222 128.529 144.822 128.229 144.722C128.129 144.222 128.629 144.322 128.829 144.122C128.729 144.022 128.629 143.922 128.629 144.022L128.829 143.722C129.029 143.822 129.329 143.922 129.629 144.222C129.329 143.922 129.029 143.822 129.129 144.222Z" fill="#080809"/>
<path d="M129.129 149.022C129.029 148.822 129.029 148.822 129.029 148.722C129.129 148.822 129.129 148.922 129.129 149.022Z" fill="#080809"/>
<path d="M133.029 142.122C133.829 142.822 132.729 142.222 132.829 142.522C133.029 142.522 133.529 142.922 133.729 143.122C132.529 142.422 133.829 143.522 133.329 143.622C133.629 143.922 133.829 143.822 134.229 144.122C133.829 144.122 133.429 144.222 132.829 143.822C132.629 144.122 132.629 144.522 132.429 144.522C132.829 144.522 133.029 145.022 133.729 145.222C132.829 144.822 131.629 144.622 130.629 144.222C131.229 144.822 131.329 144.922 131.929 145.322C132.029 146.022 131.229 144.922 131.129 145.422V145.222C130.829 145.222 130.229 144.722 129.729 144.322L130.129 144.022C129.729 143.622 129.529 143.922 129.429 143.922C128.829 143.522 129.229 143.422 128.829 143.122C129.229 143.422 129.229 143.122 129.429 143.222L129.229 143.022C129.129 142.622 129.829 143.122 129.929 142.922C129.829 142.822 129.829 142.822 129.829 142.822C130.129 143.022 130.529 143.222 130.629 143.222H130.529C131.229 143.622 131.829 143.522 132.229 144.222L132.329 143.722C131.629 143.222 130.629 142.522 130.429 142.722L130.129 142.522C129.929 142.122 130.929 142.522 131.429 143.022C133.129 144.122 131.929 142.522 132.829 142.722C132.429 142.422 132.129 142.422 131.829 142.222C131.729 142.222 131.629 142.322 132.029 142.622C131.529 142.822 130.729 141.522 130.629 142.022C130.729 142.422 131.529 142.322 131.329 142.622L130.029 141.922C130.229 141.822 130.529 141.822 130.729 141.722C131.429 141.622 131.729 141.322 131.829 141.022C131.929 140.722 131.829 140.422 131.829 140.422C132.829 139.322 133.729 138.222 134.529 137.022C134.929 136.722 134.929 136.522 136.329 137.022C136.529 137.222 136.329 137.422 136.829 137.622C136.329 137.422 135.929 137.422 135.929 137.722C136.429 138.022 136.229 137.622 136.329 137.722V137.822C136.629 137.922 136.729 137.922 136.829 137.922C137.429 138.522 137.029 139.022 136.029 138.622C136.429 139.122 136.829 138.922 137.229 139.022C137.129 139.922 136.829 140.422 136.429 141.222C135.629 140.722 135.929 141.022 135.329 140.722L135.629 140.922C135.529 140.822 134.929 140.522 134.829 140.322C135.129 141.122 133.429 140.122 132.929 140.122L133.329 140.422C133.129 140.622 133.029 140.622 132.729 140.722C133.229 141.622 133.029 140.522 133.929 141.322H133.729C134.129 141.522 134.829 141.922 135.229 142.022C134.329 141.922 135.129 142.722 134.329 142.722C134.829 143.022 135.429 142.922 135.529 142.822C135.529 143.022 135.029 143.022 135.429 143.322L134.829 142.922C134.629 143.122 135.329 143.222 135.629 143.622C135.029 143.622 133.629 141.922 133.029 142.122Z" fill="#080809"/>
<path d="M129.129 147.122C129.129 147.022 129.229 147.022 129.329 147.022C129.229 147.122 129.229 147.122 129.129 147.122Z" fill="#080809"/>
<path d="M131.729 147.722C131.529 147.522 131.429 147.522 131.129 147.322C131.329 147.422 131.529 147.222 131.729 147.722Z" fill="#080809"/>
<path d="M124.729 151.422C124.729 151.722 124.429 151.322 124.129 150.922C124.329 150.722 124.529 151.322 124.729 151.422Z" fill="#080809"/>
<path d="M127.729 149.922C127.829 150.322 127.329 150.022 127.229 150.122C127.129 149.822 127.429 149.822 127.729 149.922Z" fill="#080809"/>
<path d="M130.029 150.522C129.829 150.422 129.729 150.422 129.829 150.222L129.029 149.622C128.929 149.222 129.729 150.222 130.029 150.522Z" fill="#080809"/>
<path d="M131.329 149.522L130.829 149.422L130.929 149.322C130.629 149.122 130.429 148.922 130.129 148.822C130.429 148.822 130.829 148.922 131.329 149.522Z" fill="#080809"/>
<path d="M129.829 148.822H129.929C130.029 148.822 130.129 149.022 129.829 148.822Z" fill="#080809"/>
<path d="M130.029 148.722C129.929 148.622 129.929 148.722 130.029 148.722V148.722Z" fill="#080809"/>
<path d="M131.129 149.022L131.529 148.822V149.122C131.129 148.622 131.629 149.422 131.129 149.022Z" fill="#080809"/>
<path d="M132.329 146.922L131.929 146.422C132.029 146.122 133.229 146.722 132.629 145.922C132.829 146.222 133.329 146.222 133.229 146.622C132.729 146.422 132.429 146.622 132.329 146.922Z" fill="#080809"/>
<path d="M132.429 145.522C132.229 145.422 132.229 145.322 132.129 145.122C132.129 145.022 132.429 145.122 132.629 145.322C131.829 144.922 132.829 145.822 132.429 145.522Z" fill="#080809"/>
</g>
</g>
<mask id="mask3_14_944" style="mask-type:luminance" maskUnits="userSpaceOnUse" x="165" y="219" width="24" height="14">
<path d="M188.129 232.022C181.529 231.922 173.629 231.822 165.329 231.422C165.929 225.622 166.429 221.122 166.629 219.222C170.529 221.922 180.729 228.622 188.129 232.022Z" fill="white"/>
</mask>
<g mask="url(#mask3_14_944)">
<g opacity="0.88">
<path d="M168.129 226.622C168.229 226.622 168.329 226.722 168.529 226.722L168.129 226.622Z" fill="#080809"/>
<path d="M169.229 225.722C169.329 225.722 169.329 225.722 169.329 225.622C169.329 225.722 169.229 225.722 169.229 225.722Z" fill="#080809"/>
<path d="M166.829 230.622C167.729 230.322 166.929 230.822 167.729 230.622C167.529 230.522 167.329 230.522 167.829 230.322C168.329 230.322 167.829 230.622 168.629 230.422L168.329 230.322C168.629 230.122 169.329 230.122 169.229 230.022C168.229 230.122 169.529 229.422 169.329 229.322H169.429L169.829 228.922C169.829 228.922 169.829 228.922 169.929 228.922C169.829 228.922 169.829 228.922 169.729 228.922C170.229 228.722 170.529 228.422 170.329 228.222C169.729 228.222 170.029 227.622 169.529 227.622C169.729 227.722 169.729 227.722 169.629 227.922L168.929 228.022C168.929 227.822 169.529 227.822 169.129 227.722C168.229 227.922 169.229 228.022 169.129 228.122C168.929 228.122 168.729 228.122 168.629 228.022C168.629 228.322 168.429 228.622 169.329 228.622C169.129 228.722 168.729 228.822 168.629 228.722C169.229 228.822 168.129 229.022 168.629 229.022C167.729 229.122 168.129 228.722 167.529 228.622C168.129 228.222 167.429 228.022 167.229 227.722C167.829 227.522 168.429 227.622 168.829 227.422C169.229 227.022 168.429 227.222 168.029 227.122C168.229 226.922 169.129 226.922 169.029 226.522L169.529 226.622C170.429 226.222 169.129 226.522 169.329 226.322C169.129 226.422 168.829 226.422 168.929 226.622C168.629 226.722 168.429 226.622 168.429 226.522C167.929 226.522 167.529 226.622 167.729 226.422C168.329 226.422 168.129 226.222 168.329 226.122H168.429C168.229 226.022 168.229 225.822 168.129 225.722H168.229C168.029 225.622 167.329 225.722 167.429 225.522C167.729 225.522 168.429 225.522 168.329 225.422C168.729 225.322 168.829 225.522 168.729 225.722C168.829 225.522 169.529 225.322 169.529 225.522C170.029 225.322 169.229 225.422 169.529 225.222C169.329 225.322 169.229 225.322 169.029 225.322C169.729 225.222 169.029 224.922 168.529 225.022L168.929 225.122C168.329 225.222 167.929 225.122 167.629 225.222C168.529 224.922 167.129 224.822 167.829 224.522L167.429 224.722C167.629 224.222 166.529 224.122 166.229 223.722C166.529 223.822 167.529 223.622 167.229 223.922C167.329 223.522 168.129 223.622 168.629 223.422C168.929 223.022 167.729 223.422 167.429 223.422L167.629 223.622C166.429 223.522 167.729 222.822 166.929 222.522C167.229 222.422 167.129 222.622 167.229 222.622C167.729 222.322 167.029 222.422 166.829 222.422C166.929 222.222 167.129 221.922 167.829 221.922C167.929 221.722 167.429 222.022 167.129 221.922L167.329 221.822L166.529 221.722C166.729 221.522 167.029 221.222 167.729 221.022C167.529 220.622 166.129 221.122 165.829 220.922C166.129 220.722 166.329 220.822 166.629 220.822L166.529 220.522C167.329 220.522 166.929 220.822 167.929 220.622C166.929 220.522 167.629 220.322 166.929 220.122H166.829C166.229 220.122 166.529 219.722 166.429 219.522C166.829 219.522 166.929 219.722 167.029 219.822C167.329 219.522 166.929 219.122 166.029 219.022C166.129 218.922 166.429 218.622 166.829 218.722C166.929 218.322 165.629 218.722 165.829 218.322L166.429 218.222C167.229 217.722 165.529 217.622 166.229 217.122L165.429 217.222C165.729 217.122 165.829 216.922 166.129 216.822L166.429 216.922C167.029 216.622 165.829 216.822 166.229 216.522C166.029 216.522 165.529 216.822 165.229 216.822C165.829 217.522 164.829 218.522 165.729 219.222C165.829 219.222 165.929 219.122 166.029 219.122C165.829 219.222 166.129 219.322 165.729 219.422H165.629C165.829 219.622 164.929 219.922 164.929 220.022C165.429 220.022 164.829 220.522 165.629 220.222L165.129 220.422C165.429 220.422 165.929 220.322 166.029 220.422C166.029 220.622 165.629 220.622 165.429 220.522C165.229 221.122 165.429 221.722 165.729 222.322L165.329 222.222C165.129 222.422 166.129 222.622 165.029 222.622C165.529 222.822 164.829 223.422 165.929 223.222C164.929 223.622 165.629 224.022 165.829 224.322C166.729 224.122 166.129 224.622 166.629 224.622C165.929 224.822 165.829 224.422 165.329 224.522C166.529 224.722 164.729 225.822 166.629 225.522C166.529 225.622 166.529 225.622 166.429 225.622C166.429 225.722 166.129 225.822 166.129 225.922C166.429 225.922 166.529 225.722 166.729 225.822C166.729 226.022 166.129 226.022 165.929 226.122C166.429 226.322 166.629 226.722 167.429 226.622C167.229 226.722 166.829 226.922 166.729 226.822C167.429 227.122 166.729 227.222 167.129 227.622C167.029 227.522 166.329 227.722 166.629 227.422C165.629 227.822 166.929 228.022 166.529 228.522H167.229C167.429 228.722 166.729 228.822 166.529 228.722C166.229 229.222 166.629 229.322 166.729 229.522C166.629 229.522 166.529 229.622 166.529 229.522L166.629 229.922C166.829 229.922 167.129 230.022 167.629 229.822C166.829 230.922 166.629 230.822 166.829 230.622Z" fill="#080809"/>
<path d="M169.329 226.622C169.129 226.722 169.129 226.722 169.029 226.822C169.229 226.722 169.329 226.722 169.329 226.622Z" fill="#080809"/>
<path d="M169.329 234.222C170.329 233.922 169.129 234.022 169.329 233.822C169.529 233.922 170.129 233.722 170.429 233.622C169.029 233.722 170.629 233.322 170.229 233.022C170.629 232.922 170.729 233.022 171.229 232.922C170.829 232.822 170.629 232.522 169.829 232.722C169.729 232.422 169.929 232.022 169.729 231.922C170.129 232.122 170.429 231.822 171.129 231.822C170.229 231.822 169.029 231.422 167.929 231.322C168.729 231.122 168.829 231.022 169.529 230.922C169.929 230.422 168.729 231.022 168.929 230.522L168.829 230.722C168.529 230.622 167.829 230.722 167.229 230.822L167.429 231.222C166.829 231.322 166.929 231.022 166.729 231.022C166.029 231.022 166.329 231.422 165.829 231.422C166.329 231.422 166.229 231.622 166.429 231.722L166.129 231.822C165.829 232.122 166.629 232.022 166.729 232.222C166.629 232.222 166.629 232.322 166.529 232.322C166.829 232.322 167.329 232.322 167.429 232.422L167.329 232.322C168.029 232.322 168.629 232.622 169.329 232.122L169.229 232.622C168.429 232.722 167.229 232.922 167.129 232.722H166.829C166.429 233.022 167.529 233.122 168.229 232.822C170.129 232.522 168.529 233.522 169.329 233.722C168.829 233.922 168.629 233.722 168.229 233.722C168.129 233.622 168.129 233.522 168.529 233.422C168.129 233.022 166.929 233.922 167.029 233.322C167.229 233.022 167.929 233.422 167.929 233.022L166.429 233.122C166.529 233.322 166.829 233.522 167.029 233.622C168.229 234.422 167.629 235.322 167.629 235.322C168.229 236.822 168.729 238.222 169.429 239.622C169.729 240.022 169.729 240.222 171.229 239.922C171.429 239.722 171.229 239.522 171.729 239.422C171.229 239.522 170.829 239.422 170.829 239.222C171.329 239.022 171.129 239.322 171.229 239.222V239.122C171.529 239.022 171.629 239.022 171.729 239.122C172.429 238.622 172.029 238.222 171.029 238.322C171.429 237.922 171.829 238.222 172.229 238.222C172.329 237.322 172.129 236.822 171.929 236.122C171.029 236.322 171.329 236.222 170.729 236.322L171.029 236.122C170.829 236.222 170.229 236.222 170.129 236.522C170.729 235.922 168.829 236.322 168.329 236.122L168.829 236.022C168.629 235.822 168.629 235.722 168.329 235.522C169.129 234.922 168.529 235.822 169.629 235.422L169.429 235.322C169.929 235.222 170.629 235.122 171.029 235.122C170.229 234.922 171.129 234.522 170.529 234.222C171.029 234.122 171.529 234.422 171.629 234.522C171.629 234.322 171.229 234.222 171.629 234.122L170.929 234.222C170.829 234.022 171.529 234.122 171.929 233.922C171.729 233.622 169.929 234.622 169.329 234.222Z" fill="#080809"/>
<path d="M168.329 228.022C168.329 228.122 168.329 228.122 168.429 228.222C168.329 228.222 168.329 228.122 168.329 228.022Z" fill="#080809"/>
<path d="M169.829 229.022C169.929 229.022 170.029 229.022 170.029 229.022C169.929 228.922 169.929 228.922 169.829 229.022Z" fill="#080809"/>
<path d="M170.729 228.922C170.429 229.022 170.429 228.922 170.029 229.022C170.229 229.022 170.329 229.222 170.729 228.922Z" fill="#080809"/>
<path d="M167.529 222.222C167.829 222.022 167.229 222.122 166.829 222.222C166.729 222.422 167.329 222.022 167.529 222.222Z" fill="#080809"/>
<path d="M168.829 225.022C169.129 224.822 168.629 224.722 168.529 224.522C168.329 224.822 168.529 225.022 168.829 225.022Z" fill="#080809"/>
<path d="M170.929 225.922C170.729 225.922 170.629 225.922 170.629 226.022H169.629C169.329 226.322 170.529 226.022 170.929 225.922Z" fill="#080809"/>
<path d="M171.429 227.322L171.029 227.222V227.322C170.629 227.322 170.429 227.322 170.129 227.322C170.229 227.422 170.729 227.522 171.429 227.322Z" fill="#080809"/>
<path d="M169.829 227.122C169.829 227.222 169.829 227.222 169.829 227.122C170.029 227.222 170.129 227.122 169.829 227.122Z" fill="#080809"/>
<path d="M169.929 227.322H170.029C169.929 227.322 169.929 227.222 169.929 227.322C169.829 227.222 169.729 227.322 169.929 227.322Z" fill="#080809"/>
<path d="M170.929 227.622L171.129 228.022L171.329 227.822C170.729 227.922 171.629 227.522 170.929 227.622Z" fill="#080809"/>
<path d="M170.929 229.822L170.329 230.022C170.229 230.322 171.629 230.322 170.729 230.722C171.029 230.522 171.429 230.722 171.529 230.422C170.929 230.422 170.829 230.022 170.929 229.822Z" fill="#080809"/>
<path d="M170.229 231.022C170.029 231.022 169.929 231.122 169.829 231.222C169.829 231.322 170.029 231.322 170.329 231.222C169.529 231.322 170.729 230.922 170.229 231.022Z" fill="#080809"/>
<path d="M170.629 232.122C170.629 232.022 170.529 231.922 170.429 232.122C170.529 232.322 171.129 232.122 171.629 232.122C171.829 231.822 170.829 231.922 170.629 232.122Z" fill="#080809"/>
</g>
</g>
<path d="M131.629 116.122C130.829 115.022 129.929 113.922 128.829 112.922C127.429 111.622 125.929 110.422 124.029 109.322" stroke="#1B1C1E" stroke-miterlimit="10"/>
<path d="M219.129 289.622C205.829 290.622 207.429 300.222 207.429 300.222" stroke="#1B1C1E" stroke-miterlimit="10"/>
</svg>
