<svg width="348" height="354" viewBox="0 0 348 354" fill="none" xmlns="http://www.w3.org/2000/svg">
<path fill-rule="evenodd" clip-rule="evenodd" d="M189.682 7.37598C223.938 2.60811 264.631 -8.0502 290.627 14.8043C316.704 37.7314 301.689 81.0083 311.391 114.381C320.627 146.149 354.433 172.886 345.874 204.844C337.315 236.807 295.004 243.343 270.82 265.884C241.533 293.18 228.439 340.513 189.682 350.424C149.04 360.818 105.513 341.555 71.5944 316.834C37.6894 292.122 11.9241 255.769 3.38624 214.643C-4.67438 175.816 6.49166 135.025 26.7807 100.972C44.4155 71.3747 77.4001 57.476 107.246 40.3276C133.554 25.2122 159.643 11.5568 189.682 7.37598Z" fill="#FF5C8A" fill-opacity="0.2"/>
<path d="M82.1856 277.703C82.1856 277.703 73.3856 280.303 97.3856 281.103C121.386 281.903 247.986 282.303 260.986 281.103C273.986 279.903 299.386 280.603 265.686 277.703C231.986 274.803 197.386 276.503 163.486 274.803C129.686 273.103 87.2856 274.703 82.1856 277.703Z" fill="#1B1C1E"/>
<path d="M222.886 262.903C222.886 262.903 230.886 274.203 249.486 271.903C269.586 269.403 284.486 245.603 280.086 221.503C275.686 197.403 250.386 191.103 236.086 199.503C221.786 207.903 220.986 221.503 225.786 232.303C225.686 232.203 221.286 258.803 222.886 262.903Z" fill="#FBAF5E"/>
<path d="M225.686 232.204C225.686 232.204 231.586 242.704 245.086 240.404C258.486 238.104 257.186 221.404 250.586 218.604" stroke="#1B1C1E" stroke-width="1.2604" stroke-miterlimit="10" stroke-linecap="round" stroke-linejoin="round"/>
<mask id="mask0_103_1368" style="mask-type:luminance" maskUnits="userSpaceOnUse" x="222" y="195" width="59" height="78">
<path d="M222.886 262.903C222.886 262.903 230.886 274.203 249.486 271.903C269.586 269.403 284.486 245.603 280.086 221.503C275.686 197.403 250.386 191.103 236.086 199.503C221.786 207.903 220.986 221.503 225.786 232.303C225.686 232.203 221.286 258.803 222.886 262.903Z" fill="white"/>
</mask>
<g mask="url(#mask0_103_1368)">
<path d="M225.186 263.303C225.286 263.203 225.286 263.003 225.386 262.903C225.486 263.003 225.486 263.103 225.186 263.303Z" fill="#322015"/>
<path d="M236.086 271.704L235.986 272.204C235.886 271.904 235.886 271.804 236.086 271.704Z" fill="#322015"/>
<path d="M227.486 260.603C227.486 260.403 227.586 260.303 227.886 260.003L227.486 260.603Z" fill="#322015"/>
<path d="M229.786 260.503C229.886 260.503 229.986 260.403 229.986 260.403C229.886 260.503 229.886 260.503 229.786 260.503Z" fill="#322015"/>
<path d="M225.086 263.403C225.186 263.303 225.186 263.303 225.286 263.303C225.186 263.403 225.086 263.403 225.086 263.403Z" fill="#322015"/>
<path d="M221.586 255.003C223.086 254.803 221.586 254.503 222.886 254.203C222.586 254.503 222.486 254.803 223.186 254.703C223.886 254.303 222.986 254.203 224.186 253.903L223.786 254.403C224.386 254.503 225.286 253.903 225.286 254.203C223.686 254.903 226.186 255.003 225.986 255.303L226.086 255.103C226.386 255.203 226.686 255.303 226.986 255.303H227.086C226.986 255.303 226.886 255.403 226.786 255.403C227.686 255.303 228.286 255.503 228.286 255.903C227.386 256.403 228.386 257.103 227.686 257.603C227.886 257.403 227.786 257.203 227.486 257.103L226.386 257.503C226.586 257.803 227.386 257.103 226.886 257.703C225.386 258.203 226.686 257.203 226.386 257.003C226.086 257.203 225.886 257.503 225.786 257.703C225.486 257.203 224.886 256.903 226.186 256.003C225.786 256.003 225.186 256.203 225.086 256.403C225.786 255.703 224.186 256.403 224.786 255.803C223.486 256.303 224.286 256.803 223.686 257.403C224.886 257.503 224.186 258.503 224.186 259.203C225.186 258.803 225.886 258.103 226.486 258.003C227.386 258.203 226.186 258.703 225.786 259.303C226.286 259.503 227.386 258.603 227.786 259.103L228.286 258.503C229.786 258.103 227.886 259.003 228.286 259.103C227.886 259.203 227.586 259.403 227.486 259.103C226.986 259.303 226.886 259.603 226.886 259.803H226.786C226.186 260.303 225.486 260.703 225.986 260.903C226.686 260.303 226.686 260.903 227.186 260.703L227.286 260.503C227.186 260.903 227.486 261.103 227.386 261.303L227.586 261.203C227.386 261.603 226.486 262.203 226.886 262.403C227.286 262.103 228.086 261.203 228.086 261.603C228.586 261.203 228.486 260.803 228.086 260.703C228.486 260.803 229.486 260.403 229.386 260.003C230.186 259.603 229.286 260.503 229.686 260.403C229.486 260.503 229.186 260.703 228.986 260.803C229.986 260.203 229.486 261.303 228.786 261.803L229.086 261.103C228.286 261.603 228.086 262.303 227.586 262.503C228.886 261.803 227.586 263.803 228.686 263.203L227.986 263.503C228.886 263.803 227.986 265.503 228.286 266.403C228.386 265.903 229.586 264.803 228.786 264.803C229.486 265.203 230.086 263.903 230.886 263.603C231.686 263.603 229.986 264.803 229.786 265.303L229.686 264.803C229.186 265.603 229.586 265.803 229.986 266.003C230.386 266.203 230.886 266.303 230.886 267.003C231.286 266.703 230.986 266.703 230.986 266.503C231.886 266.003 231.086 266.903 231.086 267.303C231.486 267.403 232.086 267.403 232.686 266.303C233.186 266.303 232.186 266.803 232.186 267.303L232.386 267.103C232.186 267.503 232.086 268.003 231.986 268.403C232.486 268.303 233.286 268.103 233.986 267.203C234.486 267.803 232.786 269.603 233.086 270.303C233.686 270.003 233.486 269.503 233.686 269.103L234.086 269.503C234.586 268.303 233.886 268.603 234.686 267.403C234.286 268.903 234.986 268.103 234.986 269.203L235.086 269.503C234.786 270.503 235.686 270.203 235.986 270.603C236.186 270.003 235.786 269.803 235.686 269.403C236.286 269.203 236.886 270.003 236.686 271.403C236.986 271.303 237.686 271.003 237.586 270.403C238.386 270.503 237.186 272.303 237.986 272.203L238.386 271.203C239.586 270.103 239.386 273.003 240.486 272.003L240.186 273.203C240.486 272.703 240.886 272.603 241.086 272.203L240.886 271.703C241.486 270.803 240.986 272.803 241.486 272.203C241.386 272.603 240.786 273.303 240.686 273.703C239.986 273.103 239.186 273.103 238.286 273.003C237.886 272.903 237.486 272.903 237.086 272.703C236.686 272.503 236.386 272.203 236.186 271.703C236.286 271.603 236.486 271.503 236.486 271.203C236.186 271.403 236.086 271.003 235.786 271.603V271.703C235.486 271.303 234.486 272.403 234.186 272.303C234.486 271.503 233.186 272.103 234.086 271.003L233.386 271.603C233.586 271.103 233.986 270.503 233.986 270.203C233.686 270.103 233.386 270.603 233.386 271.103C232.686 271.103 232.086 270.703 231.586 270.303C231.086 269.903 230.586 269.403 230.286 268.803L230.086 269.503C229.586 269.603 230.086 267.903 229.086 269.403C229.086 268.503 227.486 268.503 228.786 267.303C227.986 267.803 227.586 267.603 227.386 267.303C227.186 266.903 227.086 266.303 226.886 265.903C228.186 265.003 226.786 265.103 227.286 264.503C226.286 265.103 226.686 265.803 226.086 266.303C226.486 265.403 225.886 265.103 225.486 264.703C224.986 264.403 224.686 263.903 225.886 263.003C225.686 263.003 225.586 263.003 225.586 263.103C225.486 263.003 224.886 263.003 224.686 263.003C225.086 262.603 225.486 262.803 225.486 262.403C225.186 262.203 224.586 262.803 224.186 262.803C224.486 261.903 224.386 260.903 225.386 260.303C224.986 260.303 224.286 260.403 224.186 260.703C224.686 259.503 223.686 259.903 223.886 258.803C223.986 259.103 222.686 259.403 223.386 259.703C222.486 259.903 222.386 259.503 222.486 259.003C222.486 258.503 222.586 258.003 222.086 257.803L223.086 257.203C223.086 256.703 222.086 257.003 221.786 257.403C220.886 256.803 221.486 256.203 221.286 255.603C221.186 255.603 220.986 255.703 220.986 255.803C220.886 255.503 220.786 255.203 220.786 254.903C221.086 254.703 221.486 254.303 222.186 254.203C221.386 254.403 221.086 254.703 221.586 255.003Z" fill="#322015"/>
<path d="M228.885 259.204C228.585 259.304 228.485 259.304 228.385 259.304C228.585 259.204 228.785 259.204 228.885 259.204Z" fill="#322015"/>
<path d="M223.086 246.303C224.786 246.403 222.786 246.803 223.286 247.103C223.486 246.803 224.486 246.803 224.986 246.803C222.786 247.303 225.386 247.303 224.986 248.003C225.686 248.003 225.786 247.603 226.586 247.503C226.086 247.903 225.786 248.503 224.586 248.703C224.586 249.403 225.086 249.803 224.986 250.203C225.386 249.703 226.186 250.003 227.186 249.503C225.786 250.103 224.286 251.403 222.686 252.503C223.986 252.403 224.186 252.403 225.386 252.003C226.386 252.603 224.186 252.503 224.786 253.203L224.486 252.903C224.186 253.303 222.886 253.603 222.086 253.903V252.903C221.186 253.103 221.486 253.703 221.286 253.903C220.286 254.403 220.386 253.503 219.586 253.803C220.286 253.503 219.986 253.103 220.186 252.803H219.686C219.086 252.403 220.286 251.903 220.186 251.503C220.086 251.503 219.886 251.503 219.886 251.503C220.386 251.303 221.086 251.003 221.286 250.703V250.903C222.386 250.403 223.086 249.503 224.386 249.903L223.886 249.003C222.586 249.203 220.686 249.603 220.586 250.203L220.086 250.303C219.286 249.903 220.986 248.903 222.086 249.103C225.186 248.403 222.086 247.603 223.386 246.803C222.486 246.803 222.186 247.203 221.586 247.403C221.486 247.603 221.486 247.803 222.186 247.803C221.786 248.803 219.486 247.803 219.886 248.803C220.386 249.303 221.186 248.003 221.386 248.803C220.586 249.003 219.886 249.303 219.086 249.603C219.086 249.103 219.486 248.603 219.686 248.203C220.386 247.003 220.486 246.203 220.286 245.503C220.186 244.903 219.786 244.503 219.786 244.503C220.086 241.303 220.586 238.203 221.286 235.303C221.786 234.403 221.686 234.003 224.086 234.103C224.486 234.403 224.186 234.903 225.086 234.803C224.186 234.803 223.686 235.003 223.686 235.503C224.486 235.703 224.186 235.103 224.386 235.303V235.403C224.786 235.403 225.086 235.403 225.186 235.203C226.386 235.903 225.986 236.903 224.286 237.003C225.086 237.503 225.686 236.903 226.386 236.803C226.886 238.403 226.586 239.403 226.586 240.903C225.086 240.803 225.586 241.003 224.586 241.103L225.086 241.303C224.786 241.203 223.786 241.403 223.486 241.003C224.586 242.003 221.386 241.903 220.786 242.603H221.586C221.386 243.103 221.386 243.303 220.986 243.703C222.386 244.603 221.286 243.003 223.186 243.303L222.886 243.503C223.586 243.403 224.986 243.303 225.486 243.003C224.186 243.703 225.986 244.103 224.986 244.903C225.886 244.803 226.486 244.103 226.586 243.903C226.686 244.203 226.086 244.703 226.886 244.703L225.786 244.803C225.686 245.303 226.786 244.703 227.486 244.903C227.086 246.303 223.786 245.303 223.086 246.303Z" fill="#322015"/>
<path d="M225.986 258.203C225.886 258.103 225.885 258.003 225.885 257.803C225.985 257.903 225.986 258.003 225.986 258.203Z" fill="#322015"/>
<path d="M227.186 255.303C227.286 255.203 227.486 255.204 227.586 255.104C227.486 255.204 227.286 255.303 227.186 255.303Z" fill="#322015"/>
<path d="M228.586 254.703C228.086 254.803 228.086 254.903 227.586 255.203C227.786 254.903 227.686 254.603 228.586 254.703Z" fill="#322015"/>
<path d="M255.886 269.803C255.986 270.103 256.286 270.403 256.186 270.703L255.686 270.303L255.886 269.803Z" fill="#322015"/>
<path d="M255.086 271.003L254.686 271.403L254.385 269.903C254.785 270.003 254.586 271.003 255.086 271.003Z" fill="#322015"/>
<path d="M253.786 271.903L253.886 272.303C253.786 272.103 253.786 272.003 253.786 271.903Z" fill="#322015"/>
<path d="M253.785 271.204L253.585 270.104L254.185 270.904L253.985 271.104C253.985 271.504 253.885 271.603 253.785 271.803L253.585 271.004C253.685 271.204 253.785 271.404 253.785 271.204Z" fill="#322015"/>
<path d="M253.286 271.203C253.286 271.103 253.286 271.003 253.286 270.903C253.386 271.003 253.386 271.103 253.286 271.203Z" fill="#322015"/>
<path d="M252.185 273.104C252.285 272.704 252.085 272.104 252.085 271.704C252.585 271.304 252.485 272.904 252.885 272.404C252.285 271.504 253.085 271.804 253.285 271.204C253.185 272.204 252.885 272.904 252.485 273.204V272.504C252.185 272.404 252.285 272.904 252.185 273.104Z" fill="#322015"/>
<path d="M249.885 271.403L250.186 272.403C250.286 271.903 250.885 271.903 250.885 270.903C251.085 271.103 251.086 271.503 251.186 271.803C251.386 271.303 251.486 270.903 251.686 271.603C250.786 272.303 251.086 272.503 250.286 272.803C250.286 273.003 250.385 273.003 250.485 273.003L249.985 273.503C249.985 272.303 249.385 272.103 249.885 271.403Z" fill="#322015"/>
<path d="M249.186 272.104C249.586 272.204 249.686 273.203 249.486 273.803L248.686 272.904C248.886 272.904 249.186 273.104 249.186 272.104Z" fill="#322015"/>
<path d="M248.586 272.003C248.386 272.503 247.985 273.603 247.885 272.603C248.285 272.803 248.186 271.303 248.586 272.003Z" fill="#322015"/>
<path d="M245.686 272.604L246.586 272.104C246.886 270.804 246.286 271.604 246.186 271.004C246.886 270.804 246.586 271.204 246.986 272.104C247.186 272.004 247.386 272.804 247.586 273.204C246.586 272.004 246.086 275.104 245.686 272.604Z" fill="#322015"/>
<path d="M247.385 271.503V272.103L247.085 271.603L247.385 271.503Z" fill="#322015"/>
<path d="M243.585 273.703C242.785 275.103 242.885 272.603 242.185 273.203C242.185 273.303 242.185 273.403 242.185 273.603L241.785 273.303L241.685 273.603C241.985 272.703 241.585 272.203 241.585 271.503C242.285 270.703 241.485 272.703 242.185 271.803C242.185 271.403 242.285 270.703 242.285 270.403C242.385 270.903 242.285 271.503 242.285 272.003C242.585 272.203 242.585 271.603 242.685 271.303C242.885 271.903 242.585 273.203 243.085 273.003C243.585 272.303 243.185 271.703 243.685 272.203C243.085 273.603 244.285 272.103 244.285 273.103C244.785 272.903 245.185 272.003 245.185 271.503C244.985 272.603 245.185 273.703 245.385 274.003L244.885 272.903L244.385 274.203C244.085 273.503 243.785 273.503 243.385 273.603L243.585 273.703Z" fill="#322015"/>
<path d="M242.286 270.303C242.286 270.203 242.286 270.103 242.186 270.003C242.286 270.003 242.286 270.103 242.286 270.303Z" fill="#322015"/>
<path d="M245.486 271.003L245.385 270.703L245.586 270.403L245.486 271.003Z" fill="#322015"/>
<path d="M242.286 269.303C242.386 269.303 242.286 269.704 242.186 269.704V269.104L242.286 269.303Z" fill="#322015"/>
<path d="M241.686 270.003L241.186 270.703L241.286 270.003H241.686Z" fill="#322015"/>
<path d="M233.186 266.703C233.686 266.503 233.086 267.203 232.786 267.803C232.286 267.603 233.286 267.103 233.186 266.703Z" fill="#322015"/>
<path d="M230.186 261.904C230.886 261.804 230.286 262.604 230.486 262.804C229.886 262.804 229.886 262.304 230.186 261.904Z" fill="#322015"/>
<path d="M231.686 258.403C231.486 258.603 231.386 258.803 231.186 258.703L229.886 259.803C229.186 259.603 230.986 258.703 231.686 258.403Z" fill="#322015"/>
<path d="M230.886 256.204L230.486 256.804L230.386 256.604C229.786 256.904 229.586 257.104 229.086 257.504C229.286 257.104 229.786 256.604 230.886 256.204Z" fill="#322015"/>
<path d="M228.885 258.004C228.885 257.904 228.885 257.904 228.885 257.804C229.185 257.804 229.385 257.704 228.885 258.004Z" fill="#322015"/>
<path d="M228.886 257.704C228.986 257.704 228.986 257.604 229.086 257.604C229.086 257.704 228.986 257.804 228.986 257.904C228.786 257.904 228.686 257.904 228.886 257.704Z" fill="#322015"/>
<path d="M229.986 256.303C229.986 256.103 229.885 255.904 229.885 255.604L230.286 255.704C229.386 256.104 230.986 255.803 229.986 256.303Z" fill="#322015"/>
<path d="M228.086 253.103L227.086 253.203C226.786 252.803 228.786 251.803 227.186 251.803C227.786 251.903 228.186 251.203 228.586 251.703C227.786 252.203 227.786 252.803 228.086 253.103Z" fill="#322015"/>
<path d="M226.286 251.703C225.986 251.803 225.786 251.703 225.486 251.703C225.386 251.503 225.786 251.303 226.186 251.303C224.986 251.703 227.086 251.403 226.286 251.703Z" fill="#322015"/>
<path d="M226.086 249.503C226.086 249.603 225.986 249.803 225.686 249.703C225.686 249.303 226.786 249.303 227.486 249.003C228.186 249.203 226.686 249.703 226.086 249.503Z" fill="#322015"/>
<path d="M225.686 246.104L225.886 246.204L224.586 246.303L225.686 246.104Z" fill="#322015"/>
<path d="M226.385 243.504L227.186 243.204L227.086 243.704L226.385 243.504Z" fill="#322015"/>
<path d="M226.186 243.004L226.286 242.604L226.586 242.803C226.886 243.003 226.186 242.904 226.186 243.004Z" fill="#322015"/>
<path d="M226.486 241.704C226.386 241.704 226.586 241.804 226.686 241.804L226.086 242.204L226.486 241.704Z" fill="#322015"/>
<path d="M221.986 234.003C221.086 234.003 221.686 233.603 221.586 233.503C221.786 233.503 222.786 233.903 221.986 234.003Z" fill="#322015"/>
</g>
<path d="M102.886 220.503L99.5857 268.103C99.5857 268.103 110.086 264.303 114.286 261.503C118.486 258.703 122.586 225.803 122.586 225.803C122.586 225.803 101.686 221.403 102.886 220.503Z" fill="#FFF0DD"/>
<mask id="mask1_103_1368" style="mask-type:luminance" maskUnits="userSpaceOnUse" x="99" y="220" width="24" height="49">
<path d="M102.886 220.503L99.5857 268.103C99.5857 268.103 110.086 264.303 114.286 261.503C118.486 258.703 122.586 225.803 122.586 225.803C122.586 225.803 101.686 221.403 102.886 220.503Z" fill="white"/>
</mask>
<g mask="url(#mask1_103_1368)">
<g opacity="0.58">
<path d="M108.786 230.203C108.786 230.303 108.686 230.303 108.686 230.403C108.686 230.403 108.686 230.403 108.786 230.203Z" fill="#322015"/>
<path d="M104.986 226.503L105.186 226.303C105.186 226.403 105.086 226.503 104.986 226.503Z" fill="#322015"/>
<path d="M107.686 231.903C107.686 232.003 107.586 232.103 107.486 232.203L107.686 231.903Z" fill="#322015"/>
<path d="M106.486 232.303L106.386 232.403C106.386 232.303 106.486 232.303 106.486 232.303Z" fill="#322015"/>
<path d="M112.186 233.803C112.186 233.903 112.286 233.903 112.186 233.803V233.803Z" fill="#322015"/>
<path d="M111.886 238.003L111.686 238.203C111.786 238.103 111.886 238.103 111.886 238.003Z" fill="#322015"/>
<path d="M112.786 232.803C112.786 232.903 112.686 232.903 112.686 233.003C112.686 232.903 112.686 232.903 112.786 232.803Z" fill="#322015"/>
<path d="M103.886 224.903C103.886 224.803 103.886 224.803 103.886 224.703C103.986 224.703 103.986 224.803 103.886 224.903Z" fill="#322015"/>
<path d="M111.286 232.603C110.686 233.203 111.386 232.803 110.786 233.303C110.886 233.103 110.886 232.903 110.586 233.203C110.286 233.603 110.786 233.303 110.286 233.903L110.386 233.603C110.086 233.803 109.786 234.303 109.786 234.203C110.386 233.403 109.186 234.203 109.186 234.003V234.103L108.686 234.303L108.786 234.203C108.386 234.503 107.986 234.603 107.986 234.403C108.286 234.003 107.686 233.803 107.986 233.503C107.986 233.703 107.986 233.703 108.186 233.703L108.686 233.203C108.586 233.103 108.186 233.603 108.386 233.203C109.086 232.603 108.586 233.403 108.686 233.403C108.786 233.203 108.886 233.103 108.886 232.903C109.086 233.103 109.486 233.003 108.886 233.803C109.086 233.703 109.286 233.403 109.386 233.303C109.186 233.803 109.886 233.003 109.586 233.503C110.186 232.903 109.686 232.903 109.886 232.503C109.286 232.803 109.486 232.203 109.386 231.903C108.886 232.303 108.686 232.803 108.386 233.003C107.886 233.103 108.486 232.603 108.586 232.203C108.286 232.203 107.786 232.903 107.586 232.703L107.386 233.103C106.586 233.603 107.486 232.803 107.286 232.803C107.486 232.703 107.686 232.503 107.686 232.603C107.886 232.403 107.986 232.203 107.986 232.203C108.286 231.903 108.586 231.503 108.286 231.603C107.986 232.003 107.886 231.803 107.686 231.903V232.003C107.686 231.803 107.586 231.703 107.586 231.603L107.486 231.703C107.586 231.503 107.986 231.003 107.786 231.003C107.586 231.203 107.186 231.803 107.186 231.603C106.886 231.903 106.986 232.003 107.186 232.003C106.986 232.003 106.486 232.403 106.586 232.503C106.186 232.803 106.586 232.203 106.386 232.303C106.486 232.203 106.586 232.103 106.686 232.003C106.186 232.403 106.386 231.803 106.786 231.503L106.586 231.903C106.986 231.503 107.086 231.203 107.386 231.003C106.686 231.503 107.386 230.403 106.786 230.803L107.186 230.603C106.786 230.503 107.286 229.703 107.286 229.303C107.186 229.603 106.486 230.203 106.886 230.103C106.586 230.003 106.086 230.603 105.686 230.803C105.286 230.803 106.286 230.103 106.386 229.903V230.103C107.086 229.203 105.786 229.703 106.086 229.003C105.886 229.203 105.986 229.203 105.986 229.303C105.486 229.503 105.986 229.103 106.086 228.903C105.886 228.803 105.586 228.803 105.186 229.303C104.986 229.303 105.486 229.103 105.586 228.803L105.486 228.903L105.986 228.303C105.686 228.303 105.286 228.403 104.786 228.703C104.686 228.303 105.886 227.603 105.886 227.303C105.486 227.403 105.486 227.603 105.286 227.803L105.186 227.603C104.686 228.103 105.086 228.003 104.386 228.603C104.986 227.903 104.386 228.203 104.686 227.703H104.786C105.186 227.203 104.686 227.303 104.686 227.103C104.386 227.403 104.486 227.503 104.486 227.703C104.186 227.703 104.086 227.203 104.686 226.603C104.486 226.603 104.186 226.603 103.986 226.903C103.686 226.703 104.786 226.103 104.386 226.003L103.886 226.403C102.986 226.603 104.086 225.403 103.286 225.603L103.886 225.203C103.586 225.303 103.386 225.303 103.186 225.403L103.086 225.703C102.486 225.903 103.486 225.203 102.986 225.303C103.186 225.203 103.686 225.003 103.886 224.903C103.886 225.703 105.186 225.603 104.986 226.603C104.886 226.603 104.786 226.703 104.686 226.803C104.886 226.803 104.786 227.003 105.086 226.703V226.603C105.086 226.803 105.886 226.403 105.886 226.503C105.586 226.903 106.286 226.703 105.586 227.103L106.086 226.903C105.886 227.103 105.486 227.403 105.486 227.503C105.586 227.603 105.886 227.303 105.986 227.103C106.486 227.303 106.786 227.703 106.886 228.303L107.086 228.003C107.286 228.003 106.786 228.803 107.486 228.003C107.286 228.403 108.086 228.303 107.286 229.003C108.186 228.503 107.986 229.103 108.086 229.503C107.386 230.003 108.086 229.903 107.786 230.203C108.286 229.803 108.186 229.503 108.486 229.203C107.886 230.203 109.686 229.303 108.386 230.603C108.486 230.603 108.486 230.503 108.586 230.503C108.586 230.503 108.886 230.403 108.986 230.403C108.786 230.603 108.586 230.603 108.586 230.803C108.686 230.803 108.986 230.503 109.186 230.303C109.086 230.703 109.186 231.103 108.686 231.603C108.886 231.503 109.186 231.303 109.286 231.103C109.086 231.703 109.586 231.303 109.586 231.803C109.486 231.703 110.086 231.203 109.786 231.303C110.586 230.703 110.086 231.803 110.586 231.703L110.186 232.203C110.186 232.403 110.686 232.003 110.786 231.703C111.286 231.603 111.086 232.003 111.286 232.203C111.386 232.203 111.386 232.103 111.386 232.103L111.586 232.303C111.486 232.403 111.386 232.803 111.086 233.003C111.486 232.803 111.586 232.603 111.286 232.603Z" fill="#322015"/>
<path d="M107.086 232.803C107.186 232.703 107.286 232.703 107.386 232.703C107.186 232.803 107.086 232.803 107.086 232.803Z" fill="#322015"/>
<path d="M112.786 236.003C112.086 236.703 112.686 235.703 112.486 235.903C112.486 236.103 112.086 236.503 111.886 236.703C112.586 235.603 111.586 236.803 111.486 236.303C111.186 236.603 111.286 236.803 110.986 237.103C111.086 236.703 110.986 236.403 111.386 235.903C111.186 235.703 110.886 235.703 110.786 235.503C110.786 235.903 110.386 236.103 110.086 236.603C110.486 235.803 110.786 234.803 111.186 233.803C110.586 234.303 110.586 234.403 110.086 234.903C109.486 235.003 110.486 234.303 110.086 234.203H110.286C110.286 233.903 110.886 233.403 111.186 233.003L111.386 233.403C111.786 233.003 111.486 232.903 111.586 232.703C111.986 232.203 112.086 232.503 112.386 232.103C112.086 232.403 112.286 232.503 112.286 232.703L112.486 232.503C112.786 232.403 112.386 233.003 112.486 233.103C112.586 233.003 112.586 233.003 112.586 233.003C112.386 233.303 112.186 233.603 112.186 233.803V233.703C111.786 234.303 111.786 234.903 111.086 235.303L111.586 235.403C112.086 234.803 112.786 233.903 112.686 233.703L112.886 233.403C113.286 233.203 112.886 234.203 112.386 234.603C111.286 236.103 112.786 235.103 112.586 235.803C112.886 235.403 112.886 235.203 113.086 234.903C113.086 234.803 112.986 234.803 112.786 235.103C112.686 234.603 113.886 234.003 113.486 233.803C113.186 233.903 113.186 234.603 112.886 234.403L113.686 233.203C113.786 233.303 113.786 233.603 113.786 233.903C113.786 235.103 114.786 234.903 114.786 234.903C115.186 235.303 115.686 235.703 116.086 236.203C116.486 236.603 116.986 237.003 117.386 237.303C117.586 237.603 117.686 237.603 117.286 238.903C117.086 239.103 116.886 238.903 116.786 239.303C116.986 238.803 116.986 238.503 116.786 238.503C116.486 238.903 116.886 238.803 116.686 238.903H116.586C116.486 239.103 116.386 239.303 116.486 239.303C115.886 239.803 115.586 239.503 115.886 238.603C115.486 238.903 115.586 239.303 115.486 239.703C114.686 239.603 114.286 239.303 113.686 238.903C114.186 238.203 113.986 238.403 114.186 237.903L113.986 238.103C114.086 238.003 114.386 237.403 114.586 237.403C113.886 237.703 114.886 236.203 114.986 235.703L114.686 236.103C114.586 235.903 114.486 235.903 114.486 235.603C113.686 236.103 114.686 235.903 113.886 236.703V236.503C113.686 236.903 113.286 237.503 113.186 237.803C113.386 237.003 112.586 237.703 112.686 237.003C112.386 237.403 112.386 237.903 112.486 238.003C112.386 238.003 112.386 237.503 112.086 237.903L112.486 237.403C112.386 237.203 112.186 237.903 111.786 238.103C111.286 237.803 112.886 236.603 112.786 236.003Z" fill="#322015"/>
<path d="M108.686 232.703C108.786 232.703 108.786 232.803 108.786 232.803C108.686 232.803 108.686 232.803 108.686 232.703Z" fill="#322015"/>
<path d="M108.586 234.303C108.486 234.403 108.486 234.403 108.486 234.503C108.486 234.403 108.486 234.303 108.586 234.303Z" fill="#322015"/>
<path d="M107.986 235.003C108.186 234.803 108.186 234.803 108.386 234.503C108.286 234.703 108.486 234.803 107.986 235.003Z" fill="#322015"/>
<path d="M100.386 221.503C100.186 221.603 99.8858 221.803 99.6858 221.903C99.3858 221.803 100.186 221.403 99.8858 221.403C99.5858 221.903 99.4858 221.503 99.1858 221.503C99.7858 221.303 100.186 221.203 100.386 221.303L100.086 221.503C99.9858 221.603 100.186 221.503 100.386 221.503Z" fill="#322015"/>
<path d="M99.9857 222.903L100.386 222.503C100.086 222.603 99.9857 222.403 99.4857 222.703C99.4857 222.603 99.7857 222.403 99.8857 222.303C99.5857 222.403 99.3857 222.403 99.6857 222.203C100.186 222.403 100.286 222.203 100.586 222.403C100.686 222.303 100.686 222.303 100.586 222.303H100.986C100.386 222.603 100.486 222.803 99.9857 222.903Z" fill="#322015"/>
<path d="M100.586 222.903C100.486 222.703 100.986 222.403 101.286 222.303L101.086 222.803C101.086 222.703 100.986 222.603 100.586 222.903Z" fill="#322015"/>
<path d="M100.686 223.103C100.986 223.003 101.586 222.803 101.186 223.203C101.086 223.003 100.386 223.503 100.686 223.103Z" fill="#322015"/>
<path d="M101.786 223.903L101.286 223.803C100.586 224.103 101.186 224.103 100.886 224.303C100.586 224.103 100.886 224.103 101.186 223.603C101.086 223.603 101.386 223.203 101.486 223.003C101.186 223.903 102.786 222.903 101.786 223.903Z" fill="#322015"/>
<path d="M100.786 223.703L100.986 223.603L100.886 223.803L100.786 223.703Z" fill="#322015"/>
<path d="M102.886 224.103C103.786 223.803 102.686 224.703 103.086 224.703C103.086 224.703 103.186 224.603 103.286 224.503V224.703L103.486 224.603C102.986 224.903 102.986 225.203 102.686 225.503C102.086 225.703 103.186 225.003 102.586 225.203C102.386 225.403 102.086 225.603 101.986 225.803C102.186 225.503 102.386 225.303 102.586 225.103C102.586 225.003 102.286 225.203 102.186 225.303C102.386 225.003 102.986 224.603 102.786 224.503C102.286 224.603 102.186 225.003 102.286 224.703C103.086 224.303 101.986 224.603 102.486 224.203C102.286 224.103 101.786 224.303 101.486 224.503C102.086 224.103 102.486 223.703 102.586 223.503L102.286 224.103L102.986 223.803C102.586 224.003 102.786 224.103 102.886 224.103Z" fill="#322015"/>
<path d="M101.986 225.803L101.886 225.903C101.886 225.903 101.986 225.903 101.986 225.803Z" fill="#322015"/>
<path d="M101.186 224.603L101.086 224.703L100.886 224.803L101.186 224.603Z" fill="#322015"/>
<path d="M101.686 226.303L101.886 226.103L101.586 226.403L101.686 226.303Z" fill="#322015"/>
<path d="M102.186 226.103L102.586 225.903L102.286 226.203L102.186 226.103Z" fill="#322015"/>
<path d="M105.086 229.203C104.786 229.303 105.186 228.903 105.486 228.703C105.686 228.803 105.086 229.003 105.086 229.203Z" fill="#322015"/>
<path d="M106.286 231.603C105.886 231.703 106.186 231.303 106.086 231.203C106.386 231.103 106.386 231.403 106.286 231.603Z" fill="#322015"/>
<path d="M105.686 233.703C105.786 233.603 105.786 233.503 105.886 233.503L106.486 232.703C106.886 232.703 105.986 233.403 105.686 233.703Z" fill="#322015"/>
<path d="M106.486 234.803L106.586 234.403L106.686 234.503C106.886 234.203 106.986 234.003 107.186 233.803C107.186 233.903 106.986 234.303 106.486 234.803Z" fill="#322015"/>
<path d="M107.186 233.403C107.186 233.503 107.186 233.503 107.186 233.403C106.986 233.703 107.086 233.603 107.186 233.403Z" fill="#322015"/>
<path d="M107.286 233.603C107.186 233.603 107.186 233.703 107.286 233.603C107.186 233.603 107.186 233.603 107.286 233.603C107.386 233.403 107.286 233.503 107.286 233.603Z" fill="#322015"/>
<path d="M106.886 234.603L107.086 234.903H106.886C107.286 234.503 106.486 235.003 106.886 234.603Z" fill="#322015"/>
<path d="M108.686 235.603L109.086 235.203C109.386 235.303 108.686 236.403 109.386 235.803C109.086 236.003 109.086 236.403 108.786 236.303C109.086 235.803 108.886 235.603 108.686 235.603Z" fill="#322015"/>
<path d="M109.886 235.503C109.986 235.303 110.086 235.303 110.186 235.203C110.286 235.203 110.186 235.503 109.986 235.603C110.486 235.003 109.586 235.903 109.886 235.503Z" fill="#322015"/>
<path d="M110.586 236.303C110.586 236.203 110.486 236.103 110.686 236.103C110.786 236.303 110.386 236.703 110.186 237.103C109.786 237.203 110.286 236.403 110.586 236.303Z" fill="#322015"/>
<path d="M114.486 234.103C114.186 234.503 114.086 234.303 114.186 234.203C114.186 234.203 114.386 234.203 114.486 234.103Z" fill="#322015"/>
<path d="M111.886 237.203L111.786 237.303L112.286 236.703L111.886 237.203Z" fill="#322015"/>
<path d="M112.586 238.303L112.486 238.803L112.286 238.603L112.586 238.303Z" fill="#322015"/>
<path d="M112.886 238.403L112.986 238.603L112.786 238.703C112.686 238.703 112.886 238.403 112.886 238.403Z" fill="#322015"/>
<path d="M113.286 238.803C113.286 238.703 113.186 238.803 113.186 238.903V238.503L113.286 238.803Z" fill="#322015"/>
<path d="M117.586 237.803C117.786 237.303 117.786 237.703 117.886 237.603C117.786 237.803 117.386 238.303 117.586 237.803Z" fill="#322015"/>
</g>
</g>
<path d="M91.9856 91.4035C91.9856 91.4035 73.7856 87.8035 70.9856 87.2035C68.1856 86.6035 63.7856 91.0035 65.6856 102.603C67.5856 114.203 73.6856 120.903 81.4856 124.903C89.2856 128.903 90.0856 129.203 90.4856 130.003C90.9856 130.803 93.6856 142.203 93.4856 143.203C93.2856 144.203 79.8856 167.903 90.0856 201.303C100.286 234.703 141.286 257.403 151.986 261.603C151.986 261.603 141.286 263.303 141.486 278.103C141.486 278.103 218.686 278.103 221.686 278.103C224.686 278.103 229.586 257.403 225.286 230.203C220.986 203.003 199.086 185.803 186.786 173.603C174.486 161.303 165.686 146.503 160.886 132.603C155.986 118.703 154.886 113.403 153.786 110.203C153.786 110.203 152.586 96.0035 152.386 88.9035C152.186 81.8035 151.486 72.5035 146.186 71.1035C140.886 69.7035 135.586 75.0035 129.386 82.7035C129.386 82.5035 100.286 74.9035 91.9856 91.4035Z" fill="#FFF0DD"/>
<mask id="mask2_103_1368" style="mask-type:luminance" maskUnits="userSpaceOnUse" x="135" y="234" width="18" height="28">
<path d="M152.986 261.303C152.386 261.503 152.086 261.503 152.086 261.503C148.886 260.203 142.886 257.303 135.786 252.803C138.286 246.403 140.886 239.703 143.186 234.003C145.586 235.503 147.886 236.903 150.086 238.103C146.886 252.303 152.986 261.303 152.986 261.303Z" fill="white"/>
</mask>
<g mask="url(#mask2_103_1368)">
<g opacity="0.58">
<path d="M137.686 245.704C137.786 245.704 137.886 245.604 137.886 245.604C137.886 245.704 137.786 245.704 137.686 245.704Z" fill="#322015"/>
<path d="M136.286 255.504H136.086C136.186 255.404 136.286 255.404 136.286 255.504Z" fill="#322015"/>
<path d="M139.586 245.203C139.686 245.103 139.786 245.103 139.986 245.003L139.586 245.203Z" fill="#322015"/>
<path d="M140.386 246.403C140.386 246.403 140.486 246.403 140.486 246.503C140.486 246.403 140.486 246.403 140.386 246.403Z" fill="#322015"/>
<path d="M139.886 236.304C139.886 236.204 139.886 236.204 139.886 236.104H139.986C140.086 236.204 139.986 236.304 139.886 236.304Z" fill="#322015"/>
<path d="M140.186 236.704L140.286 236.604C140.186 236.604 140.186 236.704 140.186 236.704Z" fill="#322015"/>
<path d="M138.886 236.903C138.986 236.903 139.086 236.903 139.186 236.903C139.086 236.903 139.086 237.003 138.886 236.903Z" fill="#322015"/>
<path d="M135.886 259.104C135.886 259.204 135.786 259.304 135.786 259.404C135.686 259.204 135.686 259.104 135.886 259.104Z" fill="#322015"/>
<path d="M139.186 239.403C139.886 239.703 139.286 239.103 139.986 239.303C139.786 239.403 139.586 239.503 139.986 239.703C140.486 239.703 140.086 239.303 140.686 239.403L140.386 239.603C140.686 239.903 141.186 239.803 141.086 239.903C140.186 239.903 141.186 240.803 140.986 241.003L141.086 240.903L141.386 241.403C141.286 241.403 141.286 241.403 141.186 241.403C141.586 241.703 141.786 242.003 141.586 242.303C141.086 242.303 141.186 243.203 140.686 243.303C140.886 243.203 140.886 243.103 140.786 242.903L140.186 242.803C140.086 243.103 140.686 243.003 140.286 243.203C139.486 242.903 140.386 242.803 140.386 242.603C140.186 242.603 139.986 242.703 139.886 242.803C139.986 242.403 139.786 241.903 140.686 241.803C140.586 241.603 140.186 241.603 140.086 241.703C140.586 241.503 139.686 241.403 140.186 241.203C139.386 241.103 139.586 241.703 139.186 241.903C139.686 242.403 138.986 242.803 138.786 243.203C139.286 243.403 139.886 243.203 140.186 243.403C140.486 243.903 139.786 243.803 139.386 243.903C139.486 244.303 140.286 244.203 140.186 244.603L140.586 244.403C141.286 244.903 140.186 244.603 140.286 244.803C140.086 244.703 139.886 244.603 139.986 244.403C139.686 244.303 139.586 244.503 139.486 244.503V244.403C139.086 244.403 138.686 244.303 138.786 244.703C139.286 244.603 139.086 245.003 139.286 245.203L139.386 245.103C139.186 245.303 139.186 245.503 139.086 245.703H139.186C138.986 245.803 138.386 245.803 138.486 246.003C138.686 246.003 139.386 245.903 139.286 246.103C139.686 246.103 139.786 245.903 139.686 245.603C139.786 245.903 140.286 246.103 140.386 245.803C140.786 246.003 140.086 246.003 140.286 246.203C140.186 246.103 139.986 246.203 139.886 246.103C140.486 246.203 139.786 246.703 139.386 246.603L139.786 246.403C139.286 246.303 138.886 246.603 138.686 246.403C139.386 246.703 138.186 247.103 138.786 247.403L138.386 247.203C138.486 247.903 137.486 248.203 137.186 248.803C137.486 248.603 138.286 248.803 138.086 248.403C138.086 249.003 138.886 248.703 139.286 249.003C139.486 249.503 138.486 249.103 138.186 249.203L138.386 248.903C137.386 249.103 138.386 250.103 137.686 250.603C137.886 250.703 137.886 250.503 137.986 250.403C138.386 250.803 137.786 250.703 137.586 250.803C137.586 251.103 137.786 251.503 138.386 251.403C138.486 251.703 137.986 251.303 137.786 251.403L137.886 251.503L137.186 251.703C137.286 252.003 137.586 252.403 138.186 252.603C137.986 253.203 136.786 252.603 136.486 253.003C136.786 253.303 136.986 253.003 137.186 253.003L137.086 253.403C137.786 253.403 137.486 253.003 138.286 253.103C137.386 253.303 137.986 253.503 137.386 253.903H137.286C136.686 254.003 136.986 254.603 136.886 254.803C137.186 254.703 137.286 254.403 137.486 254.303C137.686 254.603 137.286 255.403 136.586 255.603C136.686 255.803 136.886 256.203 137.186 256.003C137.186 256.603 136.186 256.103 136.286 256.703H136.786C137.486 257.403 135.986 257.803 136.586 258.403H135.886C136.186 258.603 136.286 258.803 136.486 258.903L136.786 258.603C137.286 258.903 136.186 258.803 136.586 259.203C136.386 259.203 135.986 258.903 135.786 258.903C136.286 257.703 135.486 256.403 136.286 255.303C136.386 255.403 136.486 255.403 136.586 255.403C136.486 255.203 136.686 255.003 136.286 255.003H136.186C136.386 254.703 135.586 254.303 135.686 254.103C136.186 254.003 135.586 253.403 136.386 253.703L135.986 253.403C136.286 253.403 136.686 253.503 136.786 253.403C136.786 253.203 136.486 253.103 136.286 253.303C136.086 252.403 136.386 251.403 136.786 250.603L136.386 250.803C136.286 250.603 137.186 250.203 136.186 250.203C136.586 249.903 136.186 249.003 137.086 249.203C136.186 248.703 136.886 248.103 137.186 247.603C137.986 247.903 137.486 247.203 137.886 247.103C137.286 246.903 137.186 247.403 136.686 247.403C137.786 247.003 136.386 245.603 137.986 245.703C137.986 245.603 137.886 245.603 137.786 245.603C137.786 245.503 137.586 245.303 137.486 245.103C137.786 245.103 137.886 245.403 137.986 245.103C137.986 244.903 137.486 244.903 137.286 244.803C137.786 244.503 138.086 243.903 138.686 243.903C138.586 243.703 138.186 243.503 138.086 243.603C138.786 243.103 138.186 242.903 138.586 242.403C138.486 242.603 137.886 242.303 138.086 242.703C137.286 242.203 138.486 241.703 138.186 241.103L138.786 241.003C138.986 240.703 138.386 240.503 138.186 240.703C137.986 240.103 138.386 239.903 138.486 239.503C138.386 239.503 138.286 239.403 138.286 239.503L138.386 238.903C138.586 238.903 138.886 238.703 139.286 238.903C139.286 239.003 138.986 239.003 139.186 239.403Z" fill="#322015"/>
<path d="M140.686 245.004C140.586 244.904 140.486 244.804 140.486 244.804C140.586 244.904 140.586 245.004 140.686 245.004Z" fill="#322015"/>
<path d="M142.286 233.804C143.086 234.204 141.986 234.104 142.186 234.404C142.386 234.204 142.886 234.404 143.086 234.504C141.886 234.404 143.186 234.904 142.786 235.404C143.186 235.504 143.286 235.304 143.686 235.404C143.286 235.604 142.986 236.004 142.386 235.904C142.186 236.404 142.286 236.804 142.086 237.104C142.486 236.804 142.686 237.204 143.386 237.104C142.586 237.304 141.386 237.804 140.386 238.104C141.086 238.404 141.086 238.404 141.786 238.504C142.086 239.304 141.086 238.504 141.086 239.204V238.904C140.786 239.104 140.186 239.004 139.686 238.904L139.986 238.204C139.486 238.104 139.486 238.504 139.286 238.604C138.686 238.704 138.986 238.104 138.486 238.104C138.886 238.104 138.886 237.804 139.086 237.704L138.886 237.604C138.686 237.204 139.386 237.204 139.486 236.904C139.386 236.904 139.386 236.804 139.286 236.804C139.586 236.804 139.986 236.804 140.086 236.604L139.986 236.704C140.686 236.604 141.186 236.104 141.786 236.704V235.904C141.086 235.804 140.086 235.604 139.886 236.004H139.586C139.286 235.604 140.386 235.304 140.886 235.704C142.586 235.904 141.286 234.604 142.086 234.304C141.686 234.104 141.386 234.404 141.086 234.404C140.986 234.504 140.986 234.704 141.286 234.804C140.786 235.404 139.986 234.204 139.886 235.004C139.986 235.404 140.686 234.804 140.586 235.304H139.286C139.386 235.004 139.686 234.704 139.986 234.504C141.286 233.204 140.986 231.904 140.986 231.904C141.886 229.704 142.886 227.504 143.886 225.404C144.386 224.804 144.386 224.504 145.686 224.804C145.886 225.004 145.586 225.404 145.986 225.404C145.486 225.304 145.186 225.404 145.086 225.804C145.486 226.004 145.386 225.604 145.486 225.704V225.804C145.686 225.904 145.886 225.904 145.986 225.804C146.486 226.504 145.986 227.104 145.086 227.104C145.386 227.604 145.786 227.104 146.186 227.104C146.086 228.304 145.686 229.104 145.286 230.204C144.486 229.904 144.786 230.104 144.186 230.104L144.386 230.304C144.286 230.204 143.686 230.204 143.586 229.904C143.886 230.804 142.286 230.304 141.786 230.704L142.186 230.804C141.986 231.204 141.886 231.304 141.586 231.504C142.086 232.404 141.886 231.004 142.786 231.504L142.586 231.604C142.986 231.604 143.686 231.704 143.986 231.704C143.186 232.104 143.986 232.604 143.286 233.104C143.786 233.204 144.286 232.704 144.386 232.604C144.386 232.804 143.886 233.104 144.286 233.304L143.686 233.204C143.486 233.604 144.186 233.304 144.486 233.604C144.286 234.404 142.886 233.104 142.286 233.804Z" fill="#322015"/>
<path d="M139.986 243.004C139.986 242.904 139.986 242.804 140.086 242.704C140.086 242.804 140.086 242.904 139.986 243.004Z" fill="#322015"/>
<path d="M142.286 241.503C142.086 241.403 141.986 241.503 141.686 241.503C141.886 241.403 141.986 241.103 142.286 241.503Z" fill="#322015"/>
<path d="M135.986 261.303C135.186 260.903 136.486 260.604 136.186 260.204C136.086 260.204 136.086 260.203 135.986 260.303L136.086 260.004H135.886C136.386 260.104 136.586 259.704 136.986 259.604C137.486 260.004 136.386 259.704 136.886 260.104C137.086 260.004 137.486 260.004 137.686 260.004C137.386 260.204 137.086 260.203 136.786 260.303C136.686 260.503 136.986 260.504 137.186 260.504C136.886 260.704 136.186 260.704 136.286 261.104C136.686 261.404 136.986 261.004 136.786 261.404C135.986 261.104 136.886 261.804 136.386 262.004C136.486 262.304 136.986 262.604 137.286 262.504C136.686 262.504 136.086 262.704 135.986 263.004L136.486 262.504L135.786 262.303C136.186 261.803 136.086 261.603 135.986 261.303Z" fill="#322015"/>
<path d="M137.686 259.904L137.786 259.804C137.786 259.804 137.786 259.804 137.686 259.904Z" fill="#322015"/>
<path d="M138.186 259.603C138.186 259.703 137.986 259.703 137.986 259.603L138.286 259.503L138.186 259.603Z" fill="#322015"/>
<path d="M137.786 259.303L137.386 259.003H137.686L137.786 259.303Z" fill="#322015"/>
<path d="M138.386 251.903C138.586 252.203 138.086 252.103 137.786 252.003C137.786 251.603 138.186 252.103 138.386 251.903Z" fill="#322015"/>
<path d="M139.986 247.403C140.286 247.703 139.686 247.903 139.686 248.103C139.486 247.903 139.686 247.603 139.986 247.403Z" fill="#322015"/>
<path d="M141.986 245.904C141.786 245.904 141.686 246.004 141.686 245.804H140.786C140.586 245.404 141.586 245.804 141.986 245.904Z" fill="#322015"/>
<path d="M142.686 243.803L142.286 244.103V243.903C141.886 243.903 141.786 243.903 141.486 244.003C141.686 243.703 142.086 243.603 142.686 243.803Z" fill="#322015"/>
<path d="M141.186 244.204C141.186 244.204 141.186 244.104 141.286 244.104C141.386 244.204 141.486 244.204 141.186 244.204Z" fill="#322015"/>
<path d="M141.286 244.003H141.386C141.286 244.103 141.286 244.103 141.186 244.203C141.186 244.003 141.086 244.003 141.286 244.003Z" fill="#322015"/>
<path d="M142.286 243.404L142.486 242.804L142.586 243.104C142.086 243.004 142.886 243.404 142.286 243.404Z" fill="#322015"/>
<path d="M142.686 240.103L142.186 239.903C142.186 239.503 143.386 239.303 142.686 238.903C142.986 239.203 143.386 238.803 143.386 239.203C142.886 239.303 142.686 239.803 142.686 240.103Z" fill="#322015"/>
<path d="M142.386 238.503C142.186 238.503 142.186 238.403 141.986 238.303C141.986 238.103 142.286 238.103 142.386 238.203C141.686 238.103 142.786 238.503 142.386 238.503Z" fill="#322015"/>
<path d="M142.886 236.703C142.886 236.803 142.786 236.903 142.686 236.703C142.786 236.403 143.386 236.603 143.786 236.603C143.986 237.003 143.086 237.003 142.886 236.703Z" fill="#322015"/>
<path d="M143.686 234.003V234.103L142.986 234.003H143.686Z" fill="#322015"/>
</g>
</g>
<path d="M221.686 278.003C218.686 278.003 141.486 278.003 141.486 278.003C141.386 263.303 152.086 261.503 152.086 261.503C152.086 261.503 152.386 261.403 152.986 261.303C152.986 261.303 146.886 252.303 149.986 238.203C139.886 232.403 128.186 224.803 116.586 208.203C102.486 188.103 109.086 154.403 110.786 142.503C112.486 130.603 113.386 118.603 112.086 116.303C110.786 114.003 105.086 115.503 92.0856 110.303C81.6856 106.203 76.8856 99.3033 75.3856 96.6033C75.5856 96.5033 75.7856 96.4033 75.8856 96.3033C78.4856 94.7033 79.4856 91.8033 79.7856 90.0033C79.8856 89.7033 79.7856 89.3033 79.6856 89.0033C85.4856 90.2033 91.9856 91.4033 91.9856 91.4033C100.286 74.9033 129.286 82.5033 129.286 82.5033C135.486 74.8033 140.686 69.5033 146.086 70.9033C151.486 72.3033 152.186 81.6033 152.286 88.7033C152.486 95.8033 153.686 110.003 153.686 110.003C154.786 113.203 155.886 118.503 160.786 132.403C165.686 146.303 174.486 161.203 186.686 173.403C198.886 185.703 220.886 202.803 225.186 230.003C229.686 257.303 224.786 278.003 221.686 278.003Z" fill="#FBAF5E"/>
<path d="M152.086 261.603C152.086 261.603 158.286 259.703 165.186 260.603" stroke="#1B1C1E" stroke-width="1.2604" stroke-miterlimit="10" stroke-linecap="round" stroke-linejoin="round"/>
<path d="M152.986 261.303C152.986 261.303 146.086 251.203 150.686 235.603C154.586 222.203 169.186 218.003 175.286 218.703" stroke="#1B1C1E" stroke-width="1.2604" stroke-miterlimit="10" stroke-linecap="round" stroke-linejoin="round"/>
<path d="M146.186 278.004C146.186 278.004 145.686 271.704 149.386 268.104" stroke="#1B1C1E" stroke-width="1.2604" stroke-miterlimit="10" stroke-linecap="round" stroke-linejoin="round"/>
<path d="M114.986 205.703C114.986 205.703 107.386 256.203 105.486 261.603C105.486 261.603 92.0857 261.603 92.0857 278.103C92.0857 278.103 123.886 278.103 125.186 278.103C126.186 278.103 136.386 251.403 143.186 234.103C146.086 226.603 148.486 220.903 149.086 219.903L114.986 205.703Z" fill="#FBAF5E"/>
<path d="M99.5856 278.004C99.5856 278.004 99.0856 271.704 102.786 268.104" stroke="#1B1C1E" stroke-width="1.2604" stroke-miterlimit="10" stroke-linecap="round" stroke-linejoin="round"/>
<path d="M107.586 278.004C107.586 278.004 107.886 272.404 110.686 270.104" stroke="#1B1C1E" stroke-width="1.2604" stroke-miterlimit="10" stroke-linecap="round" stroke-linejoin="round"/>
<path d="M154.186 278.004C154.186 278.004 154.486 272.404 157.286 270.104" stroke="#1B1C1E" stroke-width="1.2604" stroke-miterlimit="10" stroke-linecap="round" stroke-linejoin="round"/>
<path d="M78.5857 87.9035C79.4857 88.1035 79.9857 89.0035 79.7857 89.9035C79.3857 91.7035 78.3857 94.6035 75.8857 96.2035C71.9857 98.7035 66.5857 97.4035 65.2857 94.6035C63.9857 91.7035 67.3857 86.1035 70.1857 86.2035C72.1857 86.3035 76.2857 87.3035 78.5857 87.9035Z" fill="#1B1C1E" stroke="#1B1C1E" stroke-width="1.818" stroke-miterlimit="10" stroke-linecap="round" stroke-linejoin="round"/>
<path d="M102.818 99.1084C103.433 97.1595 102.778 95.216 101.356 94.7673C99.9342 94.3186 98.2829 95.5347 97.668 97.4835C97.0531 99.4324 97.7076 101.376 99.1297 101.825C100.552 102.273 102.203 101.057 102.818 99.1084Z" fill="#1B1C1E"/>
<path d="M112.286 87.0035C110.786 86.5035 107.186 85.7035 105.886 87.0035C104.286 88.5035 106.286 90.9035 110.486 92.0035C115.386 93.2035 118.186 89.0035 112.286 87.0035Z" fill="white"/>
<path d="M137.986 91.8033C136.586 91.0033 134.686 90.1033 133.386 87.8033C132.086 85.5033 133.386 83.1033 135.986 80.5033C138.586 78.0033 142.886 74.9033 145.186 77.2033C147.386 79.4033 145.986 91.0033 144.086 92.7033C142.886 93.9033 139.286 92.5033 137.986 91.8033Z" fill="#CC813E"/>
<path d="M69.6857 114.203C69.6857 114.203 72.3857 117.803 77.8857 118.303C82.6857 118.703 84.8857 116.603 84.8857 116.603" stroke="#1B1C1E" stroke-width="1.2604" stroke-miterlimit="10" stroke-linecap="round" stroke-linejoin="round"/>
<path d="M143.186 234.003C146.086 226.503 148.486 220.803 149.086 219.803" stroke="#1B1C1E" stroke-width="1.2604" stroke-miterlimit="10" stroke-linecap="round" stroke-linejoin="round"/>
<mask id="mask3_103_1368" style="mask-type:luminance" maskUnits="userSpaceOnUse" x="90" y="129" width="18" height="14">
<path d="M93.4857 142.503C93.1857 139.703 90.8857 130.703 90.4857 130.003C90.3857 129.803 90.2857 129.703 90.0857 129.503C90.0857 129.503 97.7857 133.903 106.186 132.803C111.186 132.203 102.786 138.703 93.4857 142.503Z" fill="white"/>
</mask>
<g mask="url(#mask3_103_1368)">
<g opacity="0.58">
<path d="M97.3857 131.504C97.3857 131.404 97.2856 131.304 97.2856 131.204L97.3857 131.504Z" fill="#322015"/>
<path d="M92.2857 132.604C92.1857 132.604 92.2857 132.704 92.2857 132.604V132.604Z" fill="#322015"/>
<path d="M92.5857 133.504C92.5857 133.404 92.5857 133.404 92.5857 133.304C92.5857 133.304 92.6857 133.304 92.5857 133.504Z" fill="#322015"/>
<path d="M105.386 133.204C105.486 133.204 105.486 133.204 105.586 133.304C105.386 133.404 105.386 133.304 105.386 133.204Z" fill="#322015"/>
<path d="M94.0857 132.904C94.2857 132.204 93.8857 132.804 93.9857 132.104C94.0857 132.304 94.0857 132.404 94.1857 132.004C94.1857 131.604 93.9857 132.004 94.0857 131.404L94.1857 131.704C94.3857 131.404 94.2857 130.904 94.3857 131.004C94.3857 131.904 94.8857 130.704 94.9857 130.904V130.804L95.2857 130.404C95.2857 130.404 95.2857 130.504 95.2857 130.604C95.4857 130.204 95.6857 129.904 95.7857 130.004C95.7857 130.504 96.2857 130.204 96.3857 130.704C96.2857 130.604 96.2857 130.504 96.1857 130.704L96.0857 131.304C96.2857 131.304 96.1857 130.804 96.2857 131.104C96.1857 131.904 96.0857 131.104 95.8857 131.104C95.8857 131.304 95.9857 131.504 95.9857 131.504C95.7857 131.504 95.4857 131.704 95.3857 130.904C95.2857 131.104 95.2857 131.404 95.2857 131.504C95.1857 131.004 95.0857 131.904 94.9857 131.504C94.8857 132.204 95.2857 131.904 95.3857 132.404C95.6857 131.804 95.8857 132.404 96.1857 132.604C96.2857 132.104 96.1857 131.604 96.2857 131.304C96.5857 131.004 96.4857 131.604 96.5857 132.004C96.7857 131.804 96.6857 131.104 96.9857 131.104L96.8857 130.704C97.1857 129.904 96.9857 131.004 97.0857 130.904C96.9857 131.104 96.9857 131.304 96.8857 131.304C96.7857 131.604 96.8857 131.704 96.9857 131.804C96.9857 132.204 96.9857 132.604 97.1857 132.404C97.0857 131.904 97.3857 132.104 97.3857 131.904V131.804C97.4857 132.004 97.5857 131.904 97.6857 132.004V131.904C97.7857 132.104 97.6857 132.704 97.8857 132.604C97.8857 132.404 97.7857 131.704 97.9857 131.804C97.9857 131.504 97.8857 131.404 97.6857 131.504C97.8857 131.404 97.9857 130.804 97.7857 130.804C97.8857 130.404 97.8857 131.004 97.9857 130.804C97.9857 130.904 97.9857 131.104 97.9857 131.204C98.0857 130.604 98.2857 131.204 98.2857 131.604L98.1857 131.304C98.0857 131.804 98.2857 132.104 98.1857 132.404C98.3857 131.704 98.5857 132.804 98.7857 132.204L98.6857 132.604C99.0857 132.404 99.2857 133.304 99.5857 133.504C99.4857 133.304 99.5857 132.404 99.2857 132.704C99.5857 132.604 99.4857 131.904 99.5857 131.504C99.8857 131.204 99.6857 132.304 99.6857 132.504L99.4857 132.304C99.6857 133.304 100.186 132.104 100.486 132.804C100.486 132.604 100.386 132.704 100.386 132.604C100.586 132.104 100.486 132.704 100.586 132.904C100.786 132.804 100.986 132.604 100.886 132.004C101.086 131.904 100.886 132.404 100.886 132.604V132.504L101.086 133.204C101.286 133.004 101.486 132.704 101.586 132.104C101.986 132.204 101.686 133.504 101.886 133.704C102.086 133.404 101.886 133.204 101.886 133.004L102.086 133.104C101.986 132.404 101.786 132.804 101.886 132.004C102.086 132.804 102.186 132.204 102.386 132.804V132.904C102.486 133.404 102.786 133.104 102.886 133.204C102.786 132.904 102.686 132.804 102.586 132.704C102.786 132.504 103.186 132.704 103.286 133.404C103.386 133.304 103.586 133.004 103.486 132.704C103.886 132.604 103.586 133.704 103.886 133.504V133.004C104.186 132.204 104.586 133.704 104.886 133.004V133.604C104.986 133.304 105.086 133.204 105.086 132.904L104.886 132.704C104.986 132.204 105.086 133.204 105.186 132.804C105.186 133.004 105.086 133.404 105.086 133.604C104.386 133.304 103.686 134.104 102.986 133.504C102.986 133.404 103.086 133.304 102.986 133.204C102.886 133.404 102.786 133.204 102.786 133.504C102.586 133.404 102.386 134.104 102.286 134.104C102.186 133.704 101.886 134.304 101.986 133.504L101.886 134.004C101.886 133.704 101.886 133.404 101.786 133.204C101.686 133.304 101.686 133.604 101.686 133.704C101.186 134.004 100.586 133.904 100.186 133.604L100.286 134.004C100.186 134.204 99.8857 133.304 99.9857 134.304C99.7857 133.904 99.2857 134.504 99.3857 133.604C99.1857 134.504 98.7857 134.004 98.4857 133.804C98.5857 133.004 98.1857 133.604 98.1857 133.204C98.0857 133.804 98.3857 133.904 98.3857 134.304C98.1857 133.304 97.3857 134.904 97.3857 133.304C97.3857 133.404 97.2857 133.404 97.3857 133.504C97.2857 133.504 97.1857 133.804 97.0857 133.804C97.0857 133.504 97.1857 133.404 97.0857 133.304C96.9857 133.304 96.9857 133.804 96.8857 134.004C96.6857 133.604 96.2857 133.404 96.3857 132.804C96.2857 133.004 96.1857 133.304 96.1857 133.404C95.8857 132.904 95.7857 133.404 95.4857 133.104C95.5857 133.104 95.4857 133.804 95.6857 133.504C95.3857 134.404 95.0857 133.304 94.7857 133.704V133.104C94.5857 133.004 94.4857 133.504 94.5857 133.704C94.1857 134.004 94.0857 133.604 93.8857 133.604C93.8857 133.704 93.8857 133.804 93.8857 133.804H93.4857C93.4857 133.704 93.3857 133.304 93.4857 133.004C93.8857 132.804 93.8857 133.004 94.0857 132.904Z" fill="#322015"/>
<path d="M97.2857 130.503C97.1857 130.603 97.1857 130.703 97.1857 130.703C97.1857 130.603 97.2857 130.503 97.2857 130.503Z" fill="#322015"/>
<path d="M90.8857 130.804C91.1857 130.004 91.0857 131.004 91.2857 130.804C91.1857 130.604 91.3857 130.104 91.3857 129.904C91.2857 131.004 91.6857 129.704 91.8857 130.004C91.9857 129.604 91.8857 129.504 91.8857 129.104C91.9857 129.404 92.1857 129.604 92.0857 130.304C92.3857 130.404 92.5857 130.204 92.7857 130.304C92.5857 130.004 92.8857 129.704 92.8857 129.104C92.9857 129.904 93.2857 130.804 93.3857 131.804C93.5857 131.104 93.5857 131.104 93.6857 130.404C94.0857 130.004 93.6857 131.104 94.0857 130.904L93.8857 131.004C93.9857 131.204 93.8857 131.904 93.8857 132.304L93.4857 132.104C93.3857 132.604 93.6857 132.504 93.6857 132.704C93.6857 133.304 93.3857 133.104 93.3857 133.504C93.3857 133.104 93.1857 133.204 93.0857 133.004L92.9857 133.204C92.7857 133.404 92.7857 132.804 92.5857 132.704C92.5857 132.804 92.5857 132.804 92.5857 132.904C92.5857 132.604 92.5857 132.204 92.4857 132.104H92.5857C92.5857 131.504 92.2857 131.004 92.6857 130.404L92.2857 130.504C92.1857 131.204 92.0857 132.204 92.2857 132.304V132.604C91.9857 132.904 91.8857 132.004 92.0857 131.504C92.2857 129.904 91.4857 131.304 91.2857 130.604C91.1857 131.004 91.2857 131.204 91.2857 131.504C91.3857 131.604 91.3857 131.604 91.4857 131.204C91.7857 131.504 91.0857 132.504 91.5857 132.504C91.8857 132.304 91.4857 131.804 91.7857 131.804V133.004C91.5857 132.904 91.4857 132.704 91.2857 132.504C90.5857 131.504 89.7857 132.004 89.7857 132.004C89.1857 131.804 88.4857 131.504 87.8857 131.204C87.2857 130.904 86.5857 130.604 85.9857 130.204C85.6857 129.904 85.4857 129.804 85.8857 128.704C86.0857 128.504 86.2857 128.704 86.3857 128.304C86.1857 128.704 86.2857 129.004 86.4857 129.104C86.6857 128.704 86.3857 128.804 86.4857 128.804C86.5857 128.604 86.5857 128.404 86.5857 128.404C87.0857 127.904 87.3857 128.204 87.1857 129.004C87.5857 128.704 87.2857 128.304 87.3857 128.004C88.0857 127.904 88.4857 128.104 89.0857 128.304C88.8857 129.004 88.9857 128.804 88.8857 129.304L88.9857 129.004C88.8857 129.104 88.8857 129.704 88.6857 129.804C89.2857 129.304 88.7857 130.904 88.9857 131.304L89.0857 130.904C89.2857 131.004 89.3857 131.104 89.4857 131.304C90.0857 130.704 89.1857 131.104 89.5857 130.204L89.6857 130.404C89.6857 130.004 89.8857 129.404 89.7857 129.104C89.8857 129.804 90.2857 129.004 90.4857 129.604C90.5857 129.204 90.2857 128.704 90.2857 128.704C90.3857 128.704 90.5857 129.104 90.6857 128.704L90.5857 129.204C90.7857 129.304 90.6857 128.704 90.8857 128.404C91.3857 128.804 90.4857 130.404 90.8857 130.804Z" fill="#322015"/>
<path d="M96.1857 131.504C96.0857 131.504 96.0857 131.504 95.9857 131.404C96.0857 131.404 96.0857 131.404 96.1857 131.504Z" fill="#322015"/>
<path d="M95.2857 129.503C95.1857 129.703 95.2857 129.803 95.2857 130.103C95.2857 129.903 95.0857 129.903 95.2857 129.503Z" fill="#322015"/>
<path d="M107.286 132.104L107.586 131.704C107.586 131.004 107.386 131.504 107.286 131.204C107.586 131.004 107.486 131.304 107.686 131.704C107.786 131.704 107.886 132.004 107.986 132.204C107.686 131.704 107.786 133.304 107.286 132.104Z" fill="#322015"/>
<path d="M106.586 132.904C106.386 133.704 106.186 132.504 105.986 132.804C105.986 132.804 105.986 132.904 106.086 133.004L105.886 132.904V133.104C105.886 132.604 105.686 132.404 105.586 132.104C105.786 131.604 105.686 132.704 105.886 132.104C105.886 131.904 105.786 131.504 105.786 131.404C105.886 131.604 105.986 131.904 105.986 132.204C106.086 132.304 106.086 132.004 106.086 131.804C106.286 132.104 106.286 132.804 106.486 132.604C106.586 132.204 106.386 131.904 106.586 132.104C106.486 132.904 106.786 132.004 106.986 132.404C107.186 132.204 107.286 131.804 107.186 131.504C107.186 132.104 107.386 132.604 107.586 132.804L107.286 132.304L107.186 133.004C106.786 132.704 106.686 132.804 106.586 132.904Z" fill="#322015"/>
<path d="M105.586 131.404C105.586 131.404 105.586 131.304 105.486 131.304C105.586 131.204 105.586 131.304 105.586 131.404Z" fill="#322015"/>
<path d="M107.086 131.303L106.986 131.203L107.086 131.003V131.303Z" fill="#322015"/>
<path d="M105.486 130.904C105.486 130.904 105.586 131.104 105.486 131.104V130.904Z" fill="#322015"/>
<path d="M105.286 131.304L105.186 131.704L105.086 131.404L105.286 131.304Z" fill="#322015"/>
<path d="M101.186 131.603C101.286 131.403 101.286 131.803 101.286 132.203C101.086 132.303 101.286 131.803 101.186 131.603Z" fill="#322015"/>
<path d="M98.6857 130.804C98.8857 130.504 98.9857 131.004 99.0857 131.004C98.8857 131.204 98.7857 131.104 98.6857 130.804Z" fill="#322015"/>
<path d="M97.7856 129.104C97.7856 129.304 97.8856 129.304 97.7856 129.404V130.304C97.4856 130.504 97.6856 129.504 97.7856 129.104Z" fill="#322015"/>
<path d="M96.5857 128.804L96.6857 129.104H96.5857C96.5857 129.404 96.5857 129.604 96.6857 129.904C96.5857 129.804 96.4857 129.404 96.5857 128.804Z" fill="#322015"/>
<path d="M96.6857 130.104C96.6857 130.004 96.6857 130.004 96.6857 130.104C96.6857 130.004 96.7857 130.104 96.6857 130.104C96.7857 130.204 96.6857 130.204 96.6857 130.104Z" fill="#322015"/>
<path d="M94.5857 129.404L94.4857 129.904C94.2857 130.004 94.1857 128.804 93.8857 129.604C94.0857 129.304 93.7857 129.004 94.0857 128.904C94.0857 129.404 94.3857 129.504 94.5857 129.404Z" fill="#322015"/>
<path d="M93.5857 130.004C93.5857 130.204 93.4856 130.204 93.4856 130.404C93.3856 130.404 93.3856 130.204 93.4856 130.004C93.3856 130.604 93.5857 129.604 93.5857 130.004Z" fill="#322015"/>
<path d="M92.5857 129.703C92.6857 129.703 92.6857 129.803 92.5857 129.903C92.3857 129.803 92.5857 129.303 92.5857 128.903C92.8857 128.703 92.7857 129.503 92.5857 129.703Z" fill="#322015"/>
<path d="M90.1857 133.004C90.2857 132.604 90.4857 132.704 90.4857 132.804C90.4857 132.804 90.2857 132.904 90.1857 133.004Z" fill="#322015"/>
<path d="M91.0857 129.504L91.1857 129.404L91.0857 130.104V129.504Z" fill="#322015"/>
</g>
</g>
</svg>
