<svg width="348" height="353" viewBox="0 0 348 353" fill="none" xmlns="http://www.w3.org/2000/svg">
<path fill-rule="evenodd" clip-rule="evenodd" d="M189.682 6.87598C223.938 2.10811 264.631 -8.5502 290.627 14.3043C316.704 37.2314 301.689 80.5083 311.391 113.881C320.627 145.649 354.433 172.386 345.874 204.344C337.315 236.307 295.004 242.843 270.82 265.384C241.533 292.68 228.439 340.013 189.682 349.924C149.04 360.318 105.513 341.055 71.5944 316.334C37.6894 291.622 11.9241 255.269 3.38624 214.143C-4.67438 175.316 6.49166 134.525 26.7807 100.472C44.4155 70.8747 77.4001 56.976 107.246 39.8276C133.554 24.7122 159.643 11.0568 189.682 6.87598Z" fill="#FF5C8A" fill-opacity="0.2"/>
<path d="M312.923 274.251C315.323 272.951 74.5234 270.651 60.5234 274.251C50.4234 276.851 87.0234 279.451 130.123 279.351C175.923 279.351 229.123 276.551 244.023 278.051C273.123 280.851 304.823 278.651 312.923 274.251Z" fill="#1B1C1E"/>
<path d="M148.223 182.45C148.223 182.45 146.223 255.75 146.223 258.25C146.223 260.75 141.523 275.75 141.523 275.75H130.423C130.423 275.75 137.223 225.55 134.323 215.65C131.423 205.65 129.823 179.85 134.123 179.25C138.423 178.75 145.323 173.05 148.223 182.45Z" fill="#FFF0DD"/>
<mask id="mask0_110_1265" style="mask-type:luminance" maskUnits="userSpaceOnUse" x="130" y="177" width="19" height="99">
<path d="M148.223 182.45C148.223 182.45 146.223 255.75 146.223 258.25C146.223 260.75 141.523 275.75 141.523 275.75H130.423C130.423 275.75 137.223 225.55 134.323 215.65C131.423 205.65 129.823 179.85 134.123 179.25C138.423 178.75 145.323 173.05 148.223 182.45Z" fill="white"/>
</mask>
<g mask="url(#mask0_110_1265)">
<g opacity="0.88">
<path d="M138.223 194.45C138.323 194.55 138.423 194.65 138.523 194.75C138.523 194.75 138.523 194.65 138.223 194.45Z" fill="#322015"/>
<path d="M140.723 196.85C140.823 196.95 140.923 197.15 141.123 197.35L140.723 196.85Z" fill="#322015"/>
<path d="M143.023 196.95C143.123 196.95 143.223 197.05 143.223 197.05C143.123 196.95 143.023 196.95 143.023 196.95Z" fill="#322015"/>
<path d="M134.323 204.75C134.223 204.75 134.223 204.75 134.123 204.65C134.123 204.65 134.223 204.75 134.323 204.75Z" fill="#322015"/>
<path d="M135.023 205.55C135.023 205.65 135.023 205.65 135.023 205.75H135.123C135.323 205.75 135.123 205.65 135.023 205.55Z" fill="#322015"/>
<path d="M135.723 205.25V205.45C135.823 205.35 135.723 205.35 135.723 205.25Z" fill="#322015"/>
<path d="M133.723 204.45C133.823 204.55 134.023 204.55 134.123 204.65C134.023 204.55 133.923 204.45 133.723 204.45Z" fill="#322015"/>
<path d="M138.123 194.35C138.223 194.45 138.223 194.45 138.323 194.45C138.223 194.35 138.123 194.35 138.123 194.35Z" fill="#322015"/>
<path d="M140.423 197.45C140.323 197.35 140.423 197.35 140.423 197.45V197.45Z" fill="#322015"/>
<path d="M135.723 201.85C137.223 201.95 135.723 202.25 137.123 202.45C136.823 202.25 136.623 202.05 137.423 202.05C138.223 202.35 137.323 202.45 138.523 202.75L138.123 202.35C138.723 202.25 139.723 202.65 139.623 202.45C138.023 201.95 140.323 201.75 140.223 201.45L140.323 201.55L141.223 201.35H141.323C141.223 201.35 141.123 201.35 141.023 201.25C141.923 201.25 142.523 201.15 142.423 200.75C141.923 200.55 141.923 200.35 141.923 200.05C141.923 199.85 142.023 199.55 141.623 199.35C141.823 199.55 141.823 199.65 141.523 199.75L140.423 199.45C140.523 199.15 141.423 199.75 140.923 199.25C139.423 198.85 140.723 199.65 140.523 199.85C140.223 199.65 139.923 199.45 139.823 199.35C139.623 199.75 139.023 200.15 140.523 200.75C140.123 200.75 139.523 200.55 139.423 200.45C140.223 200.95 138.523 200.45 139.223 200.95C137.823 200.55 138.623 200.05 137.923 199.55C139.123 199.35 138.223 198.55 138.223 197.95C139.223 198.25 140.023 198.85 140.623 198.85C141.423 198.65 140.223 198.25 139.723 197.75C140.223 197.55 141.423 198.35 141.623 197.95L142.123 198.45C143.623 198.75 141.623 197.95 142.023 197.95C141.623 197.85 141.223 197.75 141.223 197.95C140.723 197.75 140.523 197.55 140.523 197.35H140.423C139.823 196.95 139.023 196.65 139.523 196.45C140.223 197.05 140.223 196.45 140.623 196.55L140.723 196.75C140.523 196.45 140.823 196.25 140.723 196.05L140.923 196.15C140.723 195.85 139.723 195.25 140.123 195.05C140.523 195.35 141.423 196.15 141.423 195.85C142.023 196.25 141.823 196.45 141.523 196.65C141.823 196.55 142.823 196.95 142.823 197.25C143.623 197.55 142.623 196.85 143.023 196.95C142.823 196.85 142.523 196.65 142.323 196.55C143.323 197.15 142.723 196.15 142.023 195.65L142.423 196.25C141.623 195.85 141.323 195.15 140.823 194.95C142.123 195.65 140.723 193.75 141.823 194.35L141.123 194.05C141.923 193.75 140.923 192.25 141.323 191.35C141.423 191.85 142.623 192.95 141.923 192.95C142.623 192.65 143.223 193.85 143.923 194.25C144.623 194.35 143.023 193.05 142.723 192.55V193.05C142.223 192.25 142.523 192.05 142.923 191.95C143.323 191.85 143.823 191.85 143.723 191.15C144.023 191.55 143.823 191.45 143.823 191.65C144.623 192.25 143.923 191.35 143.923 190.85C144.323 190.75 144.823 190.95 145.323 191.95C145.723 192.05 144.923 191.35 144.823 190.95L145.023 191.15C144.923 190.75 144.723 190.25 144.623 189.85C145.123 190.05 145.723 190.35 146.423 191.25C146.923 190.75 145.423 188.75 145.823 188.15C146.323 188.55 146.123 188.95 146.323 189.45L146.723 189.15C147.123 190.45 146.523 189.95 147.123 191.35C146.823 189.75 147.423 190.75 147.523 189.65L147.423 189.55C147.323 188.55 148.023 188.95 148.323 188.65C148.423 189.25 148.123 189.45 147.923 189.75C148.423 190.05 149.023 189.45 149.023 188.05C149.323 188.15 149.823 188.65 149.723 189.25C150.423 189.35 149.623 187.35 150.323 187.55L150.523 188.55C151.423 189.85 151.623 187.05 152.423 188.25L152.323 187.05C152.523 187.55 152.823 187.75 152.923 188.25L152.623 188.75C153.023 189.75 152.823 187.75 153.223 188.45C153.223 188.05 152.823 187.25 152.823 186.85C152.223 187.25 151.423 187.15 150.723 187.05C150.023 186.95 149.223 187.05 148.723 187.85C148.823 187.95 148.923 188.15 148.923 188.35C148.723 188.15 148.523 188.45 148.323 187.85V187.75C148.023 188.15 147.223 186.75 147.023 186.85C147.123 187.75 146.123 186.85 146.823 188.15L146.223 187.35C146.323 187.85 146.623 188.55 146.623 188.85C146.323 188.85 146.123 188.35 146.123 187.85C144.923 187.75 143.723 188.55 143.123 189.65L142.923 188.95C142.523 188.85 142.823 190.55 141.923 189.05C141.923 189.55 141.523 189.65 141.223 189.85C141.023 190.05 140.923 190.35 141.523 191.05C140.823 190.55 140.423 190.65 140.123 190.95C139.823 191.25 139.823 191.85 139.723 192.25C141.023 193.15 139.723 193.05 140.123 193.55C139.023 192.95 139.523 192.35 138.923 191.85C139.423 192.75 138.823 192.95 138.423 193.35C138.023 193.65 137.723 194.05 139.023 194.95C138.823 194.95 138.723 194.95 138.623 194.85C138.523 194.95 138.023 194.95 137.823 194.95C138.223 195.25 138.623 195.05 138.623 195.45C138.423 195.65 137.723 195.15 137.323 195.05C137.723 195.85 137.623 196.75 138.823 197.25C138.423 197.25 137.723 197.15 137.623 196.95C138.323 198.05 137.223 197.65 137.523 198.65C137.523 198.35 136.323 198.15 136.923 197.85C136.023 197.75 136.023 198.05 136.023 198.45C136.123 198.85 136.323 199.35 135.823 199.55L136.823 200.05C136.923 200.45 135.823 200.25 135.523 199.95C134.723 200.45 135.323 201.05 135.223 201.55C135.123 201.55 134.823 201.55 134.923 201.45L134.823 202.15C135.123 202.25 135.623 202.65 136.323 202.65C135.523 202.45 135.223 202.25 135.723 201.85Z" fill="#322015"/>
<path d="M142.323 198.05C142.023 197.95 141.923 197.95 141.823 197.95C142.023 198.05 142.223 198.05 142.323 198.05Z" fill="#322015"/>
<path d="M137.923 209.15C139.623 209.05 137.623 208.75 138.123 208.45C138.423 208.75 139.423 208.65 139.923 208.55C137.723 208.25 140.323 208.15 139.923 207.55C140.623 207.55 140.723 207.85 141.523 207.85C140.923 207.55 140.623 207.05 139.423 206.95C139.423 206.35 139.823 205.95 139.723 205.65C140.223 206.05 140.923 205.75 142.023 206.15C140.623 205.75 138.923 204.75 137.223 203.85C138.623 203.85 138.723 203.85 139.923 204.05C140.923 203.45 138.723 203.75 139.223 203.15L138.923 203.45C138.523 203.05 137.323 202.95 136.423 202.65L136.523 203.55C135.623 203.45 135.823 202.95 135.623 202.75C134.523 202.35 134.723 203.15 133.923 202.95C134.623 203.15 134.323 203.45 134.623 203.75H134.123C133.623 204.15 134.823 204.45 134.723 204.85C134.623 204.85 134.523 204.85 134.423 204.85C135.023 205.05 135.623 205.15 135.823 205.45V205.25C137.023 205.65 137.723 206.35 139.023 205.95C138.923 206.25 138.723 206.45 138.623 206.75C137.323 206.65 135.323 206.45 135.223 205.95L134.723 205.85C133.923 206.25 135.723 206.95 136.823 206.75C139.923 207.15 136.923 208.05 138.223 208.55C137.323 208.65 137.023 208.25 136.423 208.15C136.323 207.95 136.323 207.85 137.023 207.85C136.523 207.05 134.323 208.05 134.623 207.15C135.023 206.75 136.023 207.75 136.123 207.05L133.723 206.55C133.823 206.95 134.223 207.35 134.423 207.65C135.223 208.55 135.223 209.35 135.123 209.85C135.023 210.35 134.723 210.75 134.723 210.75L135.023 212.75C135.123 213.35 135.323 214.05 135.423 214.65L135.823 216.55L136.323 218.45C136.823 219.15 136.723 219.45 139.123 219.35C139.523 219.15 139.323 218.65 140.123 218.65C139.223 218.75 138.723 218.55 138.723 218.05C139.523 217.85 139.223 218.35 139.423 218.25V218.15C139.823 218.15 140.123 218.15 140.223 218.25C141.423 217.55 141.023 216.85 139.323 216.75C140.123 216.25 140.723 216.75 141.423 216.85C141.823 215.45 141.623 214.65 141.523 213.35C140.023 213.45 140.523 213.35 139.523 213.25L140.023 213.05C139.723 213.15 138.723 213.05 138.423 213.35C139.523 212.45 136.323 212.65 135.623 212.15H136.423C136.223 211.75 136.223 211.55 135.823 211.25C137.223 210.45 136.123 211.85 138.023 211.55L137.723 211.35C138.423 211.45 139.823 211.45 140.323 211.65C139.023 211.05 140.723 210.65 139.723 210.05C140.623 210.05 141.323 210.65 141.423 210.85C141.523 210.65 140.823 210.25 141.623 210.15H140.523C140.323 209.75 141.523 210.15 142.223 209.95C141.923 208.95 138.623 209.95 137.923 209.15Z" fill="#322015"/>
<path d="M139.623 198.95C139.523 199.05 139.523 199.15 139.623 199.25C139.623 199.25 139.723 199.15 139.623 198.95Z" fill="#322015"/>
<path d="M141.223 201.35C141.323 201.35 141.523 201.45 141.623 201.45C141.423 201.45 141.323 201.35 141.223 201.35Z" fill="#322015"/>
<path d="M142.623 201.85C142.123 201.75 142.123 201.65 141.523 201.45C141.823 201.65 141.823 201.95 142.623 201.85Z" fill="#322015"/>
<path d="M145.523 191.95C146.023 192.25 145.423 191.45 145.123 190.85C144.723 190.85 145.623 191.55 145.523 191.95Z" fill="#322015"/>
<path d="M143.123 195.85C143.723 195.95 143.123 195.35 143.323 195.15C142.823 195.05 142.823 195.45 143.123 195.85Z" fill="#322015"/>
<path d="M145.123 198.85C144.923 198.65 144.723 198.55 144.623 198.55C144.123 198.25 143.723 197.95 143.223 197.65C142.523 197.75 144.423 198.55 145.123 198.85Z" fill="#322015"/>
<path d="M144.723 200.45L144.223 199.95L144.123 200.05C143.523 199.75 143.223 199.65 142.723 199.35C142.923 199.75 143.523 200.15 144.723 200.45Z" fill="#322015"/>
<path d="M142.523 199.05C142.523 199.05 142.523 199.15 142.623 199.15C142.723 199.25 143.023 199.25 142.523 199.05Z" fill="#322015"/>
<path d="M142.523 199.35C142.623 199.35 142.623 199.45 142.723 199.45C142.623 199.35 142.623 199.25 142.623 199.25C142.423 199.15 142.323 199.15 142.523 199.35Z" fill="#322015"/>
<path d="M143.823 200.45C143.823 200.65 143.823 200.85 143.823 201.05L144.223 200.95C143.223 200.55 144.823 200.85 143.823 200.45Z" fill="#322015"/>
<path d="M142.323 203.15L141.323 203.05C141.023 203.45 143.123 204.15 141.523 204.15C142.123 204.05 142.623 204.55 142.923 204.15C142.123 203.95 142.123 203.45 142.323 203.15Z" fill="#322015"/>
<path d="M140.723 204.45C140.423 204.35 140.223 204.45 139.923 204.45C139.823 204.55 140.223 204.75 140.623 204.75C139.423 204.55 141.523 204.65 140.723 204.45Z" fill="#322015"/>
<path d="M140.723 206.35C140.723 206.25 140.623 206.05 140.323 206.25C140.323 206.65 141.523 206.55 142.223 206.75C142.823 206.45 141.223 206.15 140.723 206.35Z" fill="#322015"/>
<path d="M133.323 209.45C134.223 209.35 134.023 209.05 133.723 208.95C133.923 209.05 133.723 209.25 133.323 209.45Z" fill="#322015"/>
<path d="M140.523 209.25L140.723 209.15L139.323 209.05L140.523 209.25Z" fill="#322015"/>
<path d="M141.323 211.35L142.223 211.55L142.023 211.15L141.323 211.35Z" fill="#322015"/>
<path d="M141.123 211.75L141.223 212.15L141.523 211.95C141.823 211.75 141.123 211.95 141.123 211.75Z" fill="#322015"/>
<path d="M141.423 212.85C141.323 212.85 141.423 212.75 141.623 212.75L141.023 212.45L141.423 212.85Z" fill="#322015"/>
<path d="M136.923 219.55C136.023 219.65 136.623 219.85 136.523 220.05C136.723 220.05 137.823 219.65 136.923 219.55Z" fill="#322015"/>
</g>
</g>
<path d="M197.323 180.751C197.323 180.751 214.123 198.551 253.823 221.451L277.523 263.551C277.523 263.551 270.723 267.351 269.623 275.751H285.223C285.223 275.751 285.523 251.551 283.123 246.851C280.823 242.151 260.623 210.051 260.623 210.051C260.623 210.051 220.323 178.451 218.623 176.551C216.923 174.651 191.523 172.251 197.323 180.751Z" fill="#FFF0DD"/>
<mask id="mask1_110_1265" style="mask-type:luminance" maskUnits="userSpaceOnUse" x="196" y="174" width="90" height="102">
<path d="M197.323 180.751C197.323 180.751 214.123 198.551 253.823 221.451L277.523 263.551C277.523 263.551 270.723 267.351 269.623 275.751H285.223C285.223 275.751 285.523 251.551 283.123 246.851C280.823 242.151 260.623 210.051 260.623 210.051C260.623 210.051 220.323 178.451 218.623 176.551C216.923 174.651 191.523 172.251 197.323 180.751Z" fill="white"/>
</mask>
<g mask="url(#mask1_110_1265)">
<g opacity="0.88">
<path d="M217.223 181.95C217.223 182.05 217.223 182.15 217.223 182.25C217.123 182.25 217.123 182.15 217.223 181.95Z" fill="#322015"/>
<path d="M206.323 179.451L206.223 179.051C206.423 179.251 206.423 179.351 206.323 179.451Z" fill="#322015"/>
<path d="M215.123 185.551C215.123 185.651 215.023 185.651 215.023 185.651C215.123 185.551 215.123 185.551 215.123 185.551Z" fill="#322015"/>
<path d="M225.823 187.451C225.823 187.451 225.823 187.351 225.923 187.351L225.823 187.451Z" fill="#322015"/>
<path d="M225.923 188.45C226.023 188.45 226.023 188.55 226.023 188.55L225.923 188.65C225.823 188.75 225.923 188.55 225.923 188.45Z" fill="#322015"/>
<path d="M225.323 188.551L225.423 188.651C225.323 188.651 225.323 188.651 225.323 188.551Z" fill="#322015"/>
<path d="M225.223 195.15L224.923 195.45C225.023 195.25 225.123 195.15 225.223 195.15Z" fill="#322015"/>
<path d="M226.023 187.051C226.023 187.151 225.923 187.251 225.923 187.351C225.923 187.251 225.823 187.151 226.023 187.051Z" fill="#322015"/>
<path d="M217.223 181.851C217.223 181.951 217.223 181.951 217.123 182.051C217.223 181.951 217.223 181.851 217.223 181.851Z" fill="#322015"/>
<path d="M217.423 184.95C217.323 184.85 217.423 184.85 217.423 184.95V184.95Z" fill="#322015"/>
<path d="M202.223 179.251C202.123 179.251 202.023 179.151 201.923 179.151C202.123 179.051 202.223 179.151 202.223 179.251Z" fill="#322015"/>
<path d="M223.223 186.15C222.423 186.95 223.523 186.45 222.723 187.25C222.723 186.95 222.723 186.65 222.323 187.05C222.023 187.65 222.623 187.25 222.123 188.05V187.55C221.623 187.75 221.323 188.45 221.323 188.35C222.023 187.25 220.323 188.15 220.323 187.85V188.05L219.623 188.25C219.623 188.25 219.623 188.25 219.623 188.35C219.623 188.25 219.723 188.25 219.723 188.15C219.223 188.55 218.723 188.75 218.523 188.35C218.923 187.65 217.823 187.55 218.123 186.95C218.123 187.15 218.223 187.25 218.423 187.25L218.923 186.55C218.623 186.35 218.423 187.15 218.523 186.55C219.323 185.65 218.923 186.85 219.123 186.85C219.223 186.55 219.323 186.35 219.223 186.15C219.623 186.35 220.223 186.35 219.723 187.45C220.023 187.35 220.223 186.95 220.223 186.75C220.023 187.55 220.823 186.35 220.623 187.05C221.223 186.15 220.423 186.15 220.623 185.45C219.723 185.85 219.823 184.85 219.423 184.45C218.923 185.15 218.823 185.85 218.323 186.15C217.623 186.35 218.223 185.55 218.223 184.95C217.823 185.05 217.423 186.05 217.023 185.85V186.45C216.123 187.25 217.023 185.95 216.723 185.95C216.923 185.75 217.123 185.45 217.323 185.65C217.623 185.35 217.523 185.05 217.423 184.95H217.523C217.723 184.45 218.023 183.85 217.623 183.95C217.423 184.65 217.123 184.25 216.923 184.45V184.65C216.823 184.35 216.523 184.25 216.523 184.15L216.423 184.35C216.423 184.05 216.723 183.25 216.423 183.25C216.323 183.55 216.123 184.55 215.923 184.25C215.723 184.75 215.923 184.95 216.323 184.85C216.023 184.85 215.523 185.55 215.723 185.75C215.323 186.25 215.623 185.35 215.323 185.55C215.423 185.35 215.523 185.15 215.623 184.95C215.223 185.75 215.023 184.75 215.323 184.15V184.75C215.723 184.15 215.523 183.55 215.823 183.25C215.223 184.15 215.323 182.35 214.723 183.15L215.023 182.65C214.323 182.65 214.223 181.25 213.723 180.75C213.823 181.15 213.423 182.35 213.923 182.05C213.223 182.05 213.323 183.15 212.923 183.55C212.323 183.75 213.123 182.35 213.123 181.95L213.323 182.25C213.423 180.75 212.023 182.15 211.623 181.05C211.423 181.35 211.723 181.25 211.723 181.45C211.223 182.05 211.523 181.25 211.423 180.85C211.023 180.85 210.623 181.15 210.623 182.05C210.223 182.15 210.823 181.55 210.723 181.25L210.623 181.45L210.523 180.35C210.123 180.55 209.723 180.95 209.423 181.75C208.823 181.45 209.623 179.75 209.123 179.35C208.723 179.75 209.023 180.05 209.023 180.35L208.623 180.15C208.623 181.15 209.023 180.75 208.823 181.85C208.623 180.65 208.423 181.45 208.023 180.55V180.45C207.923 179.65 207.323 180.15 207.023 179.95C207.123 180.45 207.423 180.55 207.623 180.75C207.223 181.15 206.423 180.65 206.223 179.55C206.023 179.75 205.523 180.15 205.823 180.55C205.123 180.65 205.623 179.05 205.023 179.35V180.15C204.323 181.25 203.723 179.15 203.123 180.15L203.023 179.15C202.923 179.55 202.623 179.75 202.623 180.15L202.923 180.45C202.723 181.25 202.623 179.65 202.323 180.25C202.323 179.95 202.523 179.35 202.523 178.95C203.223 179.25 203.823 178.95 204.523 178.85C205.223 178.75 205.923 178.65 206.523 179.15C206.423 179.25 206.423 179.35 206.423 179.55C206.623 179.35 206.823 179.65 206.823 179.05V178.95C207.123 179.25 207.623 178.05 207.823 178.15C207.923 178.85 208.623 177.95 208.323 179.05L208.623 178.35C208.623 178.75 208.523 179.35 208.623 179.55C208.923 179.55 208.923 179.05 208.823 178.75C209.323 178.65 209.923 178.65 210.423 178.75C210.923 178.95 211.423 179.15 211.823 179.45L211.723 178.85C212.023 178.65 212.323 179.95 212.523 178.65C212.823 179.35 213.923 178.75 213.523 180.05C214.323 178.85 214.823 179.95 215.423 180.35C214.823 181.35 215.823 180.85 215.723 181.45C216.223 180.65 215.623 180.35 215.823 179.75C215.823 180.55 216.423 180.55 216.823 180.55C217.323 180.65 217.623 180.85 217.223 181.95C217.323 181.95 217.423 181.85 217.423 181.75C217.523 181.85 217.923 181.55 218.023 181.55C217.923 181.95 217.523 181.95 217.723 182.25C218.023 182.25 218.223 181.65 218.423 181.45C218.623 182.15 219.123 182.75 218.623 183.65C218.923 183.55 219.323 183.15 219.323 182.95C219.523 183.95 220.023 183.25 220.323 184.05C220.123 183.85 220.823 183.15 220.223 183.25C221.223 182.35 221.023 184.15 221.923 183.95L221.623 184.75C221.823 185.05 222.323 184.45 222.323 184.05C223.123 184.05 223.123 184.65 223.423 185.05C223.523 184.95 223.623 184.85 223.523 184.85C223.723 184.95 223.923 185.15 224.023 185.35C223.923 185.55 223.823 186.05 223.423 186.45C223.623 186.45 223.723 186.15 223.223 186.15Z" fill="#322015"/>
<path d="M216.423 186.15C216.623 186.05 216.723 185.95 216.723 185.95C216.623 186.05 216.523 186.15 216.423 186.15Z" fill="#322015"/>
<path d="M226.523 192.55C225.523 193.35 226.423 192.15 225.923 192.15C225.923 192.45 225.323 192.95 225.023 193.15C226.123 191.75 224.523 193.05 224.323 192.35C223.923 192.75 224.023 192.95 223.623 193.45C223.723 192.95 223.523 192.35 224.223 191.75C223.823 191.35 223.323 191.25 223.223 190.85C223.223 191.45 222.623 191.55 222.223 192.35C222.723 191.35 223.023 189.75 223.523 188.35C222.723 189.05 222.623 189.05 222.023 189.85C221.023 189.85 222.523 189.05 221.823 188.75L222.123 188.85C222.123 188.45 222.723 187.65 223.123 187.15L223.623 187.85C224.123 187.35 223.623 187.05 223.723 186.85C224.123 186.05 224.423 186.75 224.823 186.15C224.523 186.65 224.923 186.75 224.823 187.05L225.123 186.85C225.723 186.85 225.123 187.65 225.423 187.95C225.523 187.85 225.623 187.85 225.623 187.75C225.423 188.15 225.123 188.55 225.123 188.85L225.023 188.75C224.523 189.55 224.623 190.45 223.623 190.85L224.323 191.25C225.023 190.55 226.023 189.35 225.723 188.95L226.023 188.65C226.723 188.55 226.123 189.95 225.323 190.35C223.723 192.25 226.123 191.35 225.723 192.45C226.223 192.05 226.223 191.65 226.523 191.25C226.423 191.05 226.423 190.95 225.923 191.35C225.723 190.55 227.623 190.05 226.823 189.55C226.323 189.45 226.423 190.65 225.923 190.25L226.923 188.65C227.123 188.95 227.223 189.45 227.223 189.85C227.523 191.95 229.023 192.25 229.023 192.25C230.523 194.25 231.823 196.25 233.323 197.85C233.623 198.45 233.823 198.55 233.023 200.15C232.723 200.35 232.423 199.95 232.123 200.55C232.423 199.95 232.523 199.55 232.123 199.35C231.623 199.85 232.223 199.85 232.023 199.85H231.923C231.723 200.15 231.623 200.35 231.723 200.45C230.723 200.95 230.123 200.15 230.823 198.95C230.123 199.15 230.323 199.85 230.123 200.35C228.723 199.75 228.223 198.95 227.323 198.05C228.223 197.25 227.823 197.45 228.223 196.85L227.823 197.05C228.023 196.95 228.523 196.35 228.823 196.35C227.623 196.35 229.423 194.65 229.423 193.95L229.023 194.35C228.823 193.95 228.723 193.85 228.723 193.35C227.423 193.55 228.923 193.95 227.723 194.75L227.823 194.45C227.423 194.85 226.823 195.65 226.623 196.05C226.923 194.95 225.723 195.55 225.823 194.55C225.323 195.05 225.423 195.85 225.423 196.05C225.223 195.95 225.323 195.25 224.823 195.65L225.423 195.05C225.223 194.65 224.823 195.55 224.323 195.85C224.223 194.45 226.723 193.45 226.523 192.55Z" fill="#322015"/>
<path d="M218.923 185.851C219.023 185.851 219.123 185.951 219.123 186.051C219.023 185.951 218.923 185.951 218.923 185.851Z" fill="#322015"/>
<path d="M218.823 189.25C219.123 188.95 219.023 188.95 219.223 188.45C219.223 188.75 219.423 188.95 218.823 189.25Z" fill="#322015"/>
<path d="M196.323 182.351C196.323 181.951 196.423 181.051 196.823 181.751C196.423 181.751 196.823 182.851 196.323 182.351Z" fill="#322015"/>
<path d="M198.523 181.25L197.923 181.85C197.923 182.85 198.323 182.15 198.523 182.55C198.023 182.85 198.123 182.45 197.623 181.95C197.523 182.05 197.123 181.55 196.923 181.35C197.923 181.85 197.623 179.45 198.523 181.25Z" fill="#322015"/>
<path d="M197.423 182.451L197.323 182.051L197.623 182.251L197.423 182.451Z" fill="#322015"/>
<path d="M199.923 179.85C200.223 178.65 200.723 180.45 201.123 179.95C201.023 179.85 201.123 179.75 201.023 179.65L201.423 179.75V179.45C201.423 180.15 201.823 180.45 202.023 180.95C201.723 181.75 201.823 180.05 201.523 180.95C201.623 181.25 201.723 181.75 201.823 182.05C201.623 181.75 201.523 181.25 201.323 180.85C201.023 180.75 201.223 181.15 201.223 181.45C200.923 181.05 200.823 180.05 200.423 180.25C200.223 180.95 200.723 181.25 200.223 181.05C200.323 179.85 199.723 181.25 199.523 180.55C199.223 180.85 199.023 181.55 199.223 181.95C199.123 181.05 198.723 180.35 198.423 180.15L199.123 180.85L199.223 179.75C199.423 180.25 199.623 180.15 199.923 179.85Z" fill="#322015"/>
<path d="M201.823 182.051C201.823 182.151 201.923 182.151 201.923 182.251C201.923 182.251 201.823 182.151 201.823 182.051Z" fill="#322015"/>
<path d="M199.023 182.351L199.223 182.551L199.123 182.851L199.023 182.351Z" fill="#322015"/>
<path d="M202.123 182.75C202.023 182.75 202.023 182.45 202.123 182.45L202.223 182.95L202.123 182.75Z" fill="#322015"/>
<path d="M202.423 182.05L202.623 181.45L202.723 181.95L202.423 182.05Z" fill="#322015"/>
<path d="M210.123 182.251C209.823 182.551 210.023 181.851 210.023 181.351C210.523 181.251 209.923 181.951 210.123 182.251Z" fill="#322015"/>
<path d="M214.323 184.751C213.923 185.051 213.923 184.351 213.723 184.251C214.023 183.951 214.323 184.251 214.323 184.751Z" fill="#322015"/>
<path d="M214.823 187.751C214.923 187.551 214.923 187.351 215.023 187.351L215.423 186.151C216.023 185.951 215.123 187.251 214.823 187.751Z" fill="#322015"/>
<path d="M216.423 189.05V188.45L216.623 188.55C216.823 188.05 216.923 187.85 217.023 187.45C217.123 187.75 217.023 188.25 216.423 189.05Z" fill="#322015"/>
<path d="M216.923 186.95C216.923 186.95 216.923 187.05 217.023 187.05C216.923 187.25 216.723 187.35 216.923 186.95Z" fill="#322015"/>
<path d="M217.123 187.251C217.123 187.351 217.123 187.351 217.123 187.351C217.123 187.251 217.123 187.151 217.023 187.151C217.123 187.051 217.223 186.951 217.123 187.251Z" fill="#322015"/>
<path d="M217.023 188.65C217.123 188.85 217.323 188.95 217.423 189.15L217.123 189.25C217.523 188.55 216.623 189.35 217.023 188.65Z" fill="#322015"/>
<path d="M219.923 190.15L220.523 189.65C220.923 189.85 220.123 191.35 221.223 190.65C220.723 190.85 220.823 191.55 220.323 191.35C220.623 190.65 220.223 190.25 219.923 190.15Z" fill="#322015"/>
<path d="M221.823 190.451C221.923 190.251 222.123 190.251 222.323 190.051C222.523 190.051 222.323 190.451 222.023 190.651C222.623 189.851 221.423 190.951 221.823 190.451Z" fill="#322015"/>
<path d="M223.123 191.851C223.023 191.751 223.023 191.551 223.223 191.551C223.423 191.851 222.723 192.351 222.523 192.851C221.923 192.951 222.623 191.951 223.123 191.851Z" fill="#322015"/>
<path d="M229.323 190.35C228.823 190.75 228.623 190.45 228.823 190.25C228.723 190.35 229.023 190.35 229.323 190.35Z" fill="#322015"/>
<path d="M225.223 193.95H225.023L225.723 193.25L225.223 193.95Z" fill="#322015"/>
<path d="M226.223 195.95L225.923 196.65L225.723 196.25L226.223 195.95Z" fill="#322015"/>
<path d="M226.623 196.25L226.823 196.55L226.523 196.65C226.323 196.55 226.723 196.35 226.623 196.25Z" fill="#322015"/>
<path d="M227.223 197.15C227.223 197.05 227.123 197.15 227.023 197.15L227.123 196.65L227.223 197.15Z" fill="#322015"/>
<path d="M234.323 198.35C234.623 197.75 234.623 198.25 234.823 198.25C234.623 198.35 234.023 198.95 234.323 198.35Z" fill="#322015"/>
</g>
</g>
<path d="M89.4233 70.6506C89.4233 70.6506 88.7233 52.8506 91.0233 52.8506C93.3233 52.8506 102.123 71.0506 105.523 76.0506C108.923 81.0506 117.723 92.3506 124.823 101.051C131.823 109.751 145.523 125.751 165.323 129.051C185.123 132.351 227.123 133.551 243.323 139.251C259.523 144.951 274.823 159.551 280.423 174.451C286.123 189.351 293.523 209.251 308.423 218.851C308.423 218.851 287.123 223.751 270.923 206.451C270.923 206.451 272.123 213.351 272.323 214.951C272.623 216.551 281.623 229.151 282.223 230.351C282.923 231.551 289.923 260.451 290.123 261.851C290.423 263.251 288.023 275.951 288.023 275.951C288.023 275.951 275.523 275.951 274.823 275.951C274.123 275.951 276.623 266.651 281.823 263.851C281.823 263.851 272.423 239.851 271.423 238.451C270.423 237.051 254.923 222.451 253.823 221.651C252.823 220.851 226.323 207.651 214.423 180.851C214.423 180.851 206.823 178.651 188.623 182.451C170.423 186.151 145.023 190.651 139.723 190.651C139.723 190.651 141.923 255.351 141.523 257.351C141.123 259.351 133.723 276.051 133.723 276.051C133.723 276.051 120.423 276.051 119.123 276.051C117.823 276.051 120.623 267.551 129.723 260.251C129.723 260.251 121.523 220.551 120.323 215.651C119.123 210.751 110.323 188.051 110.323 188.051C110.323 188.051 88.4233 182.951 78.2233 161.851C68.0233 140.751 76.6233 124.951 73.5233 110.451C73.5233 110.451 50.9233 101.751 46.2233 99.3506C41.5233 97.0506 31.1233 90.8506 36.7233 80.3506C36.7233 80.3506 59.5233 82.8506 61.2233 82.5506C62.9233 82.2506 67.1233 76.2506 72.3233 74.2506C77.7233 71.9506 89.4233 70.6506 89.4233 70.6506Z" fill="#FFF0DD"/>
<path d="M274.823 275.75C274.123 275.75 276.623 266.45 281.823 263.65C281.823 263.65 272.423 239.65 271.423 238.25C270.423 236.85 254.923 222.25 253.823 221.45C252.823 220.65 226.323 207.45 214.423 180.65" stroke="#1B1C1E" stroke-width="1.2604" stroke-miterlimit="10" stroke-linecap="round" stroke-linejoin="round"/>
<path d="M139.823 190.45C139.823 190.45 142.023 255.15 141.623 257.15C141.223 259.15 133.823 275.85 133.823 275.85" stroke="#1B1C1E" stroke-width="1.2604" stroke-miterlimit="10" stroke-linecap="round" stroke-linejoin="round"/>
<path d="M269.023 187.65C269.723 195.35 270.823 206.35 270.823 206.35C270.823 206.35 271.123 207.95 271.423 209.75C251.923 213.25 241.123 193.25 235.823 185.05C230.523 176.85 221.723 159.85 201.423 161.95C181.123 164.15 165.623 181.85 139.823 176.45C114.023 170.95 104.723 151.15 104.723 151.15C104.223 154.25 105.223 159.65 105.223 159.65C78.2233 138.95 85.0233 111.95 86.3233 105.85C87.6233 99.7502 88.3233 92.0502 85.6233 90.8502C82.9233 89.5502 80.5233 89.3502 79.2233 86.9502C78.0233 84.6502 80.2233 77.9502 76.9233 76.1502C73.6233 74.3502 70.1233 75.4502 70.1233 75.4502C70.9233 74.9502 71.7233 74.4502 72.6233 74.1502C77.8233 72.0502 89.5233 70.7502 89.5233 70.7502C89.5233 70.7502 88.8233 52.9502 91.1233 52.9502C93.5233 52.9502 102.223 71.1502 105.623 76.1502C109.023 81.1502 117.823 92.4502 124.923 101.15C131.923 109.85 145.623 125.85 165.423 129.15C185.123 132.45 227.223 133.65 243.423 139.35C259.623 145.05 274.923 159.65 280.523 174.55C285.323 187.05 291.323 203.15 302.023 213.65C281.023 210.85 272.023 194.55 269.023 187.65Z" fill="#5F6C72"/>
<path d="M123.423 275.751C123.423 275.751 124.023 273.151 125.223 271.551" stroke="#1B1C1E" stroke-width="1.2604" stroke-miterlimit="10" stroke-linecap="round" stroke-linejoin="round"/>
<path d="M278.423 275.751C278.423 275.751 279.023 273.151 280.223 271.551" stroke="#1B1C1E" stroke-width="1.2604" stroke-miterlimit="10" stroke-linecap="round" stroke-linejoin="round"/>
<path d="M139.823 190.451L139.423 180.051" stroke="#1B1C1E" stroke-width="1.2604" stroke-miterlimit="10" stroke-linecap="round" stroke-linejoin="round"/>
<path d="M35.0234 83.0508C34.8234 84.8508 35.9234 86.5508 37.7234 86.9508C38.1234 87.0508 38.5234 87.1508 38.9234 87.0508C42.1234 86.8508 43.2234 82.2508 42.8234 80.5508C42.7234 79.9508 36.9234 79.5508 36.5234 79.5508C36.2234 79.5508 35.3234 80.9508 35.0234 83.0508Z" fill="#1B1C1E" stroke="#1B1C1E" stroke-width="1.5329" stroke-miterlimit="10" stroke-linecap="round" stroke-linejoin="round"/>
<path d="M38.3232 93.3506C38.3232 93.3506 40.6232 95.3506 46.8232 97.1506C53.0232 98.9506 56.1232 99.3506 57.2232 99.8506C58.3232 100.351 59.7232 101.951 59.7232 101.951" stroke="#1B1C1E" stroke-width="1.2604" stroke-miterlimit="10" stroke-linecap="round" stroke-linejoin="round"/>
<path d="M270.823 206.35C270.823 206.35 269.023 188.45 268.623 182.45" stroke="#1B1C1E" stroke-width="1.2604" stroke-miterlimit="10" stroke-linecap="round" stroke-linejoin="round"/>
<path d="M214.523 180.651C214.523 180.651 212.323 175.451 211.723 169.851" stroke="#1B1C1E" stroke-width="1.2604" stroke-miterlimit="10" stroke-linecap="round" stroke-linejoin="round"/>
<path d="M71.738 84.8699C72.2163 83.8743 71.9583 82.7569 71.1618 82.3743C70.3653 81.9917 69.3318 82.4887 68.8535 83.4843C68.3753 84.48 68.6333 85.5973 69.4298 85.9799C70.2263 86.3625 71.2598 85.8656 71.738 84.8699Z" fill="#1B1C1E"/>
<mask id="mask2_110_1265" style="mask-type:luminance" maskUnits="userSpaceOnUse" x="73" y="110" width="12" height="11">
<path d="M74.4234 120.451C74.6234 116.951 74.4234 113.651 73.7234 110.351C73.7234 110.351 79.8234 112.651 84.1234 113.251C87.7234 113.751 79.1234 119.951 74.4234 120.451Z" fill="white"/>
</mask>
<g mask="url(#mask2_110_1265)">
<g opacity="0.88">
<path d="M80.2233 111.75L80.1233 111.85C80.1233 111.85 80.1233 111.85 80.2233 111.75Z" fill="#322015"/>
<path d="M84.7234 112.95L84.8234 112.75C84.7234 112.85 84.7234 112.85 84.7234 112.95Z" fill="#322015"/>
<path d="M79.5232 112.75C79.4232 112.75 79.4232 112.85 79.3232 112.95L79.5232 112.75Z" fill="#322015"/>
<path d="M79.9234 113.45C79.8234 113.55 79.9234 113.55 79.9234 113.45V113.45Z" fill="#322015"/>
<path d="M75.7234 110.65C75.6234 110.65 75.6234 110.65 75.7234 110.65C75.6234 110.65 75.6234 110.75 75.7234 110.65Z" fill="#322015"/>
<path d="M75.8233 110.851C75.7233 110.951 75.7233 110.951 75.8233 110.851V110.851Z" fill="#322015"/>
<path d="M77.1234 111.051C77.0234 111.551 76.9234 111.051 76.8234 111.451C76.9234 111.351 77.0234 111.351 77.0234 111.551C76.9234 111.751 76.8234 111.451 76.7234 111.851L76.9234 111.751C76.9234 111.951 76.8234 112.251 76.8234 112.251C77.0234 111.751 77.1234 112.551 77.3234 112.451H77.2234L77.3234 112.751V112.651C77.3234 112.951 77.4234 113.151 77.6234 113.151C77.7234 112.851 78.1234 113.151 78.2234 112.951C78.1234 113.051 78.1234 113.051 78.0234 112.951L78.1234 112.551C78.2234 112.551 78.0234 112.851 78.2234 112.751C78.3234 112.251 78.0234 112.751 77.9234 112.651C78.0234 112.551 78.0234 112.451 78.1234 112.451C77.9234 112.351 77.7234 112.151 77.5234 112.651C77.5234 112.551 77.5234 112.351 77.6234 112.251C77.4234 112.551 77.6234 111.951 77.4234 112.151C77.5234 111.651 77.8234 111.951 77.9234 111.751C78.0234 112.151 78.3234 111.851 78.6234 111.851C78.5234 112.151 78.3234 112.451 78.4234 112.651C78.6234 112.951 78.6234 112.551 78.8234 112.351C78.9234 112.551 78.7234 112.951 78.9234 112.951L78.7234 113.151C78.7234 113.651 78.9234 112.951 79.0234 113.151C79.0234 113.051 79.0234 112.851 78.9234 112.851C78.9234 112.651 79.0234 112.651 79.1234 112.651C79.2234 112.451 79.3234 112.151 79.4234 112.351C79.2234 112.651 79.5234 112.551 79.5234 112.751L79.4234 112.851C79.5234 112.751 79.6234 112.851 79.7234 112.851V112.951C79.8234 112.851 79.9234 112.551 80.0234 112.651C80.0234 112.751 79.7234 113.151 79.9234 113.151C79.8234 113.351 79.7234 113.351 79.6234 113.251C79.7234 113.351 79.7234 113.751 79.5234 113.751C79.5234 114.051 79.7234 113.651 79.7234 113.851C79.7234 113.751 79.7234 113.651 79.8234 113.551C79.7234 113.951 80.1234 113.651 80.1234 113.351L79.9234 113.551C79.9234 113.251 80.2234 113.051 80.1234 112.951C80.1234 113.451 80.5234 112.751 80.5234 113.251V112.951C80.8234 113.151 81.1234 112.651 81.4234 112.651C81.3234 112.751 81.2234 113.251 81.0234 113.051C81.3234 113.251 81.0234 113.551 81.0234 113.851C81.2234 114.051 81.2234 113.351 81.3234 113.251L81.1234 113.351C81.4234 112.751 81.6234 113.551 82.0234 113.251C82.0234 113.451 81.9234 113.351 81.9234 113.351C82.0234 113.651 82.0234 113.351 82.1234 113.251C82.2234 113.351 82.4234 113.451 82.2234 113.851C82.3234 113.951 82.2234 113.651 82.3234 113.551V113.651L82.5234 113.251C82.6234 113.351 82.7234 113.651 82.7234 113.951C83.0234 113.951 83.0234 113.151 83.2234 113.051C83.3234 113.251 83.1234 113.351 83.1234 113.451H83.3234C83.2234 113.851 83.0234 113.651 83.0234 114.151C83.3234 113.651 83.3234 114.051 83.5234 113.751C83.7234 113.451 83.9234 113.751 84.0234 113.651C83.9234 113.851 83.8234 113.851 83.7234 113.851C83.8234 114.051 84.2234 113.951 84.4234 113.551C84.5234 113.651 84.6234 113.851 84.5234 113.951C84.8234 114.051 84.7234 113.351 85.0234 113.551L84.9234 113.851C85.1234 114.351 85.5234 113.551 85.7234 113.951L85.8234 113.551C85.8234 113.751 85.9234 113.851 85.9234 113.951L85.7234 114.051C85.8234 114.451 85.9234 113.751 86.0234 114.051C86.0234 113.951 85.9234 113.651 86.0234 113.551C85.4234 113.751 84.9234 113.051 84.3234 113.351C84.3234 113.451 84.3234 113.451 84.3234 113.551C84.3234 113.451 84.1234 113.551 84.2234 113.351C84.0234 113.451 84.0234 112.951 83.9234 112.851C83.8234 113.151 83.6234 112.651 83.6234 113.151V112.851C83.5234 113.051 83.5234 113.251 83.4234 113.351C83.3234 113.251 83.3234 113.151 83.4234 113.051C83.0234 112.751 82.6234 112.751 82.1234 112.851L82.2234 112.651C82.1234 112.551 81.8234 112.951 82.0234 112.451C81.8234 112.651 81.5234 112.151 81.4234 112.751C81.4234 112.151 81.0234 112.451 80.7234 112.451C80.7234 112.951 80.4234 112.551 80.3234 112.751C80.3234 112.351 80.6234 112.451 80.7234 112.151C80.3234 112.651 80.0234 111.551 79.7234 112.551V112.451C79.6234 112.451 79.6234 112.251 79.6234 112.251C79.5234 112.451 79.6234 112.551 79.5234 112.551C79.4234 112.451 79.5234 112.251 79.5234 112.051C79.3234 112.251 78.9234 112.251 78.8234 112.651C78.8234 112.551 78.7234 112.251 78.8234 112.251C78.4234 112.451 78.5234 112.151 78.1234 112.251C78.2234 112.251 78.2234 111.851 78.4234 112.051C78.4234 111.451 77.9234 112.051 77.7234 111.751L77.5234 112.051C77.3234 112.051 77.4234 111.751 77.5234 111.651C77.3234 111.351 77.1234 111.551 76.9234 111.551C76.9234 111.551 76.9234 111.451 77.0234 111.451L76.7234 111.351C76.7234 111.451 76.5234 111.551 76.5234 111.851C76.9234 111.051 77.0234 110.951 77.1234 111.051Z" fill="#322015"/>
<path d="M74.0234 111.25C73.9234 111.85 74.2234 111.15 74.3234 111.35C74.2234 111.45 74.1234 111.75 74.1234 111.85C74.4234 111.15 74.3234 112.05 74.6234 111.95C74.6234 112.15 74.4234 112.15 74.3234 112.45C74.5234 112.35 74.7234 112.25 74.9234 111.85C75.2234 111.85 75.3234 112.05 75.5234 112.05C75.3234 112.15 75.4234 112.45 75.2234 112.75C75.5234 112.35 76.0234 111.85 76.4234 111.35C76.3234 111.75 76.3234 111.85 76.2234 112.25C76.5234 112.65 76.4234 111.85 76.6234 112.05L76.5234 111.95C76.7234 111.85 76.8234 111.45 76.9234 111.15H76.5234C76.6234 110.85 76.8234 110.95 76.9234 110.85C77.1234 110.55 76.8234 110.55 76.9234 110.25C76.8234 110.45 76.7234 110.35 76.6234 110.45V110.25C76.5234 110.05 76.3234 110.45 76.2234 110.35V110.25C76.1234 110.45 76.0234 110.65 75.9234 110.65H76.0234C75.8234 111.05 75.4234 111.15 75.6234 111.65L75.3234 111.45C75.4234 111.05 75.6234 110.45 75.8234 110.45L75.9234 110.25C75.8234 109.95 75.4234 110.45 75.4234 110.85C75.0234 111.85 74.9234 110.75 74.5234 111.15C74.5234 110.85 74.7234 110.75 74.8234 110.65C74.9234 110.65 74.9234 110.65 74.9234 110.85C75.3234 110.75 75.0234 109.95 75.4234 110.15C75.6234 110.35 75.1234 110.55 75.3234 110.65L75.7234 109.95C75.5234 109.95 75.3234 110.05 75.2234 110.05C74.3234 110.35 73.9234 109.85 73.9234 109.85C72.8234 109.75 71.6234 109.55 70.5234 109.45C70.1234 109.45 70.0234 109.45 69.7234 110.15C69.7234 110.35 70.0234 110.25 69.9234 110.55C70.0234 110.25 70.1234 110.15 70.3234 110.25C70.3234 110.55 70.1234 110.35 70.1234 110.45C70.1234 110.55 70.0234 110.65 69.9234 110.65C70.0234 111.15 70.4234 111.05 70.7234 110.55C70.8234 110.85 70.5234 110.95 70.4234 111.15C70.9234 111.45 71.3234 111.55 71.9234 111.65C72.0234 111.15 72.0234 111.35 72.2234 111.05V111.25C72.2234 111.15 72.3234 110.85 72.2234 110.75C72.5234 111.15 72.7234 110.15 73.0234 110.05L72.8234 110.45C73.0234 110.45 73.1234 110.45 73.3234 110.35C73.5234 110.85 73.0234 110.35 73.0234 110.95L73.1234 110.85C73.0234 111.05 72.9234 111.45 72.7234 111.65C73.1234 111.35 73.1234 111.85 73.5234 111.65C73.4234 111.95 73.1234 112.05 73.0234 112.05C73.1234 112.05 73.3234 111.95 73.3234 112.15L73.4234 111.85C73.6234 111.85 73.3234 112.15 73.3234 112.45C73.7234 112.55 73.5234 111.35 74.0234 111.25Z" fill="#322015"/>
<path d="M77.2234 113.35C77.2234 113.15 77.3234 113.15 77.3234 113.05C77.3234 113.15 77.2234 113.05 77.2234 113.35Z" fill="#322015"/>
<path d="M82.7234 113.45C82.8234 113.65 82.8234 113.35 82.9234 113.15C82.8234 113.05 82.9234 113.45 82.7234 113.45Z" fill="#322015"/>
<path d="M80.4233 113.45C80.5233 113.65 80.7233 113.45 80.8233 113.45C80.7233 113.25 80.6233 113.35 80.4233 113.45Z" fill="#322015"/>
<path d="M79.3232 114.25C79.4232 114.15 79.4232 114.15 79.3232 114.05L79.5232 113.55C79.4232 113.35 79.3232 114.05 79.3232 114.25Z" fill="#322015"/>
<path d="M78.2234 114.15L78.4234 113.95H78.3234C78.4234 113.75 78.4234 113.65 78.5234 113.45C78.4234 113.55 78.2234 113.75 78.2234 114.15Z" fill="#322015"/>
<path d="M78.7234 113.351C78.6234 113.451 78.6234 113.551 78.7234 113.351V113.351Z" fill="#322015"/>
<path d="M78.6233 113.351C78.5233 113.451 78.6233 113.451 78.6233 113.351C78.6233 113.451 78.6233 113.451 78.6233 113.351Z" fill="#322015"/>
<path d="M78.1232 113.851H77.8232L77.9232 113.951C78.0232 113.651 78.0232 114.151 78.1232 113.851Z" fill="#322015"/>
<path d="M76.5234 113.25V112.95C76.3234 112.85 75.9234 113.45 75.9234 112.95C75.9234 113.15 75.7234 113.25 75.9234 113.45C76.1234 113.05 76.4234 113.05 76.5234 113.25Z" fill="#322015"/>
<path d="M75.9234 112.55C76.0234 112.45 75.9234 112.35 75.9234 112.25C75.8234 112.15 75.7234 112.35 75.7234 112.45C75.9234 112.15 75.8234 112.85 75.9234 112.55Z" fill="#322015"/>
<path d="M75.0232 112.451C75.1232 112.451 75.1232 112.451 75.1232 112.351C74.9232 112.351 74.9232 112.751 74.8232 112.851C74.9232 113.051 75.1232 112.651 75.0232 112.451Z" fill="#322015"/>
<path d="M73.7234 112.05V112.15L73.9234 111.75L73.7234 112.05Z" fill="#322015"/>
</g>
</g>
<path d="M110.523 187.851L108.423 182.851" stroke="#1B1C1E" stroke-width="1.2604" stroke-miterlimit="10" stroke-linecap="round" stroke-linejoin="round"/>
</svg>
