<svg width="366" height="390" viewBox="0 0 366 390" fill="none" xmlns="http://www.w3.org/2000/svg">
<path fill-rule="evenodd" clip-rule="evenodd" d="M195.57 0.647507C238.899 4.03577 253.465 66.5439 283.402 102.326C311.908 136.399 357.091 155.879 364.202 202.208C372.09 253.599 353.385 307.906 320.547 344.332C288.033 380.399 240.956 391.286 195.57 389.269C152.114 387.338 113.263 365.493 79.9925 333.643C42.7565 297.996 -3.14585 257.431 0.169804 202.208C3.43295 147.86 59.2862 124.175 94.7668 87.5753C127.237 54.0816 151.835 -2.77248 195.57 0.647507Z" fill="#FF5C8A" fill-opacity="0.2"/>
<path d="M37.1032 307.16C37.1032 307.16 25.3032 309.76 57.6032 310.56C89.9032 311.36 260.203 311.76 277.703 310.56C295.203 309.36 329.303 310.06 284.003 307.16C238.703 304.26 192.203 305.96 146.603 304.26C100.903 302.56 43.9032 304.16 37.1032 307.16Z" fill="#1B1C1E"/>
<path d="M248.103 220.76C248.103 220.76 247.503 270.96 267.903 297.36C267.903 297.36 282.603 297.16 281.503 307.46C281.503 307.46 263.803 307.46 261.203 307.46C258.603 307.46 245.903 291.86 238.903 281.16C238.903 281.16 236.103 285.26 235.803 278.26C235.803 278.26 234.003 281.26 232.403 279.56C230.803 277.86 232.403 268.46 232.403 268.46C232.403 268.46 230.703 271.76 229.203 270.26C227.703 268.86 228.603 262.06 228.603 262.06C228.603 262.06 224.803 266.36 225.303 260.06C225.803 253.76 237.903 223.26 248.103 220.76Z" fill="#B37D4F"/>
<mask id="mask0_14_761" style="mask-type:luminance" maskUnits="userSpaceOnUse" x="225" y="220" width="57" height="88">
<path d="M248.103 220.76C248.103 220.76 247.503 270.96 267.903 297.36C267.903 297.36 282.603 297.16 281.503 307.46C281.503 307.46 263.803 307.46 261.203 307.46C258.603 307.46 245.903 291.86 238.903 281.16C238.903 281.16 236.103 285.26 235.803 278.26C235.803 278.26 234.003 281.26 232.403 279.56C230.803 277.86 232.403 268.46 232.403 268.46C232.403 268.46 230.703 271.76 229.203 270.26C227.703 268.86 228.603 262.06 228.603 262.06C228.603 262.06 224.803 266.36 225.303 260.06C225.803 253.76 237.903 223.26 248.103 220.76Z" fill="white"/>
</mask>
<g mask="url(#mask0_14_761)">
<g opacity="0.88">
<path d="M245.503 229.26C245.503 229.36 245.603 229.46 245.603 229.46C245.603 229.46 245.603 229.36 245.503 229.26Z" fill="#322015"/>
<path d="M249.703 224.56L249.503 224.36C249.603 224.46 249.603 224.56 249.703 224.56Z" fill="#322015"/>
<path d="M246.603 231.06C246.603 231.16 246.703 231.26 246.803 231.46L246.603 231.06Z" fill="#322015"/>
<path d="M241.203 238.16L241.403 238.46C241.303 238.26 241.203 238.16 241.203 238.16Z" fill="#322015"/>
<path d="M240.703 232.26C240.703 232.36 240.803 232.46 240.803 232.46C240.803 232.36 240.903 232.36 240.703 232.26Z" fill="#322015"/>
<path d="M245.403 229.06L245.503 229.16C245.403 229.16 245.403 229.16 245.403 229.06Z" fill="#322015"/>
<path d="M250.903 222.46C250.903 222.36 250.903 222.36 250.903 222.26C250.803 222.36 250.803 222.46 250.903 222.46Z" fill="#322015"/>
<path d="M242.503 232.06C243.203 232.66 242.403 232.26 243.003 232.86C243.003 232.66 242.903 232.46 243.303 232.76C243.603 233.16 243.103 232.86 243.603 233.46L243.503 233.16C243.803 233.36 244.103 233.96 244.203 233.76C243.603 232.86 244.903 233.66 244.903 233.46V233.56L245.403 233.76L245.303 233.66C245.703 233.96 246.103 234.06 246.203 233.86C245.803 233.36 246.603 233.16 246.303 232.76C246.303 232.96 246.303 232.96 246.103 232.96L245.603 232.46C245.803 232.36 246.103 232.96 245.903 232.46C245.203 231.76 245.703 232.66 245.503 232.66C245.403 232.46 245.303 232.26 245.303 232.16C245.103 232.36 244.603 232.26 245.203 233.16C245.003 233.06 244.703 232.76 244.703 232.66C244.903 233.26 244.203 232.36 244.403 232.86C243.803 232.16 244.403 232.26 244.103 231.76C244.803 232.06 244.603 231.36 244.703 231.06C245.203 231.56 245.403 232.06 245.803 232.26C246.303 232.36 245.803 231.76 245.603 231.46C245.903 231.46 246.403 232.26 246.703 231.96L246.903 232.36C247.703 232.86 246.803 231.96 247.003 231.96C246.803 231.86 246.603 231.66 246.503 231.76C246.203 231.56 246.203 231.36 246.203 231.26C245.903 230.86 245.603 230.56 245.903 230.56C246.203 231.06 246.303 230.76 246.503 230.86L246.603 230.96C246.603 230.76 246.703 230.66 246.703 230.56L246.803 230.66C246.703 230.46 246.203 229.96 246.403 229.86C246.603 230.06 247.003 230.76 247.103 230.46C247.403 230.76 247.303 230.96 247.103 230.96C247.303 230.96 247.903 231.36 247.803 231.56C248.203 231.86 247.803 231.26 248.003 231.36C247.903 231.26 247.803 231.16 247.603 231.06C248.103 231.56 247.903 230.76 247.503 230.46L247.703 230.86C247.303 230.46 247.103 230.06 246.803 229.86C247.503 230.36 246.803 229.16 247.503 229.56L247.103 229.36C247.603 229.26 247.003 228.26 247.103 227.86C247.203 228.16 248.003 228.76 247.603 228.76C248.003 228.56 248.403 229.26 248.903 229.46C249.403 229.46 248.303 228.76 248.103 228.46V228.76C247.403 227.86 248.803 228.26 248.503 227.56C248.803 227.76 248.603 227.76 248.603 227.86C249.203 228.06 248.603 227.66 248.503 227.46C248.703 227.36 249.103 227.36 249.603 227.86C249.903 227.76 249.203 227.66 249.103 227.36L249.303 227.46L248.803 226.76C249.103 226.76 249.503 226.76 250.203 227.16C250.303 226.76 249.003 226.06 248.903 225.66C249.303 225.76 249.303 225.96 249.603 226.16L249.703 225.86C250.303 226.36 249.903 226.36 250.603 226.86C250.003 226.16 250.603 226.46 250.203 225.86H250.103C249.603 225.36 250.203 225.36 250.203 225.16C250.503 225.46 250.403 225.66 250.403 225.86C250.803 225.86 250.803 225.26 250.203 224.66C250.403 224.66 250.803 224.56 251.003 224.96C251.403 224.66 250.103 224.16 250.503 223.96L251.003 224.36C252.003 224.46 250.703 223.26 251.603 223.36L250.903 222.96C251.203 223.06 251.403 222.96 251.703 223.16L251.803 223.46C252.403 223.66 251.403 222.96 251.903 223.06C251.703 222.96 251.203 222.86 250.903 222.66C250.903 223.56 249.603 223.66 249.803 224.76C249.903 224.76 250.003 224.86 250.103 224.96C249.903 224.96 250.003 225.16 249.603 224.96V224.86C249.603 225.16 248.703 224.76 248.703 224.86C249.103 225.26 248.303 225.06 249.103 225.56L248.603 225.36C248.903 225.56 249.203 225.86 249.303 225.96C249.203 226.06 248.903 225.86 248.703 225.56C248.103 225.86 247.803 226.36 247.703 226.96L247.503 226.56C247.303 226.56 247.803 227.36 247.003 226.66C247.203 227.16 246.303 227.06 247.203 227.76C246.203 227.26 246.403 227.96 246.303 228.36C247.103 228.96 246.303 228.76 246.603 229.16C246.003 228.76 246.203 228.46 245.803 228.06C246.403 229.06 244.503 228.26 245.803 229.66C245.703 229.66 245.703 229.56 245.603 229.56C245.503 229.66 245.203 229.46 245.103 229.46C245.303 229.76 245.503 229.66 245.503 229.96C245.403 230.06 245.003 229.56 244.803 229.46C244.903 229.96 244.803 230.36 245.303 230.96C245.103 230.86 244.703 230.66 244.703 230.46C244.803 231.16 244.303 230.66 244.303 231.26C244.403 231.16 243.803 230.66 244.203 230.66C243.303 230.06 243.903 231.26 243.203 231.06L243.603 231.66C243.503 231.86 243.103 231.46 243.003 231.16C242.503 231.06 242.603 231.56 242.403 231.76C242.303 231.66 242.203 231.56 242.303 231.56L242.003 231.76C242.103 231.96 242.203 232.26 242.503 232.56C242.303 232.16 242.203 231.96 242.503 232.06Z" fill="#322015"/>
<path d="M247.303 232.06C247.103 231.96 247.103 231.96 247.003 231.96C247.103 231.96 247.203 232.06 247.303 232.06Z" fill="#322015"/>
<path d="M240.403 235.86C241.103 236.66 240.503 235.56 240.803 235.66C240.803 235.86 241.203 236.36 241.403 236.56C240.703 235.36 241.803 236.66 241.903 236.16C242.203 236.46 242.103 236.66 242.403 237.06C242.403 236.66 242.503 236.26 242.103 235.66C242.403 235.46 242.803 235.46 242.803 235.26C242.803 235.66 243.303 235.86 243.503 236.56C243.103 235.66 242.903 234.46 242.503 233.46C243.103 234.06 243.203 234.16 243.603 234.76C244.303 234.86 243.203 234.06 243.703 233.96H243.503C243.503 233.66 243.003 233.06 242.603 232.56L242.303 232.96C241.903 232.56 242.203 232.36 242.203 232.26C241.803 231.66 241.703 232.06 241.403 231.66C241.703 232.06 241.403 232.06 241.503 232.26L241.303 232.06C240.903 231.96 241.403 232.66 241.203 232.76C241.103 232.66 241.103 232.66 241.103 232.66C241.303 232.96 241.503 233.36 241.503 233.46V233.36C241.903 234.06 241.803 234.66 242.503 235.06L242.003 235.16C241.503 234.46 240.803 233.46 241.003 233.26L240.803 232.96C240.403 232.76 240.803 233.76 241.303 234.26C242.403 235.96 240.803 234.76 241.003 235.66C240.703 235.26 240.703 234.96 240.503 234.66C240.503 234.56 240.603 234.46 240.903 234.86C241.103 234.36 239.803 233.56 240.303 233.46C240.703 233.56 240.603 234.36 240.903 234.16L240.203 232.86C240.103 233.06 240.103 233.36 240.003 233.56C239.903 234.26 239.603 234.56 239.303 234.66C239.003 234.76 238.703 234.66 238.703 234.66C237.603 235.66 236.503 236.56 235.303 237.36C235.003 237.76 234.803 237.76 235.303 239.16C235.503 239.36 235.703 239.16 235.903 239.66C235.703 239.16 235.703 238.76 236.003 238.76C236.303 239.26 235.903 239.06 236.003 239.16H236.103C236.203 239.46 236.203 239.56 236.203 239.66C236.803 240.26 237.303 239.86 236.903 238.86C237.403 239.26 237.203 239.66 237.303 240.06C238.203 239.96 238.703 239.66 239.503 239.26C239.003 238.46 239.303 238.76 239.003 238.16L239.203 238.46C239.103 238.36 238.803 237.76 238.603 237.66C239.403 237.96 238.403 236.26 238.403 235.76L238.703 236.16C238.903 235.96 238.903 235.86 239.003 235.56C239.903 236.06 238.803 235.86 239.603 236.76V236.56C239.803 236.96 240.203 237.66 240.303 238.06C240.203 237.16 241.003 237.96 241.003 237.16C241.303 237.66 241.203 238.26 241.103 238.36C241.303 238.36 241.303 237.86 241.603 238.26L241.203 237.66C241.403 237.46 241.503 238.16 241.903 238.46C241.903 237.86 240.203 236.56 240.403 235.86Z" fill="#322015"/>
<path d="M245.403 231.96C245.303 231.96 245.303 232.06 245.303 232.16C245.403 232.16 245.403 232.06 245.403 231.96Z" fill="#322015"/>
<path d="M245.403 233.86C245.503 233.96 245.503 233.96 245.603 234.06C245.603 233.96 245.503 233.86 245.403 233.86Z" fill="#322015"/>
<path d="M246.003 234.56C245.803 234.36 245.803 234.26 245.603 233.96C245.703 234.26 245.503 234.36 246.003 234.56Z" fill="#322015"/>
<path d="M253.203 221.06L253.803 220.86C254.603 221.16 253.903 221.16 254.203 221.46C254.503 221.26 254.203 221.16 253.903 220.76C254.003 220.66 253.703 220.36 253.503 220.16C253.803 220.86 252.003 219.96 253.203 221.06Z" fill="#322015"/>
<path d="M251.903 221.46C250.903 221.16 252.203 222.16 251.703 222.16C251.703 222.06 251.603 222.06 251.503 221.96V222.16L251.303 222.06C251.803 222.36 251.903 222.66 252.203 222.96C252.903 223.06 251.603 222.46 252.303 222.66C252.503 222.86 252.803 223.06 253.003 223.26C252.803 222.96 252.503 222.76 252.303 222.56C252.303 222.36 252.603 222.56 252.803 222.66C252.603 222.36 251.803 221.96 252.203 221.76C252.703 221.86 252.903 222.26 252.803 221.86C251.903 221.56 253.103 221.66 252.603 221.26C252.903 221.16 253.403 221.26 253.703 221.46C253.103 221.16 252.603 220.66 252.503 220.46L252.903 221.06L252.103 220.76C252.303 221.26 252.203 221.36 251.903 221.46Z" fill="#322015"/>
<path d="M253.003 223.26L253.103 223.36C253.203 223.46 253.103 223.36 253.003 223.26Z" fill="#322015"/>
<path d="M253.903 221.66L254.003 221.86L254.303 221.96L253.903 221.66Z" fill="#322015"/>
<path d="M253.503 223.76L253.303 223.56L253.603 223.86L253.503 223.76Z" fill="#322015"/>
<path d="M252.903 223.66L252.403 223.56L252.703 223.76L252.903 223.66Z" fill="#322015"/>
<path d="M249.703 227.66C250.003 227.66 249.603 227.36 249.203 227.06C249.003 227.26 249.603 227.46 249.703 227.66Z" fill="#322015"/>
<path d="M248.303 230.66C248.703 230.76 248.403 230.26 248.503 230.16C248.203 230.06 248.203 230.36 248.303 230.66Z" fill="#322015"/>
<path d="M248.803 232.96C248.703 232.76 248.703 232.66 248.503 232.76L247.903 231.96C247.503 231.86 248.503 232.66 248.803 232.96Z" fill="#322015"/>
<path d="M247.803 234.26L247.703 233.76L247.603 233.86C247.403 233.56 247.203 233.36 247.103 233.06C247.103 233.36 247.203 233.76 247.803 234.26Z" fill="#322015"/>
<path d="M247.103 232.76V232.86C247.203 232.96 247.303 233.06 247.103 232.76Z" fill="#322015"/>
<path d="M247.003 232.96C247.003 232.96 247.003 233.06 247.103 233.06C247.103 232.96 247.103 232.96 247.003 232.96C247.003 232.86 246.903 232.76 247.003 232.96Z" fill="#322015"/>
<path d="M247.303 234.06L247.103 234.46H247.403C246.903 233.96 247.703 234.56 247.303 234.06Z" fill="#322015"/>
<path d="M245.203 235.26L244.703 234.86C244.403 234.96 245.003 236.16 244.203 235.56C244.503 235.76 244.503 236.26 244.903 236.16C244.703 235.66 245.003 235.26 245.203 235.26Z" fill="#322015"/>
<path d="M243.803 235.26C243.703 235.06 243.603 235.06 243.403 234.96C243.303 234.96 243.403 235.26 243.603 235.46C243.203 234.76 244.103 235.76 243.803 235.26Z" fill="#322015"/>
<path d="M242.903 236.16C243.003 236.06 243.003 235.96 242.803 235.96C242.603 236.16 243.103 236.66 243.303 237.06C243.703 237.16 243.203 236.36 242.903 236.16Z" fill="#322015"/>
<path d="M238.603 233.66C238.903 234.06 239.003 233.86 239.003 233.76C239.003 233.86 238.803 233.76 238.603 233.66Z" fill="#322015"/>
<path d="M241.303 237.26L241.403 237.36L241.003 236.56L241.303 237.26Z" fill="#322015"/>
<path d="M240.303 238.46L240.503 238.96L240.603 238.76L240.303 238.46Z" fill="#322015"/>
<path d="M240.003 238.56L239.803 238.76L240.003 238.86C240.203 238.86 239.903 238.56 240.003 238.56Z" fill="#322015"/>
<path d="M239.503 239.06C239.503 238.96 239.603 239.06 239.603 239.16V238.76L239.503 239.06Z" fill="#322015"/>
<path d="M234.603 237.96C234.403 237.46 234.403 237.86 234.303 237.76C234.303 237.86 234.703 238.46 234.603 237.96Z" fill="#322015"/>
</g>
</g>
<path d="M277.303 307.46C277.303 307.46 277.503 303.66 274.803 302.16" stroke="#1B1C1E" stroke-width="1.2604" stroke-miterlimit="10" stroke-linecap="round" stroke-linejoin="round"/>
<path d="M130.003 279.06C130.003 279.06 124.903 290.96 106.503 285.06C88.1032 279.16 82.7032 277.26 70.3032 279.86C57.9032 282.46 52.0032 293.56 48.7032 297.66C45.4032 301.86 43.3032 304.66 41.4032 305.86C39.5032 307.06 45.1032 307.06 47.4032 306.36C47.4032 306.36 44.6032 307.86 46.2032 308.66C47.8032 309.46 56.4032 307.86 56.4032 307.86C56.4032 307.86 54.6032 309.06 55.9032 309.66C57.2032 310.26 63.7032 307.96 84.1032 308.56C104.503 309.16 122.703 304.86 133.903 291.06C145.203 277.06 134.303 274.16 130.003 279.06Z" fill="#B37D4F"/>
<path d="M137.003 277.36C134.503 282.46 128.303 292.96 118.103 297.16C104.403 302.66 91.1032 300.46 81.6032 295.76C72.1032 291.16 70.0032 291.96 69.0032 291.76C68.1032 291.46 70.7032 290.06 70.7032 290.06C70.7032 290.06 62.9032 290.96 64.9032 288.96C66.9032 286.96 64.5032 287.06 62.7032 287.36C58.0032 288.16 53.5032 291.46 53.2032 291.66C56.8032 286.96 62.2032 281.56 70.4032 279.86C82.8032 277.26 88.1032 279.16 106.603 285.06C125.103 290.96 130.103 279.06 130.103 279.06C131.903 276.96 135.003 276.26 137.003 277.36Z" fill="#343434"/>
<path d="M275.303 99.2603C275.303 99.2603 277.803 100.46 282.903 99.2603C288.003 98.0603 291.503 96.8603 292.703 98.8603C292.703 98.8603 281.903 106.26 275.403 108.36C268.803 110.46 266.103 110.06 266.203 108.36C266.203 106.66 271.303 98.6603 275.303 99.2603Z" fill="#BC6464"/>
<path d="M235.703 80.8603C235.703 80.8603 242.303 77.5603 250.303 77.6603C258.303 77.7603 262.203 80.8603 262.203 80.8603C262.203 80.8603 285.203 72.3603 287.903 71.5603C290.703 70.7603 292.103 80.1603 289.703 85.9603C287.303 91.7603 280.703 96.1603 276.403 98.5603C272.203 100.86 268.403 104.86 268.803 107.06C269.203 109.26 291.303 99.1603 292.203 98.7603C293.103 98.3603 293.803 104.16 287.203 108.06C280.603 112.06 272.703 116.36 271.103 118.16C269.503 119.96 267.203 124.86 267.003 125.56C266.903 126.16 270.203 134.56 267.703 134.96C265.803 135.26 265.403 134.26 265.403 134.26C265.403 134.26 266.103 138.96 265.403 139.16C264.703 139.36 263.303 138.06 263.303 138.06C263.303 138.06 263.003 147.06 264.003 151.46C265.003 155.86 263.903 156.06 262.003 155.16C262.003 155.16 265.303 168.06 266.103 183.36C266.903 198.66 266.203 199.86 264.503 199.46C264.503 199.46 264.303 208.56 262.103 210.26C260.903 211.16 260.103 210.26 260.103 210.26C260.103 210.26 259.503 220.66 256.803 222.26C254.903 223.36 254.203 219.76 254.203 219.76C254.203 219.76 246.903 231.86 235.403 236.36C223.903 240.76 218.003 260.46 218.003 260.46C218.003 260.46 209.003 269.56 207.703 270.86C206.403 272.16 204.303 280.26 201.803 276.26C201.803 276.26 199.803 285.26 196.903 282.06C196.903 282.06 192.803 289.06 192.703 294.66C192.703 294.66 202.803 294.36 208.603 295.46C214.403 296.56 220.703 301.36 219.603 307.56C219.603 307.56 154.103 307.56 148.703 307.56C143.303 307.56 129.103 289.86 124.803 263.56C120.903 239.66 130.703 212.86 149.703 194.36C168.703 175.86 194.503 153.46 199.903 148.36C205.303 143.16 209.003 133.86 210.703 127.96C212.403 122.06 221.503 95.7603 221.503 95.7603C221.503 95.7603 212.903 73.3603 211.703 71.2603C211.103 69.5603 223.903 63.9603 235.703 80.8603Z" fill="#B37D4F"/>
<mask id="mask1_14_761" style="mask-type:luminance" maskUnits="userSpaceOnUse" x="123" y="69" width="170" height="239">
<path d="M235.703 80.8603C235.703 80.8603 242.303 77.5603 250.303 77.6603C258.303 77.7603 262.203 80.8603 262.203 80.8603C262.203 80.8603 285.203 72.3603 287.903 71.5603C290.703 70.7603 292.103 80.1603 289.703 85.9603C287.303 91.7603 280.703 96.1603 276.403 98.5603C272.203 100.86 268.403 104.86 268.803 107.06C269.203 109.26 291.303 99.1603 292.203 98.7603C293.103 98.3603 293.803 104.16 287.203 108.06C280.603 112.06 272.703 116.36 271.103 118.16C269.503 119.96 267.203 124.86 267.003 125.56C266.903 126.16 270.203 134.56 267.703 134.96C265.803 135.26 265.403 134.26 265.403 134.26C265.403 134.26 266.103 138.96 265.403 139.16C264.703 139.36 263.303 138.06 263.303 138.06C263.303 138.06 263.003 147.06 264.003 151.46C265.003 155.86 263.903 156.06 262.003 155.16C262.003 155.16 265.303 168.06 266.103 183.36C266.903 198.66 266.203 199.86 264.503 199.46C264.503 199.46 264.303 208.56 262.103 210.26C260.903 211.16 260.103 210.26 260.103 210.26C260.103 210.26 259.503 220.66 256.803 222.26C254.903 223.36 254.203 219.76 254.203 219.76C254.203 219.76 246.903 231.86 235.403 236.36C223.903 240.76 218.003 260.46 218.003 260.46C218.003 260.46 209.003 269.56 207.703 270.86C206.403 272.16 204.303 280.26 201.803 276.26C201.803 276.26 199.803 285.26 196.903 282.06C196.903 282.06 192.803 289.06 192.703 294.66C192.703 294.66 202.803 294.36 208.603 295.46C214.403 296.56 220.703 301.36 219.603 307.56C219.603 307.56 154.103 307.56 148.703 307.56C143.303 307.56 129.103 289.86 124.803 263.56C120.903 239.66 130.703 212.86 149.703 194.36C168.703 175.86 194.503 153.46 199.903 148.36C205.303 143.16 209.003 133.86 210.703 127.96C212.403 122.06 221.503 95.7603 221.503 95.7603C221.503 95.7603 212.903 73.3603 211.703 71.2603C211.103 69.5603 223.903 63.9603 235.703 80.8603Z" fill="white"/>
</mask>
<g mask="url(#mask1_14_761)">
<g opacity="0.88">
<path d="M214.903 263.46C214.803 263.46 214.703 263.36 214.603 263.36C214.603 263.46 214.703 263.46 214.903 263.46Z" fill="#322015"/>
<path d="M213.503 270.96L213.803 271.06C213.703 270.96 213.603 270.96 213.503 270.96Z" fill="#322015"/>
<path d="M212.603 262.66C212.503 262.56 212.403 262.46 212.203 262.46L212.603 262.66Z" fill="#322015"/>
<path d="M216.203 256.66H216.303C216.303 256.76 216.303 256.66 216.203 256.66Z" fill="#322015"/>
<path d="M215.703 256.16V256.06H215.603C215.503 256.06 215.603 256.06 215.703 256.16Z" fill="#322015"/>
<path d="M216.703 256.86C216.603 256.86 216.503 256.76 216.403 256.76C216.503 256.76 216.503 256.86 216.703 256.86Z" fill="#322015"/>
<path d="M213.203 273.86C213.203 273.96 213.203 274.06 213.303 274.06C213.403 273.86 213.403 273.86 213.203 273.86Z" fill="#322015"/>
<path d="M215.403 258.56C214.303 258.56 215.403 258.26 214.403 258.26C214.603 258.46 214.803 258.56 214.203 258.56C213.603 258.36 214.303 258.26 213.403 258.16L213.703 258.36C213.303 258.46 212.603 258.26 212.603 258.36C213.803 258.66 212.103 258.96 212.303 259.16L212.203 259.06L211.603 259.36C211.603 259.36 211.603 259.36 211.503 259.36C211.603 259.36 211.603 259.36 211.703 259.36C211.103 259.46 210.703 259.66 210.803 259.86C211.503 259.96 211.003 260.66 211.503 260.86C211.303 260.76 211.303 260.66 211.503 260.56L212.303 260.66C212.303 260.86 211.503 260.66 212.003 260.86C213.103 260.86 212.003 260.56 212.203 260.36C212.503 260.46 212.703 260.56 212.803 260.66C212.903 260.36 213.303 260.06 212.203 259.76C212.403 259.66 212.903 259.76 213.003 259.86C212.403 259.56 213.703 259.76 213.103 259.46C214.103 259.56 213.603 259.96 214.203 260.26C213.403 260.56 214.103 260.96 214.203 261.36C213.403 261.36 212.803 261.06 212.303 261.16C211.803 261.46 212.703 261.56 213.103 261.76C212.803 261.96 211.803 261.66 211.703 262.06L211.203 261.76C210.103 261.86 211.603 261.96 211.403 262.16C211.703 262.16 212.003 262.16 211.903 261.96C212.303 261.96 212.403 262.16 212.503 262.16C213.003 262.26 213.603 262.36 213.303 262.56C212.703 262.36 212.803 262.76 212.503 262.76L212.403 262.66C212.603 262.86 212.503 263.06 212.603 263.16H212.403C212.703 263.36 213.403 263.46 213.303 263.56C213.003 263.56 212.103 263.26 212.303 263.46C211.803 263.36 211.803 263.16 212.003 262.96C211.803 263.16 211.003 263.16 211.003 262.96C210.403 262.96 211.203 263.16 211.003 263.26C211.203 263.26 211.403 263.26 211.603 263.36C210.803 263.26 211.503 263.86 212.103 263.86L211.703 263.56C212.403 263.56 212.803 263.96 213.203 263.86C212.103 263.86 213.703 264.56 212.803 264.56H213.303C212.903 264.96 214.103 265.46 214.303 266.06C214.003 265.86 212.803 265.76 213.303 265.46C213.003 265.86 212.203 265.46 211.603 265.56C211.103 265.86 212.603 265.86 213.003 265.96L212.803 265.66C214.103 266.06 212.403 266.56 213.203 267.16C212.903 267.16 213.003 267.06 212.903 266.96C212.203 267.16 213.003 267.16 213.303 267.36C213.203 267.56 212.803 267.86 212.003 267.56C211.803 267.76 212.503 267.56 212.803 267.76H212.603L213.503 268.16C213.203 268.36 212.703 268.56 211.903 268.56C212.003 269.06 213.803 268.96 214.003 269.36C213.503 269.56 213.403 269.26 213.103 269.16L213.203 269.46C212.303 269.26 212.803 269.06 211.703 268.96C212.803 269.36 212.003 269.36 212.703 269.76H212.803C213.503 269.96 213.003 270.36 213.103 270.56C212.703 270.46 212.603 270.16 212.503 269.96C212.103 270.16 212.403 270.76 213.303 271.16C213.103 271.26 212.703 271.56 212.303 271.26C212.103 271.76 213.703 271.66 213.303 271.96L212.603 271.86C211.503 272.16 213.403 272.86 212.403 273.16L213.303 273.26C212.903 273.26 212.703 273.46 212.403 273.46L212.103 273.16C211.303 273.26 212.803 273.46 212.203 273.66C212.503 273.66 213.103 273.56 213.403 273.66C213.003 272.66 214.403 271.86 213.603 270.86C213.503 270.86 213.403 270.96 213.203 270.86C213.403 270.76 213.203 270.56 213.703 270.66H213.803C213.603 270.36 214.703 270.26 214.703 270.16C214.103 269.96 215.003 269.66 214.003 269.66L214.703 269.56C214.303 269.46 213.803 269.46 213.603 269.36C213.703 269.16 214.103 269.26 214.403 269.36C214.903 268.76 214.803 267.96 214.603 267.26L215.103 267.46C215.403 267.36 214.303 266.76 215.503 267.06C215.003 266.66 215.903 266.16 214.603 266.06C215.903 265.96 215.203 265.36 215.103 264.86C214.003 264.86 214.803 264.46 214.303 264.26C215.203 264.26 215.103 264.76 215.703 264.76C214.403 264.16 216.803 263.56 214.603 263.16C214.703 263.16 214.803 263.16 214.903 263.16C214.903 263.06 215.303 262.96 215.403 262.86C215.003 262.76 214.803 262.96 214.703 262.76C214.803 262.56 215.403 262.76 215.703 262.66C215.203 262.26 215.103 261.76 214.203 261.66C214.403 261.56 215.003 261.56 215.103 261.66C214.403 261.06 215.303 261.16 214.903 260.66C214.903 260.86 215.803 260.86 215.403 261.06C216.703 260.96 215.203 260.26 215.903 259.86L215.103 259.66C215.003 259.36 215.703 259.46 216.003 259.66C216.503 259.26 216.003 258.96 216.103 258.66C216.203 258.66 216.403 258.66 216.303 258.76L216.403 258.26C216.203 258.16 215.803 257.96 215.303 257.96C215.403 258.26 215.703 258.36 215.403 258.56Z" fill="#322015"/>
<path d="M211.203 262.16C211.403 262.16 211.503 262.06 211.503 262.06C211.403 262.16 211.303 262.16 211.203 262.16Z" fill="#322015"/>
<path d="M213.703 253.56C212.503 253.56 213.903 253.86 213.503 254.06C213.303 253.86 212.603 253.86 212.303 253.86C213.903 254.16 212.003 254.16 212.303 254.56C211.803 254.56 211.703 254.36 211.103 254.26C211.503 254.56 211.703 254.86 212.603 254.96C212.603 255.36 212.303 255.66 212.403 255.96C212.103 255.66 211.503 255.86 210.803 255.56C211.803 255.96 213.003 256.66 214.203 257.16C213.203 257.16 213.103 257.16 212.303 257.06C211.603 257.56 213.203 257.26 212.903 257.76L213.103 257.56C213.403 257.76 214.303 257.86 214.903 257.96L214.803 257.36C215.503 257.36 215.303 257.76 215.503 257.86C216.303 258.06 216.103 257.56 216.703 257.66C216.203 257.56 216.403 257.36 216.103 257.16H216.503C216.903 256.96 216.003 256.76 216.003 256.46C216.103 256.46 216.203 256.46 216.203 256.46C215.803 256.36 215.303 256.26 215.203 256.06V256.16C214.403 255.96 213.803 255.36 212.903 255.66L213.203 255.06C214.103 255.16 215.503 255.36 215.603 255.66L216.003 255.76C216.503 255.56 215.303 255.06 214.503 255.16C212.303 254.76 214.503 254.26 213.503 253.86C214.103 253.86 214.303 254.06 214.803 254.26C214.903 254.36 214.903 254.46 214.403 254.46C214.703 255.06 216.303 254.46 216.103 255.06C215.803 255.36 215.103 254.66 215.003 255.06L216.703 255.46C216.703 255.16 216.403 254.96 216.203 254.66C215.103 253.36 216.103 252.56 216.103 252.56C216.003 250.76 215.803 248.96 215.703 247.16C215.503 246.56 215.503 246.36 213.903 246.16C213.603 246.26 213.703 246.66 213.103 246.46C213.703 246.56 214.103 246.76 214.003 247.06C213.403 247.06 213.703 246.76 213.603 246.86V246.96C213.303 246.96 213.103 246.86 213.103 246.76C212.203 247.06 212.403 247.66 213.503 247.96C212.903 248.26 212.603 247.76 212.103 247.66C211.603 248.56 211.703 249.26 211.603 250.16C212.703 250.16 212.303 250.26 213.003 250.46L212.603 250.56C212.803 250.56 213.503 250.66 213.803 250.46C212.903 250.96 215.203 251.16 215.703 251.56H215.103C215.203 251.86 215.203 251.96 215.503 252.26C214.403 252.76 215.303 251.86 214.003 251.86L214.203 251.96C213.703 251.86 212.703 251.76 212.403 251.56C213.303 252.06 212.003 252.26 212.703 252.76C212.103 252.66 211.603 252.16 211.503 252.06C211.403 252.26 211.903 252.56 211.303 252.56L212.103 252.66C212.203 252.96 211.403 252.56 210.903 252.66C210.903 253.46 213.303 252.96 213.703 253.56Z" fill="#322015"/>
<path d="M212.903 260.96C213.003 260.86 212.903 260.76 212.903 260.76C212.803 260.76 212.803 260.86 212.903 260.96Z" fill="#322015"/>
<path d="M210.403 259.16C210.803 259.16 210.803 259.26 211.203 259.36C211.003 259.26 211.003 258.96 210.403 259.16Z" fill="#322015"/>
<path d="M208.003 282.16C208.203 282.26 208.403 282.46 208.603 282.46L208.403 282.16H208.003Z" fill="#322015"/>
<path d="M208.903 281.76L209.203 281.56L208.203 281.16C208.203 281.46 209.003 281.46 208.903 281.76Z" fill="#322015"/>
<path d="M209.603 281.06L209.803 281.16C209.803 281.16 209.703 281.06 209.603 281.06Z" fill="#322015"/>
<path d="M209.203 280.96L208.503 280.76L209.003 281.16L209.203 281.06C209.503 281.06 209.603 281.06 209.703 281.06L209.203 280.86C209.203 280.86 209.303 280.96 209.203 280.96Z" fill="#322015"/>
<path d="M210.703 280.26C210.403 280.26 210.003 280.06 209.703 279.96C209.403 280.16 210.503 280.36 210.103 280.56C209.603 280.06 209.603 280.66 209.203 280.66C209.903 280.76 210.403 280.66 210.703 280.46L210.203 280.36C210.203 280.16 210.503 280.36 210.703 280.26Z" fill="#322015"/>
<path d="M209.803 278.66L210.503 278.96C210.203 278.96 210.103 279.26 209.403 279.16C209.503 279.26 209.803 279.36 210.003 279.46C209.603 279.46 209.303 279.56 209.803 279.76C210.403 279.36 210.503 279.46 210.803 279.06C211.003 279.06 210.903 279.16 210.903 279.16L211.303 278.96C210.403 278.86 210.403 278.46 209.803 278.66Z" fill="#322015"/>
<path d="M210.403 278.26C210.403 278.46 211.103 278.76 211.503 278.66L211.003 278.06C211.103 278.26 211.103 278.46 210.403 278.26Z" fill="#322015"/>
<path d="M210.503 277.96C210.903 277.96 211.703 277.86 211.003 277.66C211.103 277.86 210.003 277.66 210.503 277.96Z" fill="#322015"/>
<path d="M211.403 276.36L210.903 276.76C209.903 276.76 210.603 276.46 210.203 276.26C209.903 276.66 210.303 276.56 210.803 276.96C210.703 277.06 211.203 277.26 211.403 277.46C210.803 276.76 213.103 277.06 211.403 276.36Z" fill="#322015"/>
<path d="M210.303 277.16L210.703 277.26L210.403 276.96L210.303 277.16Z" fill="#322015"/>
<path d="M212.603 275.46C213.803 275.36 212.003 274.86 212.603 274.56C212.703 274.56 212.803 274.56 212.903 274.66L212.803 274.36H213.103C212.403 274.26 212.203 273.96 211.703 273.76C211.003 273.96 212.503 273.96 211.703 274.16C211.403 274.06 211.003 273.96 210.703 273.86C211.003 274.06 211.403 274.16 211.803 274.26C211.903 274.46 211.503 274.36 211.203 274.36C211.603 274.56 212.503 274.76 212.303 275.06C211.703 275.16 211.403 274.86 211.603 275.16C212.703 275.16 211.403 275.46 212.003 275.66C211.803 275.86 211.103 275.96 210.703 275.86C211.503 275.96 212.203 276.26 212.403 276.46L211.803 275.96H212.803C212.303 275.76 212.403 275.56 212.603 275.46Z" fill="#322015"/>
<path d="M210.603 273.96C210.503 273.96 210.503 273.86 210.403 273.86C210.403 273.86 210.503 273.86 210.603 273.96Z" fill="#322015"/>
<path d="M210.403 275.96L210.203 275.86H209.903L210.403 275.96Z" fill="#322015"/>
<path d="M210.003 273.66C210.003 273.76 210.303 273.76 210.303 273.76L209.903 273.66H210.003Z" fill="#322015"/>
<path d="M210.603 273.46L211.203 273.36L210.803 273.26L210.603 273.46Z" fill="#322015"/>
<path d="M211.803 267.86C211.403 267.96 212.103 268.06 212.603 268.16C212.803 267.86 212.003 268.06 211.803 267.86Z" fill="#322015"/>
<path d="M211.303 264.16C210.803 264.36 211.503 264.56 211.403 264.76C211.803 264.56 211.603 264.36 211.303 264.16Z" fill="#322015"/>
<path d="M209.203 262.46C209.403 262.56 209.503 262.56 209.603 262.46L210.803 262.76C211.203 262.56 209.703 262.46 209.203 262.46Z" fill="#322015"/>
<path d="M209.103 260.76L209.503 261.06V260.96C210.003 261.06 210.203 261.16 210.603 261.26C210.403 260.96 210.003 260.76 209.103 260.76Z" fill="#322015"/>
<path d="M210.903 261.46C210.903 261.46 210.903 261.36 210.803 261.36C210.703 261.36 210.503 261.36 210.903 261.46Z" fill="#322015"/>
<path d="M210.803 261.26C210.703 261.26 210.703 261.26 210.703 261.26C210.803 261.36 210.803 261.36 210.803 261.46C210.903 261.36 211.003 261.36 210.803 261.26Z" fill="#322015"/>
<path d="M209.703 260.56L209.603 260.06L209.403 260.26C210.103 260.36 208.903 260.46 209.703 260.56Z" fill="#322015"/>
<path d="M210.503 258.06H211.203C211.403 257.76 209.903 257.26 211.003 257.16C210.603 257.26 210.203 256.86 210.003 257.26C210.703 257.36 210.703 257.86 210.503 258.06Z" fill="#322015"/>
<path d="M211.603 256.96C211.803 257.06 212.003 256.96 212.203 256.96C212.303 256.86 212.003 256.76 211.703 256.76C212.603 256.86 211.103 256.86 211.603 256.96Z" fill="#322015"/>
<path d="M211.603 255.56C211.603 255.66 211.703 255.76 211.903 255.66C211.903 255.36 211.103 255.46 210.603 255.26C210.203 255.46 211.303 255.66 211.603 255.56Z" fill="#322015"/>
<path d="M217.003 253.66C216.403 253.66 216.503 253.86 216.703 253.96C216.603 253.86 216.803 253.76 217.003 253.66Z" fill="#322015"/>
<path d="M211.903 253.36L211.803 253.46L212.703 253.56L211.903 253.36Z" fill="#322015"/>
<path d="M211.503 251.76L210.903 251.56L211.003 251.86L211.503 251.76Z" fill="#322015"/>
<path d="M211.603 251.46V251.16L211.403 251.26C211.203 251.36 211.603 251.36 211.603 251.46Z" fill="#322015"/>
<path d="M211.603 250.66C211.703 250.66 211.603 250.76 211.503 250.76L211.903 251.06L211.603 250.66Z" fill="#322015"/>
<path d="M215.503 246.36C216.103 246.46 215.703 246.16 215.903 246.06C215.703 246.06 214.903 246.26 215.503 246.36Z" fill="#322015"/>
</g>
</g>
<path d="M287.303 108.06C280.803 112.06 272.803 116.36 271.203 118.16C269.603 119.86 267.303 124.86 267.103 125.46C260.803 110.46 257.303 103.36 257.703 96.0603C258.103 89.5603 260.403 87.1603 264.003 84.1603C267.003 81.5603 266.003 80.0603 265.703 79.5603C272.303 77.1603 285.703 72.2603 287.803 71.5603C290.603 70.7603 291.903 80.1603 289.603 85.9603C287.303 91.7603 280.603 96.1603 276.303 98.5603C272.103 100.86 268.303 104.86 268.703 107.06C269.203 109.26 291.203 99.1603 292.103 98.7603C293.203 98.3603 293.903 104.06 287.303 108.06Z" fill="#343434"/>
<path d="M231.903 95.2603C230.203 101.06 222.703 108.96 224.603 132.26C226.603 155.66 226.803 157.76 223.803 156.86C223.803 156.86 220.503 175.66 216.603 171.96C216.603 171.96 214.803 178.76 205.203 186.36C195.703 193.86 174.203 211.46 175.003 223.66C169.703 222.56 163.203 223.06 155.503 225.76C155.503 225.76 148.803 226.86 141.403 236.36C137.703 241.16 138.203 248.96 136.403 246.26C136.403 246.26 134.503 245.36 132.003 260.36C131.003 266.56 130.203 263.76 130.203 263.76C130.203 263.76 127.603 271.76 130.303 282.66C128.003 276.96 126.203 270.56 125.003 263.46C121.103 239.56 130.903 212.76 149.903 194.26C168.903 175.76 194.703 153.36 200.103 148.26C205.503 143.06 209.203 133.76 210.903 127.86C212.603 121.96 221.703 95.6603 221.703 95.6603C221.703 95.6603 213.103 73.2603 211.903 71.0603C211.803 70.9603 211.903 70.8603 211.903 70.6603C212.903 71.3603 217.203 74.5603 223.803 79.5603C231.503 85.3603 233.603 89.4603 231.903 95.2603Z" fill="#343434"/>
<path d="M199.403 307.46C200.503 301.26 194.203 296.46 188.403 295.36C182.603 294.26 172.503 294.56 172.503 294.56H164.203" stroke="#1B1C1E" stroke-width="1.2604" stroke-miterlimit="10" stroke-linecap="round" stroke-linejoin="round"/>
<path d="M155.503 225.86C194.503 212.46 202.303 254.16 188.003 276.96C181.003 288.16 174.203 292.76 170.303 294.56" stroke="#1B1C1E" stroke-width="1.2604" stroke-miterlimit="10" stroke-linecap="round" stroke-linejoin="round"/>
<path d="M238.103 220.76C238.103 220.76 238.103 223.96 238.303 229.26C238.403 230.96 238.503 232.76 238.703 234.86C240.003 251.66 244.303 279.86 257.903 297.46C257.903 297.46 272.603 297.26 271.503 307.56C271.503 307.56 253.803 307.56 251.203 307.56C248.603 307.56 235.903 291.96 228.903 281.26C228.903 281.26 226.103 285.36 225.803 278.36C225.803 278.36 224.003 281.36 222.403 279.66C220.803 277.96 222.403 268.56 222.403 268.56C222.403 268.56 220.703 271.86 219.203 270.36C217.703 268.96 218.603 262.16 218.603 262.16C218.603 262.16 214.803 266.46 215.303 260.16C215.403 258.86 209.403 248.96 210.403 245.86C214.203 234.56 230.003 222.76 238.103 220.76Z" fill="#B37D4F"/>
<path d="M238.703 234.86C240.003 251.66 244.303 279.86 257.903 297.46C257.903 297.46 272.603 297.26 271.503 307.56" stroke="#1B1C1E" stroke-width="1.2604" stroke-miterlimit="10" stroke-linecap="round" stroke-linejoin="round"/>
<path d="M238.103 220.76C238.103 220.76 238.103 223.96 238.303 229.26C238.403 230.96 238.503 232.76 238.703 234.86" stroke="#1B1C1E" stroke-width="1.2604" stroke-miterlimit="10" stroke-linecap="round" stroke-linejoin="round"/>
<path d="M267.203 307.46C267.203 307.46 267.403 303.66 264.703 302.16" stroke="#1B1C1E" stroke-width="1.2604" stroke-miterlimit="10" stroke-linecap="round" stroke-linejoin="round"/>
<path d="M215.203 307.46C215.203 307.46 215.203 303.56 211.803 301.46" stroke="#1B1C1E" stroke-width="1.2604" stroke-miterlimit="10" stroke-linecap="round" stroke-linejoin="round"/>
<path d="M208.903 307.46C208.903 307.46 208.503 303.86 205.603 302.36" stroke="#1B1C1E" stroke-width="1.2604" stroke-miterlimit="10" stroke-linecap="round" stroke-linejoin="round"/>
<path d="M193.803 307.46C193.803 307.46 193.803 303.56 190.403 301.46" stroke="#1B1C1E" stroke-width="1.2604" stroke-miterlimit="10" stroke-linecap="round" stroke-linejoin="round"/>
<path d="M187.403 307.46C187.403 307.46 187.003 303.86 184.103 302.36" stroke="#1B1C1E" stroke-width="1.2604" stroke-miterlimit="10" stroke-linecap="round" stroke-linejoin="round"/>
<path d="M238.603 114.76C238.603 114.76 238.203 124.96 240.103 126.46C242.003 127.96 243.503 124.06 243.703 124.46C243.803 124.86 246.003 128.96 247.603 128.96C249.003 128.96 248.803 126.86 248.803 126.86C249.303 127.26 252.503 129.86 254.303 127.66" stroke="#1B1C1E" stroke-width="1.2604" stroke-miterlimit="10" stroke-linecap="round" stroke-linejoin="round"/>
<path d="M284.003 72.4603C283.603 72.6603 283.303 73.1603 283.403 73.5603C283.503 74.6603 284.103 76.6603 285.903 77.9603C288.503 79.8603 291.203 77.9603 291.403 77.2603C291.603 76.5603 291.003 70.9603 288.803 70.9603C287.203 71.0603 285.103 71.9603 284.003 72.4603Z" fill="#1B1C1E" stroke="#1B1C1E" stroke-width="1.1485" stroke-miterlimit="10" stroke-linecap="round" stroke-linejoin="round"/>
<path d="M251.403 85.7603C251.403 85.7603 256.603 82.4603 257.803 81.8603C258.703 81.3603 260.003 84.9603 258.303 86.5603C256.803 87.8603 254.503 86.7603 253.603 85.5603C253.603 85.5603 252.303 85.7603 251.403 85.7603Z" fill="#1B1C1E" stroke="#1B1C1E" stroke-width="1.1485" stroke-miterlimit="10" stroke-linecap="round" stroke-linejoin="round"/>
</svg>
