<svg width="348" height="353" viewBox="0 0 348 353" fill="none" xmlns="http://www.w3.org/2000/svg">
<path fill-rule="evenodd" clip-rule="evenodd" d="M189.682 6.87598C223.938 2.10811 264.631 -8.5502 290.627 14.3043C316.704 37.2314 301.689 80.5083 311.391 113.881C320.627 145.649 354.433 172.386 345.874 204.344C337.315 236.307 295.004 242.843 270.82 265.384C241.533 292.68 228.439 340.013 189.682 349.924C149.04 360.318 105.513 341.055 71.5944 316.334C37.6894 291.622 11.9241 255.269 3.38624 214.143C-4.67438 175.316 6.49166 134.525 26.7807 100.472C44.4155 70.8747 77.4001 56.976 107.246 39.8276C133.554 24.7122 159.643 11.0568 189.682 6.87598Z" fill="#FF5C8A" fill-opacity="0.2"/>
<path d="M105.906 259.406C105.906 259.406 99.8061 261.506 116.506 262.206C133.206 262.906 221.506 263.206 230.506 262.206C239.606 261.206 257.306 261.806 233.806 259.406C210.306 257.006 186.206 258.506 162.606 257.006C139.006 255.506 109.406 257.006 105.906 259.406Z" fill="#1B1C1E"/>
<path d="M220.706 189.406C220.706 189.406 228.106 187.506 228.506 179.306C228.506 179.306 236.306 183.406 236.606 194.106C236.906 204.806 228.606 209.406 228.606 209.406C228.606 209.406 217.306 202.306 220.706 189.406Z" fill="#FBAF5E"/>
<mask id="mask0_105_525" style="mask-type:luminance" maskUnits="userSpaceOnUse" x="220" y="179" width="17" height="31">
<path d="M220.706 189.406C220.706 189.406 228.106 187.506 228.506 179.306C228.506 179.306 236.306 183.406 236.606 194.106C236.906 204.806 228.606 209.406 228.606 209.406C228.606 209.406 217.306 202.306 220.706 189.406Z" fill="white"/>
</mask>
<g mask="url(#mask0_105_525)">
<g opacity="0.62">
<path d="M226.906 200.407C227.006 200.407 227.106 200.407 227.206 200.407C227.206 200.307 227.206 200.307 226.906 200.407Z" fill="#3E240C"/>
<path d="M225.806 196.306L225.506 196.506C225.606 196.406 225.706 196.406 225.806 196.306Z" fill="#3E240C"/>
<path d="M230.806 199.006C230.906 199.006 230.906 198.906 231.006 198.906C230.906 199.006 230.906 199.006 230.806 199.006Z" fill="#3E240C"/>
<path d="M224.706 195.006C224.606 195.006 224.606 195.006 224.506 195.006C224.506 195.106 224.606 195.106 224.706 195.006Z" fill="#3E240C"/>
<path d="M227.406 203.006C228.506 202.806 227.506 203.106 228.606 203.006C228.306 202.906 228.206 202.906 228.706 202.806C229.306 202.806 228.706 203.006 229.606 202.906L229.206 202.806C229.706 202.706 230.406 202.706 230.306 202.606C229.006 202.706 230.706 202.106 230.506 202.006H230.606L231.206 201.706C231.206 201.706 231.206 201.706 231.306 201.706C231.206 201.706 231.206 201.706 231.106 201.706C231.706 201.506 232.106 201.306 231.906 201.106C231.206 201.206 231.506 200.606 230.906 200.706C231.106 200.706 231.106 200.806 231.006 200.906L230.106 201.106C230.106 200.906 230.906 200.906 230.306 200.906C229.106 201.206 230.306 201.106 230.206 201.206C229.906 201.206 229.706 201.206 229.506 201.206C229.506 201.406 229.106 201.706 230.406 201.606C230.206 201.706 229.706 201.806 229.506 201.706C230.206 201.706 228.906 201.906 229.506 201.906C228.406 202.006 228.906 201.706 228.206 201.706C229.006 201.306 228.206 201.306 227.906 201.106C228.706 200.906 229.406 200.906 229.906 200.706C230.406 200.406 229.406 200.606 228.906 200.606C229.106 200.406 230.206 200.206 230.206 200.006H230.806C231.906 199.506 230.306 200.006 230.506 199.806C230.206 199.906 229.906 200.006 230.006 200.106C229.606 200.206 229.406 200.206 229.306 200.106C228.706 200.206 228.206 200.406 228.406 200.106C229.106 200.006 228.906 199.806 229.206 199.706H229.406C229.106 199.706 229.206 199.506 229.106 199.506H229.306C229.006 199.506 228.206 199.706 228.306 199.606C228.606 199.506 229.606 199.306 229.406 199.306C229.906 199.206 230.006 199.306 229.906 199.506C230.006 199.306 230.806 199.006 230.906 199.106C231.506 198.906 230.606 199.006 230.806 198.906C230.606 199.006 230.406 199.006 230.206 199.106C231.006 198.806 230.206 198.806 229.606 199.006H230.106C229.406 199.206 228.906 199.206 228.606 199.406C229.606 199.006 228.006 199.206 228.806 198.806L228.306 199.106C228.506 198.706 227.206 198.906 226.906 198.806C227.306 198.706 228.406 198.306 228.106 198.606C228.206 198.306 229.206 198.106 229.706 197.706C230.006 197.306 228.606 198.006 228.206 198.106L228.506 198.206C227.106 198.606 228.506 197.606 227.606 197.706C227.906 197.506 227.806 197.706 228.006 197.606C228.606 197.206 227.806 197.506 227.506 197.606C227.606 197.406 227.806 197.106 228.606 196.806C228.706 196.606 228.106 197.106 227.806 197.106L228.006 197.006L227.006 197.306C227.206 197.106 227.506 196.706 228.306 196.206C228.006 196.006 226.506 197.106 226.106 197.106C226.406 196.806 226.706 196.806 227.006 196.606L226.806 196.506C227.706 196.106 227.406 196.406 228.406 195.906C227.306 196.306 228.006 195.906 227.206 196.106L227.106 196.206C226.406 196.506 226.706 196.006 226.506 196.006C226.906 195.806 227.106 195.906 227.306 195.906C227.606 195.606 227.006 195.406 226.106 195.906C226.206 195.706 226.406 195.406 226.906 195.206C226.906 194.906 225.606 195.906 225.706 195.606L226.306 195.106C227.006 194.206 225.106 195.306 225.806 194.406L225.006 195.006C225.306 194.706 225.406 194.506 225.606 194.206L225.906 194.106C226.506 193.506 225.206 194.506 225.606 194.006C225.406 194.206 224.906 194.706 224.706 194.906C225.506 195.006 224.706 196.206 225.806 196.106C225.906 196.006 226.006 195.906 226.106 195.806C225.906 196.006 226.206 195.906 225.806 196.206H225.706C226.006 196.206 225.006 196.906 225.106 197.006C225.706 196.706 225.006 197.406 225.906 196.706L225.306 197.106C225.706 196.906 226.106 196.606 226.306 196.606C226.306 196.706 225.906 197.006 225.606 197.006C225.406 197.506 225.706 197.806 226.206 198.006L225.706 198.106C225.506 198.306 226.706 198.006 225.406 198.506C226.006 198.406 225.206 199.106 226.506 198.506C225.306 199.206 226.106 199.106 226.406 199.306C227.506 198.806 226.806 199.406 227.306 199.206C226.406 199.506 226.306 199.306 225.806 199.606C227.206 199.306 225.006 200.606 227.306 199.906C227.206 200.006 227.106 200.006 227.006 200.006C227.006 200.006 226.606 200.206 226.606 200.306C227.006 200.206 227.206 200.006 227.306 200.106C227.206 200.206 226.606 200.406 226.306 200.506C226.906 200.506 227.206 200.706 228.106 200.506C227.906 200.606 227.406 200.806 227.206 200.806C228.006 200.906 227.106 201.106 227.606 201.306C227.506 201.206 226.606 201.506 227.006 201.206C225.706 201.606 227.306 201.606 226.706 201.906L227.606 201.806C227.806 201.906 227.006 202.106 226.606 202.006C226.106 202.306 226.606 202.306 226.706 202.506C226.606 202.506 226.406 202.506 226.506 202.506V202.706C226.706 202.706 227.206 202.706 227.706 202.706C227.406 203.206 227.106 203.206 227.406 203.006Z" fill="#3E240C"/>
<path d="M231.006 199.806C230.806 199.906 230.706 199.906 230.706 200.006C230.806 199.906 230.906 199.806 231.006 199.806Z" fill="#3E240C"/>
<path d="M229.506 205.706C230.806 205.706 229.306 205.506 229.606 205.406C229.806 205.506 230.606 205.506 230.906 205.506C229.206 205.306 231.206 205.306 230.906 205.006C231.506 205.006 231.506 205.106 232.106 205.206C231.706 205.006 231.406 204.806 230.506 204.706C230.506 204.406 230.806 204.206 230.606 204.106C231.006 204.306 231.506 204.106 232.406 204.206C231.306 204.006 230.006 203.606 228.606 203.506C229.606 203.406 229.706 203.306 230.706 203.306C231.306 202.906 229.706 203.306 230.006 203.006L229.806 203.206C229.506 203.106 228.506 203.206 227.806 203.206L228.006 203.506C227.306 203.606 227.406 203.406 227.206 203.306C226.306 203.306 226.606 203.506 225.906 203.606C226.506 203.606 226.306 203.706 226.606 203.806H226.206C225.806 204.006 226.806 204.006 226.806 204.106C226.706 204.106 226.606 204.106 226.506 204.106C226.906 204.106 227.506 204.106 227.606 204.206V204.106C228.506 204.206 229.106 204.406 230.106 204.206L229.806 204.606C228.806 204.606 227.306 204.606 227.106 204.406H226.706C226.106 204.506 227.506 204.706 228.306 204.606C230.706 204.706 228.406 205.106 229.406 205.406C228.706 205.406 228.506 205.306 228.006 205.206C227.906 205.106 227.906 205.106 228.506 205.106C228.106 204.806 226.406 205.206 226.606 204.806C226.906 204.606 227.706 205.006 227.706 204.706L225.906 204.606C226.006 204.706 226.306 204.806 226.506 205.006C227.106 205.306 227.106 205.606 227.006 205.806C226.906 206.006 226.606 206.106 226.606 206.106C226.706 207.006 226.806 208.006 226.706 209.006C226.906 209.406 226.806 209.406 228.406 210.106C228.806 210.206 228.706 209.906 229.306 210.206C228.706 210.006 228.406 209.706 228.506 209.606C229.106 209.806 228.806 209.806 228.906 209.806H229.006C229.306 209.906 229.506 210.006 229.506 210.106C230.506 210.206 230.406 209.706 229.206 209.206C229.906 209.206 230.206 209.606 230.606 209.806C231.206 209.306 231.206 208.806 231.406 208.206C230.306 208.006 230.706 208.006 229.906 207.806H230.306C230.106 207.806 229.306 207.606 229.106 207.706C230.106 207.506 227.606 207.106 227.106 206.806L227.706 206.906C227.606 206.706 227.606 206.706 227.306 206.506C228.506 206.306 227.506 206.806 228.906 206.806L228.706 206.706C229.306 206.806 230.306 207.006 230.706 207.106C229.806 206.706 231.106 206.706 230.406 206.306C231.106 206.406 231.606 206.706 231.606 206.806C231.706 206.706 231.206 206.406 231.806 206.506L231.006 206.406C230.906 206.206 231.806 206.506 232.306 206.406C232.606 205.806 230.006 206.106 229.506 205.706Z" fill="#3E240C"/>
<path d="M229.606 201.106C229.506 201.206 229.606 201.206 229.706 201.206C229.706 201.206 229.706 201.106 229.606 201.106Z" fill="#3E240C"/>
<path d="M232.506 201.606C232.106 201.706 232.106 201.606 231.606 201.706C231.906 201.706 231.906 201.906 232.506 201.606Z" fill="#3E240C"/>
<path d="M223.506 188.006C223.306 188.206 223.106 188.306 223.006 188.506L223.306 188.406L223.506 188.006Z" fill="#3E240C"/>
<path d="M223.206 189.006L223.106 189.406L223.906 188.606C223.806 188.406 223.406 189.106 223.206 189.006Z" fill="#3E240C"/>
<path d="M223.206 189.806L223.006 190.006C223.106 189.906 223.206 189.806 223.206 189.806Z" fill="#3E240C"/>
<path d="M223.506 189.406L224.106 188.806L223.506 189.106V189.406C223.306 189.506 223.306 189.706 223.206 189.806L223.606 189.406C223.606 189.406 223.506 189.506 223.506 189.406Z" fill="#3E240C"/>
<path d="M223.706 189.506C223.706 189.406 223.806 189.406 223.806 189.306C223.806 189.406 223.706 189.506 223.706 189.506Z" fill="#3E240C"/>
<path d="M223.106 191.006C223.306 190.706 223.606 190.506 223.906 190.206C224.006 189.806 223.206 190.806 223.306 190.406C223.906 190.106 223.506 190.006 223.806 189.606C223.306 190.106 223.006 190.606 223.106 191.006L223.406 190.506C223.406 190.606 223.206 190.806 223.106 191.006Z" fill="#3E240C"/>
<path d="M224.606 190.606L224.006 191.106C224.206 190.806 224.106 190.706 224.606 190.106C224.506 190.106 224.206 190.406 224.006 190.506C224.206 190.206 224.406 189.906 224.006 190.306C223.906 190.906 223.706 191.006 223.806 191.406C223.706 191.506 223.706 191.506 223.706 191.406L223.606 191.806C224.106 191.106 224.406 191.206 224.606 190.606Z" fill="#3E240C"/>
<path d="M224.406 191.306C224.306 191.206 223.706 191.706 223.406 192.106L224.006 191.906C224.006 191.806 223.906 191.806 224.406 191.306Z" fill="#3E240C"/>
<path d="M224.606 191.406C224.406 191.706 223.806 192.406 224.406 191.906C224.206 191.906 225.106 191.106 224.606 191.406Z" fill="#3E240C"/>
<path d="M224.806 192.706L225.006 192.106C225.706 191.306 225.306 192.006 225.706 191.706C225.706 191.406 225.506 191.706 224.906 192.006C224.906 191.906 224.406 192.206 224.206 192.306C225.006 192.106 223.306 193.806 224.806 192.706Z" fill="#3E240C"/>
<path d="M225.106 191.606L224.806 191.906L225.106 191.706V191.606Z" fill="#3E240C"/>
<path d="M224.506 194.006C223.706 194.906 225.206 193.806 225.006 194.306C224.906 194.306 224.906 194.406 224.706 194.506H224.906L224.706 194.706C225.206 194.206 225.606 194.206 226.106 193.906C226.606 193.306 225.406 194.406 225.906 193.706C226.206 193.506 226.606 193.206 226.806 193.106C226.506 193.206 226.106 193.506 225.806 193.706C225.706 193.706 226.006 193.406 226.206 193.206C225.806 193.406 225.006 194.106 225.106 193.806C225.506 193.306 225.906 193.206 225.606 193.206C224.806 194.006 225.606 192.906 225.006 193.406C225.106 193.106 225.506 192.606 225.806 192.306C225.106 192.906 224.506 193.306 224.206 193.406L224.906 193.106L224.206 193.906C224.506 193.606 224.506 193.806 224.506 194.006Z" fill="#3E240C"/>
<path d="M226.706 193.106C226.806 193.106 226.806 193.006 226.906 193.006C226.906 193.006 226.806 193.006 226.706 193.106Z" fill="#3E240C"/>
<path d="M225.806 192.107L226.006 192.007L226.206 191.707L225.806 192.107Z" fill="#3E240C"/>
<path d="M227.406 192.706C227.406 192.606 227.106 192.906 227.106 192.906L227.506 192.606L227.406 192.706Z" fill="#3E240C"/>
<path d="M226.906 193.306L226.506 193.706L226.906 193.506V193.306Z" fill="#3E240C"/>
<path d="M228.506 196.707C228.806 196.407 228.106 196.807 227.706 197.007C227.706 197.307 228.306 196.707 228.506 196.707Z" fill="#3E240C"/>
<path d="M230.306 198.606C230.706 198.306 230.006 198.406 230.006 198.306C229.706 198.506 230.006 198.606 230.306 198.606Z" fill="#3E240C"/>
<path d="M233.006 198.906C232.806 198.906 232.606 198.906 232.606 199.006L231.306 199.206C230.906 199.606 232.506 199.106 233.006 198.906Z" fill="#3E240C"/>
<path d="M233.506 200.206L233.006 200.106V200.206C232.506 200.306 232.206 200.306 231.806 200.306C232.106 200.406 232.606 200.406 233.506 200.206Z" fill="#3E240C"/>
<path d="M231.506 200.207C231.806 200.207 231.906 200.107 231.506 200.207V200.207Z" fill="#3E240C"/>
<path d="M231.606 200.306C231.706 200.306 231.706 200.306 231.706 200.306C231.706 200.306 231.706 200.206 231.606 200.306C231.506 200.306 231.406 200.306 231.606 200.306Z" fill="#3E240C"/>
<path d="M232.906 200.507L233.106 200.807L233.306 200.607C232.606 200.707 233.806 200.307 232.906 200.507Z" fill="#3E240C"/>
<path d="M232.606 202.406L231.806 202.506C231.706 202.706 233.306 202.806 232.106 203.106C232.606 203.006 233.006 203.206 233.206 202.906C232.506 202.906 232.406 202.606 232.606 202.406Z" fill="#3E240C"/>
<path d="M231.606 203.406C231.406 203.406 231.206 203.406 231.006 203.506C230.906 203.606 231.306 203.606 231.606 203.606C230.506 203.606 232.206 203.406 231.606 203.406Z" fill="#3E240C"/>
<path d="M231.706 204.406C231.706 204.306 231.606 204.306 231.406 204.406C231.506 204.606 232.306 204.506 232.806 204.606C233.306 204.306 232.106 204.206 231.706 204.406Z" fill="#3E240C"/>
<path d="M226.006 205.606C226.706 205.606 226.606 205.506 226.306 205.506C226.506 205.506 226.306 205.606 226.006 205.606Z" fill="#3E240C"/>
<path d="M231.506 205.907L231.606 205.807L230.606 205.707L231.506 205.907Z" fill="#3E240C"/>
<path d="M231.906 207.006L232.606 207.206L232.506 207.006H231.906Z" fill="#3E240C"/>
<path d="M231.706 207.207V207.407H232.006C232.206 207.307 231.706 207.307 231.706 207.207Z" fill="#3E240C"/>
<path d="M231.806 207.806C231.706 207.806 231.906 207.806 232.006 207.806L231.606 207.606L231.806 207.806Z" fill="#3E240C"/>
<path d="M227.206 209.506C226.606 209.306 226.906 209.506 226.806 209.406C226.906 209.506 227.806 209.706 227.206 209.506Z" fill="#3E240C"/>
</g>
</g>
<path d="M112.606 149.906C112.606 149.906 111.006 193.006 114.706 241.406C114.706 241.406 108.506 249.106 112.106 259.406C112.106 259.406 134.406 259.406 137.306 259.406C137.306 259.406 143.306 248.106 144.306 232.606H164.106C164.106 232.606 171.506 243.206 176.706 252.106C178.306 254.806 179.106 258.406 180.306 259.406C180.306 259.406 223.206 259.406 223.906 259.406C224.606 259.406 232.006 234.406 230.406 212.706C230.306 211.606 230.206 210.506 230.106 209.406C229.506 204.806 228.406 201.006 227.006 197.606C225.606 194.406 224.006 191.606 222.006 189.006C217.406 182.806 211.406 178.106 205.406 172.306C196.506 163.706 189.606 146.206 189.606 146.206C189.606 146.206 192.406 140.406 162.306 139.006C132.206 137.706 114.106 142.006 112.606 149.906Z" fill="#FBAF5E"/>
<path d="M164.106 232.606L161.206 228.206" stroke="#1B1C1E" stroke-width="1.2604" stroke-miterlimit="10" stroke-linecap="round" stroke-linejoin="round"/>
<path d="M183.006 191.206C177.106 203.306 170.706 204.606 170.706 204.606C163.206 213.606 159.706 213.806 159.706 213.806C155.706 219.106 148.006 224.406 148.006 224.406C142.206 222.206 136.606 213.206 136.606 213.206C131.606 212.306 127.206 202.206 127.206 202.206C117.506 196.706 113.406 182.306 112.106 176.206C112.006 160.206 112.406 150.006 112.406 150.006C114.006 142.206 132.006 137.806 162.106 139.206C192.206 140.606 189.406 146.406 189.406 146.406C189.406 146.406 190.506 149.106 192.306 152.906C199.006 178.706 183.006 191.206 183.006 191.206Z" fill="#FFF0DD"/>
<path d="M189.506 146.206C191.206 150.606 190.306 155.606 187.006 159.006C178.906 167.406 162.606 181.006 143.706 178.306C133.806 176.906 126.506 173.006 121.406 169.006C115.506 164.406 112.306 157.306 112.506 149.806C114.106 142.006 132.106 137.606 162.206 139.006C192.306 140.406 189.506 146.206 189.506 146.206Z" fill="#D1493B"/>
<path d="M153.406 174.806C153.406 170.006 149.506 166.206 144.806 166.206C140.106 166.206 136.206 170.106 136.206 174.806C136.206 177.006 137.006 179.006 138.406 180.506C140.006 182.306 142.306 183.406 144.806 183.406C149.506 183.406 153.406 179.606 153.406 174.806Z" fill="#FFAE1F"/>
<path d="M138.306 180.506C139.906 182.306 142.206 183.406 144.706 183.406C149.506 183.406 153.306 179.506 153.306 174.806" stroke="#1B1C1E" stroke-width="1.2604" stroke-miterlimit="10" stroke-linecap="round" stroke-linejoin="round"/>
<path d="M165.306 90.9061C165.306 90.9061 175.206 73.3061 178.906 60.4061C179.606 58.0061 182.506 57.2061 184.406 58.9061C191.606 65.6061 203.706 82.8061 187.106 113.706C187.206 113.706 164.206 105.106 165.306 90.9061Z" fill="#FBAF5E"/>
<path d="M186.506 107.606C185.006 104.406 183.106 101.206 180.406 98.5063C177.406 95.5063 176.706 90.9063 178.306 87.0063C181.106 80.4063 183.506 72.5063 184.606 68.7063C184.906 67.7063 186.206 67.5063 186.806 68.4063C198.306 84.9063 186.506 107.606 186.506 107.606Z" fill="#BC763C"/>
<path d="M186.506 107.606C185.506 109.706 169.006 103.106 174.406 94.9061C174.506 94.7061 174.706 94.4061 174.906 94.2061C180.606 97.4061 184.106 102.406 186.506 107.606Z" fill="#BC763C"/>
<path d="M196.206 137.106C189.806 149.006 178.106 157.806 167.506 163.906C153.306 172.006 135.606 170.606 123.006 160.206C106.106 146.306 101.706 132.206 103.306 131.106C104.006 130.606 105.206 128.306 106.506 125.506C106.506 125.506 111.406 124.906 120.406 129.906C129.306 134.806 135.906 131.006 137.606 114.606C139.506 95.2059 142.806 89.9059 142.806 89.9059C145.906 89.6059 149.706 89.4059 153.706 89.6059C153.706 89.6059 146.806 117.206 154.706 129.206C160.206 137.606 171.706 132.006 178.806 128.206C185.806 124.506 191.406 124.206 191.406 124.206C191.606 124.806 191.706 125.406 191.806 125.806C193.306 131.106 196.206 137.106 196.206 137.106Z" fill="#FFF0DD"/>
<path d="M137.606 90.7061C139.006 90.3061 140.706 90.1061 142.806 89.8061C142.806 89.8061 139.506 95.1061 137.606 114.506C136.006 130.806 129.406 134.706 120.406 129.806C111.506 124.806 106.506 125.406 106.506 125.406C109.106 119.506 112.106 111.206 112.106 111.206C99.1061 82.3061 112.806 65.6061 120.906 58.8061C123.006 57.1061 126.206 58.3061 126.606 61.0061C129.006 76.7061 137.606 90.7061 137.606 90.7061Z" fill="#FBAF5E"/>
<path d="M191.206 124.106C191.206 124.106 185.606 124.406 178.606 128.106C171.606 131.806 160.106 137.506 154.506 129.106C146.706 117.106 153.506 89.5059 153.506 89.5059C159.406 89.7059 165.606 90.5059 170.606 92.3059C171.706 92.7059 172.706 93.1059 173.706 93.6059C174.006 93.8059 174.406 93.9059 174.706 94.1059C180.406 97.3059 184.006 102.306 186.306 107.506C187.006 108.906 187.506 110.306 188.006 111.706C189.806 116.706 190.606 121.306 191.206 124.106Z" fill="#FBAF5E"/>
<path d="M146.906 138.606C144.706 140.406 141.606 140.306 139.506 138.406C137.606 136.706 135.506 134.206 135.506 131.406C135.506 128.206 150.206 128.106 150.606 131.406C151.106 134.206 149.006 136.806 146.906 138.606Z" fill="#1B1C1E"/>
<path d="M131.406 123.906C131.406 125.506 130.206 127.306 128.406 127.206C126.506 127.006 125.706 125.306 125.706 123.806C125.706 122.206 127.106 121.006 128.606 121.006C130.206 121.006 131.406 122.306 131.406 123.906Z" fill="#1B1C1E"/>
<path d="M162.106 124.806C162.106 126.406 160.806 128.006 159.306 127.906C157.706 127.906 156.406 126.206 156.506 124.606C156.506 123.006 157.906 121.806 159.406 121.806C160.906 121.906 162.106 123.206 162.106 124.806Z" fill="#1B1C1E"/>
<path d="M122.306 97.906C118.606 101.006 115.806 104.806 114.106 107.606C102.206 85.406 119.306 60.306 119.906 70.106C120.206 75.206 122.706 81.806 124.906 86.906C126.706 90.706 125.606 95.206 122.306 97.906Z" fill="#BC763C"/>
<mask id="mask1_105_525" style="mask-type:luminance" maskUnits="userSpaceOnUse" x="127" y="223" width="18" height="24">
<path d="M144.306 232.606C144.006 237.906 143.006 242.706 142.006 246.806C130.906 239.606 128.206 226.606 127.706 223.406C134.306 233.506 144.306 232.606 144.306 232.606Z" fill="white"/>
</mask>
<g mask="url(#mask1_105_525)">
<g opacity="0.62">
<path d="M138.306 231.106C138.306 231.206 138.206 231.306 138.206 231.406C138.206 231.406 138.306 231.306 138.306 231.106Z" fill="#3E240C"/>
<path d="M134.506 229.306L134.706 229.006C134.706 229.106 134.606 229.206 134.506 229.306Z" fill="#3E240C"/>
<path d="M137.506 233.606C137.506 233.706 137.506 233.806 137.406 234.106L137.506 233.606Z" fill="#3E240C"/>
<path d="M136.406 234.706C136.406 234.806 136.306 234.806 136.306 234.906C136.306 234.806 136.306 234.806 136.406 234.706Z" fill="#3E240C"/>
<path d="M142.006 231.506C142.006 231.406 142.006 231.406 142.006 231.406C142.106 231.406 142.006 231.406 142.006 231.506Z" fill="#3E240C"/>
<path d="M141.906 232.606C141.906 232.706 142.006 232.706 141.906 232.606V232.606Z" fill="#3E240C"/>
<path d="M142.106 231.006C142.106 231.106 142.106 231.206 142.106 231.306C142.106 231.206 142.006 231.206 142.106 231.006Z" fill="#3E240C"/>
<path d="M138.406 231.006C138.406 231.106 138.306 231.106 138.306 231.206C138.406 231.106 138.406 231.006 138.406 231.006Z" fill="#3E240C"/>
<path d="M133.506 228.006C133.506 227.906 133.506 227.906 133.506 227.806C133.606 227.806 133.606 227.906 133.506 228.006Z" fill="#3E240C"/>
<path d="M140.806 232.006C140.406 233.106 140.906 232.106 140.606 233.106C140.606 232.806 140.606 232.706 140.406 233.206C140.306 233.806 140.606 233.206 140.306 234.106V233.706C140.106 234.106 140.006 234.906 139.906 234.806C140.206 233.506 139.406 235.206 139.306 234.906V235.006L138.906 235.506C138.906 235.506 138.906 235.506 138.906 235.606C138.906 235.506 138.906 235.506 139.006 235.406C138.706 236.006 138.406 236.306 138.306 236.106C138.506 235.406 137.906 235.706 138.006 235.006C138.006 235.206 138.006 235.206 138.206 235.106L138.506 234.306C138.406 234.306 138.206 235.106 138.206 234.506C138.706 233.406 138.406 234.606 138.606 234.506C138.706 234.206 138.706 234.006 138.706 233.806C138.906 233.806 139.206 233.506 139.006 234.706C139.106 234.506 139.306 234.006 139.306 233.906C139.206 234.606 139.606 233.306 139.506 233.906C139.806 232.806 139.406 233.206 139.506 232.606C139.006 233.406 139.106 232.506 139.006 232.306C138.706 233.106 138.506 233.806 138.306 234.206C137.906 234.606 138.306 233.706 138.406 233.206C138.106 233.406 137.806 234.406 137.606 234.406L137.506 234.906C136.906 235.906 137.606 234.406 137.406 234.606C137.606 234.306 137.706 234.106 137.806 234.206C138.006 233.806 138.006 233.606 138.006 233.606C138.206 233.106 138.406 232.506 138.206 232.706C138.006 233.406 137.906 233.106 137.706 233.406V233.506C137.706 233.206 137.606 233.306 137.606 233.106L137.506 233.306C137.606 233.006 137.906 232.206 137.706 232.406C137.506 232.706 137.206 233.606 137.206 233.406C137.006 233.906 137.106 234.006 137.306 233.906C137.106 234.006 136.606 234.706 136.806 234.806C136.506 235.406 136.806 234.506 136.606 234.706C136.706 234.506 136.806 234.306 136.906 234.106C136.506 234.906 136.606 234.006 136.906 233.506L136.806 234.006C137.206 233.406 137.206 232.906 137.506 232.606C136.906 233.506 137.406 231.906 136.906 232.706L137.206 232.206C136.806 232.406 137.206 231.106 137.206 230.706C137.106 231.006 136.406 232.106 136.806 231.806C136.406 231.806 136.106 232.806 135.706 233.206C135.306 233.406 136.206 232.206 136.406 231.806V232.106C137.006 230.806 135.806 232.006 136.006 231.106C135.806 231.406 135.906 231.306 135.906 231.406C135.406 231.906 135.906 231.206 136.006 230.906C135.806 230.906 135.506 231.106 135.006 231.806C134.706 231.906 135.306 231.406 135.406 231.106L135.306 231.206L135.806 230.306C135.506 230.506 135.106 230.706 134.506 231.306C134.406 231.006 135.706 229.706 135.806 229.306C135.406 229.606 135.406 229.806 135.206 230.106L135.106 229.906C134.506 230.706 134.906 230.406 134.206 231.306C134.806 230.306 134.206 230.906 134.606 230.106L134.706 230.006C135.206 229.306 134.606 229.606 134.606 229.406C134.306 229.806 134.406 229.906 134.306 230.106C133.906 230.306 133.906 229.806 134.506 228.906C134.306 229.006 133.906 229.106 133.706 229.506C133.406 229.406 134.706 228.406 134.306 228.406L133.706 229.006C132.706 229.606 134.106 227.906 133.106 228.406L133.806 227.706C133.506 227.906 133.206 228.006 132.906 228.206L132.706 228.506C132.006 228.906 133.206 227.906 132.706 228.206C132.906 228.006 133.506 227.706 133.706 227.506C133.706 228.306 135.006 227.706 134.706 228.806C134.606 228.906 134.506 229.006 134.406 229.106C134.606 229.006 134.506 229.206 134.906 228.806V228.706C134.906 229.006 135.806 228.206 135.806 228.206C135.406 228.706 136.206 228.206 135.406 229.006L135.906 228.506C135.706 228.806 135.306 229.206 135.206 229.406C135.306 229.406 135.606 229.106 135.706 228.806C136.206 228.706 136.506 229.106 136.606 229.606L136.806 229.106C137.006 228.906 136.506 230.006 137.206 228.906C137.006 229.406 137.806 228.806 137.006 230.006C137.906 228.906 137.706 229.806 137.806 230.106C137.106 231.106 137.806 230.506 137.606 231.006C138.106 230.206 137.906 230.106 138.206 229.606C137.706 231.006 139.306 229.006 138.206 231.106C138.306 231.006 138.306 230.906 138.406 230.906C138.406 230.906 138.706 230.606 138.806 230.506C138.606 230.906 138.506 231.006 138.506 231.206C138.606 231.206 138.906 230.606 139.006 230.306C138.906 230.906 139.106 231.206 138.706 232.106C138.906 231.906 139.106 231.406 139.206 231.206C139.206 232.006 139.506 231.206 139.606 231.706C139.506 231.606 139.906 230.806 139.706 231.106C140.306 229.906 140.006 231.506 140.506 230.906L140.306 231.706C140.406 231.906 140.706 231.106 140.706 230.806C141.106 230.406 141.006 230.906 141.206 231.006C141.206 230.906 141.306 230.706 141.206 230.806H141.406C141.406 231.006 141.306 231.506 141.106 232.006C141.006 232.006 141.106 231.706 140.806 232.006Z" fill="#3E240C"/>
<path d="M137.106 235.006C137.206 234.806 137.306 234.706 137.306 234.706C137.206 234.906 137.106 235.006 137.106 235.006Z" fill="#3E240C"/>
<path d="M143.106 234.606C142.906 235.906 143.006 234.406 142.806 234.706C142.906 234.906 142.706 235.706 142.706 236.006C142.806 234.306 142.506 236.306 142.206 235.906C142.106 236.406 142.206 236.606 142.106 237.206C142.006 236.806 141.806 236.506 141.906 235.506C141.606 235.406 141.406 235.706 141.206 235.506C141.306 235.906 141.006 236.406 141.006 237.306C141.006 236.206 140.906 234.806 141.006 233.406C140.706 234.406 140.706 234.506 140.406 235.406C139.906 236.006 140.606 234.406 140.206 234.606L140.406 234.506C140.406 234.206 140.606 233.206 140.806 232.506L141.106 232.706C141.306 232.006 141.106 232.106 141.106 231.906C141.306 231.106 141.406 231.406 141.606 230.706C141.506 231.306 141.606 231.106 141.606 231.406L141.706 231.006C141.906 230.606 141.806 231.606 141.906 231.606C141.906 231.506 142.006 231.406 142.006 231.406C141.906 231.806 141.906 232.306 141.906 232.506V232.406C141.806 233.306 142.006 233.906 141.606 234.906L142.006 234.706C142.206 233.706 142.406 232.206 142.306 232.006L142.406 231.606C142.606 231.106 142.606 232.406 142.306 233.306C142.006 235.706 142.806 233.506 142.906 234.506C143.006 233.906 142.906 233.606 142.906 233.106C142.806 233.006 142.806 233.006 142.706 233.506C142.506 233.106 143.106 231.506 142.806 231.606C142.606 231.906 142.806 232.706 142.506 232.706L142.706 230.906C142.806 231.006 142.906 231.306 143.006 231.506C143.206 232.106 143.506 232.206 143.706 232.106C143.906 232.006 144.006 231.806 144.006 231.806C144.906 232.106 145.906 232.306 146.806 232.406C147.106 232.606 147.206 232.506 147.606 234.306C147.606 234.706 147.406 234.506 147.506 235.106C147.406 234.406 147.206 234.106 147.006 234.206C147.006 234.906 147.206 234.506 147.206 234.706C147.306 235.006 147.306 235.306 147.406 235.306C147.306 236.306 146.806 236.106 146.606 234.906C146.506 235.606 146.806 235.906 146.906 236.406C146.306 236.906 145.806 236.906 145.206 236.906C145.206 235.706 145.106 236.206 145.106 235.406L145.006 235.806C145.006 235.606 145.006 234.806 145.106 234.606C144.706 235.506 144.806 233.006 144.606 232.506V233.106C144.406 233.006 144.406 233.006 144.306 232.606C143.906 233.706 144.506 232.806 144.306 234.306L144.206 234.106C144.206 234.706 144.206 235.706 144.306 236.106C144.106 235.106 143.806 236.506 143.506 235.706C143.506 236.406 143.706 236.906 143.806 237.006C143.706 237.106 143.506 236.606 143.406 237.206L143.506 236.406C143.306 236.306 143.406 237.206 143.306 237.706C142.706 237.706 143.506 235.106 143.106 234.606Z" fill="#3E240C"/>
<path d="M138.606 233.906C138.706 233.906 138.706 233.906 138.706 234.006L138.606 233.906Z" fill="#3E240C"/>
<path d="M138.606 236.806C138.806 236.506 138.706 236.406 138.806 236.006C138.806 236.306 139.006 236.306 138.606 236.806Z" fill="#3E240C"/>
<path d="M127.806 225.506H128.206L127.306 226.106C127.106 225.906 127.906 225.706 127.806 225.506Z" fill="#3E240C"/>
<path d="M128.606 225.606L128.806 225.406C128.706 225.506 128.706 225.606 128.606 225.606Z" fill="#3E240C"/>
<path d="M128.206 225.906L127.506 226.406L127.906 225.906H128.206C128.406 225.706 128.506 225.706 128.606 225.706L128.106 226.106C128.206 225.906 128.306 225.806 128.206 225.906Z" fill="#3E240C"/>
<path d="M128.206 226.106C128.106 226.106 128.106 226.206 128.006 226.206C128.106 226.106 128.206 226.106 128.206 226.106Z" fill="#3E240C"/>
<path d="M129.806 225.706C129.506 225.806 129.206 226.106 128.906 226.306C128.506 226.306 129.606 225.706 129.206 225.706C128.806 226.206 128.706 225.906 128.306 226.006C129.006 225.706 129.506 225.506 129.806 225.506L129.406 225.806C129.306 225.906 129.606 225.706 129.806 225.706Z" fill="#3E240C"/>
<path d="M129.206 227.106L129.806 226.606C129.506 226.806 129.406 226.606 128.706 227.006C128.806 226.906 129.006 226.706 129.206 226.506C128.806 226.706 128.506 226.806 129.006 226.406C129.606 226.406 129.706 226.206 130.106 226.406C130.206 226.306 130.206 226.306 130.206 226.306L130.706 226.206C129.706 226.706 129.806 227.006 129.206 227.106Z" fill="#3E240C"/>
<path d="M129.806 227.106C129.706 226.906 130.306 226.506 130.806 226.306L130.506 226.906C130.406 226.806 130.406 226.606 129.806 227.106Z" fill="#3E240C"/>
<path d="M130.006 227.206C130.406 227.006 131.206 226.606 130.606 227.106C130.506 227.006 129.606 227.706 130.006 227.206Z" fill="#3E240C"/>
<path d="M131.206 227.706L130.606 227.806C129.706 228.306 130.406 228.106 130.106 228.506C129.806 228.406 130.106 228.306 130.506 227.806C130.406 227.806 130.806 227.406 131.006 227.206C130.506 227.806 132.606 226.406 131.206 227.706Z" fill="#3E240C"/>
<path d="M130.006 227.806L130.306 227.606L130.206 227.906L130.006 227.806Z" fill="#3E240C"/>
<path d="M132.506 227.606C133.506 227.006 132.206 228.306 132.706 228.106C132.706 228.006 132.806 228.006 132.906 227.906V228.106L133.106 227.906C132.506 228.406 132.406 228.706 132.106 229.106C131.406 229.506 132.706 228.506 132.006 228.906C131.806 229.106 131.406 229.506 131.206 229.706C131.406 229.406 131.706 229.106 132.006 228.806C132.006 228.706 131.706 229.006 131.506 229.106C131.706 228.706 132.606 228.106 132.206 228.106C131.606 228.406 131.506 228.806 131.506 228.406C132.506 227.806 131.206 228.306 131.806 227.806C131.506 227.806 130.906 228.206 130.606 228.406C131.306 227.906 131.806 227.306 132.006 227.106L131.606 227.806L132.506 227.206C132.106 227.606 132.306 227.606 132.506 227.606Z" fill="#3E240C"/>
<path d="M131.206 229.606C131.206 229.706 131.106 229.706 131.106 229.806C131.106 229.806 131.106 229.706 131.206 229.606Z" fill="#3E240C"/>
<path d="M130.406 228.606L130.206 228.706L130.006 228.906L130.406 228.606Z" fill="#3E240C"/>
<path d="M130.706 230.206C130.706 230.206 130.906 230.006 131.006 230.006L130.706 230.406V230.206Z" fill="#3E240C"/>
<path d="M131.406 229.906L131.906 229.606L131.606 229.906H131.406Z" fill="#3E240C"/>
<path d="M134.506 232.106C134.206 232.306 134.606 231.806 134.906 231.306C135.206 231.306 134.606 231.806 134.506 232.106Z" fill="#3E240C"/>
<path d="M136.006 234.206C135.606 234.506 135.906 233.906 135.806 233.806C136.106 233.506 136.106 233.806 136.006 234.206Z" fill="#3E240C"/>
<path d="M135.806 236.806C135.906 236.606 135.906 236.406 136.006 236.406L136.506 235.206C136.906 234.906 136.106 236.306 135.806 236.806Z" fill="#3E240C"/>
<path d="M137.006 237.606V237.106H137.106C137.306 236.606 137.306 236.406 137.406 236.006C137.406 236.206 137.406 236.706 137.006 237.606Z" fill="#3E240C"/>
<path d="M137.406 235.606C137.206 236.006 137.306 235.806 137.406 235.606V235.606Z" fill="#3E240C"/>
<path d="M137.506 235.806C137.506 235.906 137.506 235.906 137.506 235.906C137.406 235.806 137.406 235.806 137.506 235.806C137.506 235.506 137.406 235.606 137.506 235.806Z" fill="#3E240C"/>
<path d="M137.406 237.006L137.706 237.306L137.506 237.506C137.706 236.706 137.106 237.806 137.406 237.006Z" fill="#3E240C"/>
<path d="M139.406 237.006L139.706 236.306C139.906 236.206 139.806 237.906 140.206 236.706C140.006 237.106 140.206 237.606 139.806 237.706C139.906 237.106 139.606 236.906 139.406 237.006Z" fill="#3E240C"/>
<path d="M140.506 236.206C140.506 236.006 140.606 235.806 140.706 235.606C140.806 235.506 140.806 235.906 140.706 236.206C140.906 235.206 140.406 236.806 140.506 236.206Z" fill="#3E240C"/>
<path d="M141.506 236.506C141.406 236.506 141.406 236.406 141.506 236.206C141.706 236.306 141.406 237.106 141.406 237.706C141.106 238.106 141.306 236.906 141.506 236.506Z" fill="#3E240C"/>
<path d="M143.706 231.106C143.606 231.706 143.506 231.606 143.506 231.406C143.506 231.606 143.606 231.406 143.706 231.106Z" fill="#3E240C"/>
<path d="M143.006 236.606L142.906 236.706L143.006 235.706V236.606Z" fill="#3E240C"/>
<path d="M144.006 237.206L144.106 237.906L143.906 237.706L144.006 237.206Z" fill="#3E240C"/>
</g>
</g>
<path d="M119.006 259.406C119.006 259.406 117.506 251.406 121.106 247.906" stroke="#1B1C1E" stroke-width="1.2604" stroke-miterlimit="10" stroke-linecap="round" stroke-linejoin="round"/>
<path d="M127.706 259.406C127.706 259.406 126.306 255.506 129.406 248.906" stroke="#1B1C1E" stroke-width="1.2604" stroke-miterlimit="10" stroke-linecap="round" stroke-linejoin="round"/>
<path d="M144.306 232.606C144.306 232.606 132.106 233.706 125.706 219.706" stroke="#1B1C1E" stroke-width="1.2604" stroke-miterlimit="10" stroke-linecap="round" stroke-linejoin="round"/>
<path d="M203.406 259.406C203.406 259.406 205.606 254.306 204.606 245.906C203.606 237.506 196.106 203.706 197.006 202.106" stroke="#1B1C1E" stroke-width="1.2604" stroke-miterlimit="10" stroke-linecap="round" stroke-linejoin="round"/>
<path d="M127.306 202.106C127.306 202.106 125.306 197.206 124.706 193.006" stroke="#1B1C1E" stroke-width="1.2604" stroke-miterlimit="10" stroke-linecap="round" stroke-linejoin="round"/>
<path d="M136.806 213.206C136.806 213.206 135.206 210.406 134.506 207.106" stroke="#1B1C1E" stroke-width="1.2604" stroke-miterlimit="10" stroke-linecap="round" stroke-linejoin="round"/>
<path d="M159.806 213.706C159.806 213.706 163.206 209.606 163.806 207.006" stroke="#1B1C1E" stroke-width="1.2604" stroke-miterlimit="10" stroke-linecap="round" stroke-linejoin="round"/>
<path d="M170.706 204.506C170.706 204.506 176.506 197.306 177.406 189.406" stroke="#1B1C1E" stroke-width="1.2604" stroke-miterlimit="10" stroke-linecap="round" stroke-linejoin="round"/>
<path d="M183.006 191.206C183.006 191.206 185.506 186.506 186.006 181.806" stroke="#1B1C1E" stroke-width="1.2604" stroke-miterlimit="10" stroke-linecap="round" stroke-linejoin="round"/>
<path d="M188.106 259.406C188.106 259.406 185.706 256.006 186.206 249.806" stroke="#1B1C1E" stroke-width="1.2604" stroke-miterlimit="10" stroke-linecap="round" stroke-linejoin="round"/>
<path d="M195.306 259.406C195.306 259.406 194.306 254.106 195.306 249.806" stroke="#1B1C1E" stroke-width="1.2604" stroke-miterlimit="10" stroke-linecap="round" stroke-linejoin="round"/>
<path d="M208.506 259.406C208.506 259.406 206.206 254.406 208.906 249.006" stroke="#1B1C1E" stroke-width="1.2604" stroke-miterlimit="10" stroke-linecap="round" stroke-linejoin="round"/>
<path d="M216.106 259.406C216.106 259.406 215.106 253.506 218.606 249.806" stroke="#1B1C1E" stroke-width="1.2604" stroke-miterlimit="10" stroke-linecap="round" stroke-linejoin="round"/>
<path d="M143.506 144.806C143.506 144.806 153.406 149.706 158.606 144.706C160.306 143.106 160.606 138.806 157.306 135.806" stroke="#1B1C1E" stroke-width="1.2604" stroke-miterlimit="10" stroke-linecap="round" stroke-linejoin="round"/>
<path d="M143.106 139.906C143.106 139.906 142.806 141.506 143.506 144.806C143.706 145.706 133.306 149.306 129.306 144.706C127.906 143.106 127.306 139.906 130.306 136.306" stroke="#1B1C1E" stroke-width="1.2604" stroke-miterlimit="10" stroke-linecap="round" stroke-linejoin="round"/>
<path d="M139.506 146.706C139.506 146.706 140.906 147.506 143.706 147.706C146.706 147.906 147.906 146.806 147.906 146.806" stroke="#1B1C1E" stroke-width="1.2604" stroke-miterlimit="10" stroke-linecap="round" stroke-linejoin="round"/>
<path d="M202.306 232.606C202.306 232.606 206.406 232.506 208.906 228.206" stroke="#1B1C1E" stroke-width="1.2604" stroke-miterlimit="10" stroke-linecap="round" stroke-linejoin="round"/>
<path d="M230.006 209.406C229.406 204.806 228.306 201.006 226.906 197.606C225.506 194.406 223.906 191.606 221.906 189.006" stroke="#1B1C1E" stroke-width="1.2604" stroke-miterlimit="10" stroke-linecap="round" stroke-linejoin="round"/>
<mask id="mask2_105_525" style="mask-type:luminance" maskUnits="userSpaceOnUse" x="202" y="225" width="11" height="21">
<path d="M202.306 232.606C202.306 232.606 204.406 232.606 206.806 230.706C209.206 228.806 210.206 225.806 210.206 225.806C210.206 225.806 213.806 235.206 212.006 239.806C210.306 244.406 204.606 245.806 204.606 245.806L202.306 232.606Z" fill="white"/>
</mask>
<g mask="url(#mask2_105_525)">
<g opacity="0.62">
<path d="M204.006 232.106C204.106 232.206 204.106 232.306 204.206 232.406C204.206 232.406 204.206 232.306 204.006 232.106Z" fill="#3E240C"/>
<path d="M207.106 229.206L206.806 229.006C206.906 229.106 207.006 229.106 207.106 229.206Z" fill="#3E240C"/>
<path d="M205.506 234.206C205.506 234.306 205.606 234.406 205.706 234.606L205.506 234.206Z" fill="#3E240C"/>
<path d="M207.006 235.006C207.106 235.006 207.106 235.106 207.206 235.106C207.106 235.006 207.006 235.006 207.006 235.006Z" fill="#3E240C"/>
<path d="M203.906 232.006C204.006 232.106 204.006 232.106 204.006 232.106L203.906 232.006Z" fill="#3E240C"/>
<path d="M207.806 227.706C207.806 227.606 207.806 227.606 207.706 227.506C207.506 227.606 207.606 227.606 207.806 227.706Z" fill="#3E240C"/>
<path d="M201.906 233.706C202.606 234.606 201.806 233.806 202.406 234.706C202.306 234.506 202.306 234.306 202.606 234.706C202.906 235.306 202.406 234.706 202.906 235.506L202.806 235.106C203.106 235.406 203.506 236.106 203.506 236.006C202.806 234.906 204.106 236.206 204.106 235.906V236.006L204.606 236.406C204.606 236.406 204.606 236.406 204.606 236.506C204.606 236.406 204.506 236.406 204.506 236.306C205.006 236.806 205.406 237.006 205.406 236.806C205.006 236.206 205.706 236.206 205.306 235.706C205.406 235.906 205.306 235.906 205.106 235.806L204.506 235.106C204.606 235.006 205.006 235.706 204.806 235.206C204.006 234.306 204.606 235.306 204.506 235.306C204.406 235.106 204.206 234.806 204.206 234.706C204.006 234.806 203.606 234.606 204.206 235.606C204.006 235.406 203.706 235.006 203.706 234.906C204.006 235.606 203.206 234.406 203.506 235.006C202.906 234.106 203.406 234.306 203.106 233.806C203.806 234.406 203.506 233.606 203.506 233.306C204.006 233.906 204.406 234.506 204.806 234.906C205.306 235.206 204.706 234.406 204.506 234.006C204.806 234.106 205.406 235.006 205.706 234.906L205.906 235.406C206.806 236.206 205.706 235.006 205.906 235.106C205.706 234.906 205.506 234.706 205.406 234.806C205.106 234.506 205.106 234.306 205.106 234.206C204.806 233.806 204.306 233.306 204.606 233.406C205.006 234.006 205.006 233.706 205.306 233.906L205.406 234.006C205.306 233.806 205.506 233.706 205.406 233.606L205.506 233.706C205.406 233.406 204.806 232.806 205.006 232.906C205.206 233.106 205.806 233.906 205.806 233.706C206.206 234.106 206.106 234.206 205.906 234.206C206.106 234.206 206.806 234.806 206.706 234.906C207.206 235.306 206.606 234.606 206.906 234.706C206.706 234.606 206.606 234.406 206.506 234.306C207.106 234.906 206.806 234.106 206.306 233.706L206.506 234.206C206.006 233.706 205.806 233.306 205.406 233.006C206.306 233.706 205.306 232.406 206.006 232.906L205.506 232.606C206.006 232.606 205.106 231.606 205.106 231.206C205.306 231.506 206.306 232.306 205.806 232.206C206.206 232.106 206.806 232.906 207.306 233.206C207.806 233.306 206.506 232.406 206.206 232.106L206.306 232.406C205.306 231.406 206.906 232.106 206.406 231.406C206.706 231.606 206.506 231.606 206.606 231.706C207.306 232.006 206.606 231.506 206.406 231.306C206.606 231.306 206.906 231.306 207.606 231.906C207.906 231.906 207.106 231.606 207.006 231.406L207.206 231.506L206.506 230.806C206.806 230.906 207.306 231.006 208.006 231.406C208.006 231.006 206.406 230.206 206.206 229.806C206.706 229.906 206.806 230.206 207.006 230.406V230.206C207.806 230.806 207.306 230.706 208.306 231.306C207.406 230.506 208.106 230.906 207.606 230.306H207.506C206.906 229.806 207.506 229.906 207.406 229.706C207.806 230.006 207.806 230.106 207.906 230.306C208.306 230.406 208.206 229.806 207.306 229.206C207.506 229.206 207.906 229.206 208.306 229.606C208.606 229.406 207.006 228.806 207.406 228.706L208.106 229.106C209.206 229.306 207.406 228.206 208.506 228.406L207.606 228.006C208.006 228.106 208.206 228.106 208.606 228.206L208.806 228.506C209.606 228.706 208.206 228.106 208.706 228.206C208.406 228.106 207.806 227.906 207.506 227.806C207.806 228.506 206.306 228.406 206.906 229.306C207.006 229.306 207.106 229.406 207.306 229.506C207.106 229.406 207.206 229.706 206.806 229.406L206.706 229.306C206.806 229.506 205.706 229.006 205.706 229.106C206.206 229.506 205.306 229.206 206.306 229.706L205.706 229.406C206.006 229.606 206.506 229.906 206.706 230.106C206.606 230.106 206.206 229.906 206.006 229.706C205.406 229.806 205.306 230.206 205.406 230.706L205.006 230.306C204.706 230.206 205.606 231.106 204.506 230.206C204.806 230.706 203.906 230.306 205.006 231.206C203.906 230.406 204.306 231.206 204.306 231.506C205.206 232.306 204.406 231.906 204.806 232.306C204.106 231.706 204.206 231.506 203.806 231.106C204.706 232.206 202.606 230.906 204.206 232.606C204.106 232.606 204.006 232.506 204.006 232.406C204.006 232.406 203.606 232.206 203.506 232.206C203.806 232.506 204.006 232.606 204.006 232.806C203.906 232.806 203.506 232.306 203.206 232.106C203.506 232.606 203.406 233.006 204.006 233.706C203.806 233.506 203.406 233.206 203.306 233.006C203.606 233.706 203.006 233.106 203.106 233.606C203.206 233.506 202.506 232.806 202.906 233.006C201.906 232.006 202.706 233.506 202.106 233.106L202.606 233.806C202.606 234.006 202.106 233.406 202.006 233.106C201.506 232.806 201.706 233.306 201.606 233.406C201.506 233.306 201.406 233.206 201.506 233.206L201.306 233.306C201.406 233.506 201.606 233.906 201.906 234.306C201.706 233.806 201.606 233.506 201.906 233.706Z" fill="#3E240C"/>
<path d="M206.406 235.506C206.206 235.406 206.106 235.306 206.106 235.306C206.206 235.306 206.306 235.406 206.406 235.506Z" fill="#3E240C"/>
<path d="M200.506 236.906C201.106 238.106 200.606 236.606 200.806 236.906C200.806 237.106 201.106 237.806 201.306 238.106C200.706 236.506 201.606 238.306 201.706 237.906C202.006 238.406 201.906 238.506 202.106 239.106C202.106 238.606 202.206 238.306 201.806 237.506C202.006 237.406 202.406 237.506 202.406 237.306C202.406 237.706 202.806 238.106 203.106 238.906C202.806 237.806 202.506 236.506 202.006 235.206C202.606 236.106 202.706 236.106 203.106 237.006C203.806 237.406 202.706 236.106 203.106 236.206L202.906 236.106C202.806 235.806 202.306 234.906 201.906 234.306L201.706 234.606C201.306 234.006 201.506 234.006 201.506 233.806C201.106 233.006 201.006 233.406 200.706 232.806C201.006 233.306 200.806 233.206 200.906 233.506L200.706 233.206C200.406 232.906 200.806 233.806 200.706 233.806C200.606 233.706 200.606 233.606 200.606 233.606C200.806 234.006 201.006 234.506 201.006 234.606V234.506C201.406 235.306 201.406 236.006 202.106 236.806L201.606 236.706C201.206 235.806 200.506 234.406 200.606 234.206L200.406 233.806C200.006 233.406 200.506 234.706 200.906 235.406C201.906 237.606 200.506 235.706 200.706 236.706C200.406 236.106 200.406 235.806 200.306 235.406C200.306 235.306 200.406 235.306 200.606 235.806C200.706 235.306 199.606 234.006 200.006 234.006C200.306 234.206 200.306 235.006 200.606 235.006L199.906 233.306C199.806 233.406 199.806 233.706 199.806 234.006C199.806 234.706 199.506 234.806 199.306 234.806C199.106 234.806 198.906 234.606 198.906 234.606C198.106 235.106 197.306 235.606 196.406 236.006C196.206 236.306 196.106 236.206 196.206 238.006C196.306 238.406 196.506 238.206 196.506 238.806C196.406 238.106 196.506 237.806 196.706 237.806C196.806 238.406 196.606 238.106 196.706 238.306C196.706 238.606 196.806 238.906 196.706 238.906C197.106 239.806 197.506 239.506 197.306 238.306C197.606 238.906 197.406 239.306 197.406 239.906C198.206 240.206 198.606 240.006 199.206 239.906C198.806 238.806 199.006 239.206 198.906 238.406L199.106 238.806C199.006 238.606 198.806 237.806 198.606 237.606C199.206 238.306 198.506 236.006 198.506 235.506L198.706 236.106C198.806 235.906 198.906 235.906 198.906 235.606C199.606 236.506 198.706 235.906 199.406 237.206V236.906C199.606 237.406 199.906 238.406 199.906 238.806C199.806 237.806 200.506 239.006 200.506 238.206C200.706 238.806 200.606 239.406 200.606 239.506C200.706 239.506 200.806 239.006 201.006 239.606L200.706 238.806C200.806 238.606 201.006 239.506 201.306 240.006C201.806 239.606 200.306 237.506 200.506 236.906Z" fill="#3E240C"/>
<path d="M204.606 234.806C204.506 234.806 204.506 234.806 204.506 234.906C204.506 234.906 204.606 234.906 204.606 234.806Z" fill="#3E240C"/>
<path d="M204.806 236.606C204.906 236.706 204.906 236.806 205.006 236.906C205.006 236.806 204.906 236.706 204.806 236.606Z" fill="#3E240C"/>
<path d="M205.506 237.606C205.306 237.306 205.306 237.306 205.006 236.906C205.106 237.206 205.006 237.306 205.506 237.606Z" fill="#3E240C"/>
<path d="M210.906 225.906C210.506 225.806 209.606 225.706 210.406 226.006C210.206 225.806 211.306 226.206 210.906 225.906Z" fill="#3E240C"/>
<path d="M209.806 226.706L210.406 226.606C211.406 226.906 210.706 226.806 211.106 227.106C211.406 226.906 211.006 226.906 210.506 226.506C210.606 226.406 210.106 226.206 209.906 226.006C210.506 226.606 208.106 225.806 209.806 226.706Z" fill="#3E240C"/>
<path d="M211.006 226.506L210.606 226.306L210.906 226.606L211.006 226.506Z" fill="#3E240C"/>
<path d="M208.506 227.006C207.306 226.706 209.006 227.606 208.506 227.506C208.406 227.506 208.306 227.406 208.206 227.306V227.506L207.906 227.406C208.606 227.706 208.806 227.906 209.206 228.206C210.006 228.306 208.406 227.806 209.206 228.006C209.506 228.206 209.906 228.406 210.206 228.506C209.906 228.306 209.506 228.106 209.206 227.906C209.206 227.806 209.506 228.006 209.806 228.106C209.506 227.806 208.506 227.406 208.806 227.306C209.406 227.406 209.706 227.706 209.506 227.406C208.406 227.106 209.706 227.306 209.106 226.906C209.406 226.806 210.106 227.006 210.406 227.106C209.606 226.806 208.906 226.406 208.706 226.206L209.306 226.706L208.306 226.406C208.906 226.906 208.806 226.906 208.506 227.006Z" fill="#3E240C"/>
<path d="M210.406 228.506C210.506 228.506 210.506 228.606 210.506 228.606C210.606 228.706 210.506 228.606 210.406 228.506Z" fill="#3E240C"/>
<path d="M210.906 227.306L211.006 227.406L211.306 227.506L210.906 227.306Z" fill="#3E240C"/>
<path d="M211.006 229.006C211.006 229.006 210.706 228.806 210.706 228.906L211.106 229.106L211.006 229.006Z" fill="#3E240C"/>
<path d="M210.306 228.906L209.706 228.706L210.106 228.906H210.306Z" fill="#3E240C"/>
<path d="M208.006 231.906C208.406 232.006 207.806 231.606 207.406 231.306C207.106 231.306 207.806 231.606 208.006 231.906Z" fill="#3E240C"/>
<path d="M207.106 234.306C207.506 234.506 207.106 233.906 207.206 233.906C206.906 233.706 207.006 234.006 207.106 234.306Z" fill="#3E240C"/>
<path d="M208.106 236.806C208.006 236.606 207.906 236.506 207.806 236.506L207.006 235.506C206.606 235.306 207.706 236.406 208.106 236.806Z" fill="#3E240C"/>
<path d="M207.206 237.806L207.006 237.306H206.906C206.606 236.906 206.506 236.706 206.306 236.306C206.406 236.706 206.606 237.206 207.206 237.806Z" fill="#3E240C"/>
<path d="M206.306 236.106V236.206C206.406 236.306 206.506 236.406 206.306 236.106Z" fill="#3E240C"/>
<path d="M206.206 236.306C206.206 236.306 206.206 236.406 206.306 236.406C206.306 236.306 206.306 236.306 206.206 236.306C206.206 236.106 206.106 236.106 206.206 236.306Z" fill="#3E240C"/>
<path d="M206.706 237.506L206.506 237.806L206.806 237.906C206.306 237.306 207.206 238.206 206.706 237.506Z" fill="#3E240C"/>
<path d="M204.806 238.106L204.306 237.506C204.006 237.506 204.706 239.006 203.906 238.106C204.206 238.406 204.206 238.906 204.606 239.006C204.306 238.306 204.506 238.006 204.806 238.106Z" fill="#3E240C"/>
<path d="M203.506 237.606C203.406 237.406 203.306 237.306 203.106 237.106C203.006 237.106 203.106 237.406 203.306 237.706C202.806 236.806 203.706 238.206 203.506 237.606Z" fill="#3E240C"/>
<path d="M202.606 238.206C202.606 238.206 202.706 238.006 202.506 237.906C202.406 238.006 202.806 238.806 203.006 239.306C203.406 239.606 202.906 238.506 202.606 238.206Z" fill="#3E240C"/>
</g>
</g>
</svg>
