<svg width="366" height="390" viewBox="0 0 366 390" fill="none" xmlns="http://www.w3.org/2000/svg">
<path fill-rule="evenodd" clip-rule="evenodd" d="M195.57 0.647507C238.899 4.03577 253.465 66.5439 283.402 102.326C311.908 136.399 357.091 155.879 364.202 202.208C372.09 253.599 353.385 307.906 320.547 344.332C288.033 380.399 240.956 391.286 195.57 389.269C152.114 387.338 113.263 365.493 79.9925 333.643C42.7565 297.996 -3.14585 257.431 0.169804 202.208C3.43295 147.86 59.2862 124.175 94.7668 87.5753C127.237 54.0816 151.835 -2.77248 195.57 0.647507Z" fill="#FF5C8A" fill-opacity="0.2"/>
<path d="M277.705 188.131C277.705 188.131 299.005 179.331 296.705 153.531C296.705 153.531 302.805 178.531 279.405 191.331C279.305 191.431 275.805 190.031 277.705 188.131Z" fill="#D29F7E"/>
<mask id="mask0_14_768" style="mask-type:luminance" maskUnits="userSpaceOnUse" x="277" y="153" width="21" height="39">
<path d="M277.705 188.131C277.705 188.131 299.005 179.331 296.705 153.531C296.705 153.531 302.805 178.531 279.405 191.331C279.305 191.431 275.805 190.031 277.705 188.131Z" fill="white"/>
</mask>
<g mask="url(#mask0_14_768)">
<g opacity="0.88">
<path d="M282.405 187.731C282.405 187.831 282.405 187.831 282.405 187.931C282.505 187.931 282.405 187.831 282.405 187.731Z" fill="#322015"/>
<path d="M286.005 186.031L285.905 185.831C285.905 185.931 285.905 185.931 286.005 186.031Z" fill="#322015"/>
<path d="M278.805 188.731C278.705 188.631 278.805 188.631 278.805 188.731V188.731Z" fill="#322015"/>
<path d="M287.105 185.031V184.931C287.005 184.831 287.105 184.931 287.105 185.031Z" fill="#322015"/>
<path d="M280.005 188.531C280.205 189.131 279.905 188.631 280.005 189.231C280.005 189.031 280.105 188.931 280.205 189.331C280.205 189.731 280.005 189.331 280.205 189.831L280.305 189.631C280.405 189.831 280.505 190.331 280.505 190.231C280.405 189.431 280.905 190.431 281.005 190.231V190.331L281.305 190.631V190.531C281.505 190.831 281.705 191.031 281.805 190.931C281.705 190.531 282.205 190.631 282.105 190.231C282.105 190.331 282.005 190.331 281.905 190.331L281.705 189.831C281.805 189.831 281.905 190.231 281.905 189.931C281.605 189.231 281.705 190.031 281.605 189.931C281.605 189.731 281.605 189.631 281.605 189.531C281.405 189.531 281.205 189.431 281.305 190.131C281.205 190.031 281.105 189.731 281.105 189.631C281.105 190.031 280.905 189.231 280.905 189.631C280.705 189.031 281.105 189.231 281.005 188.831C281.305 189.231 281.405 188.731 281.505 188.631C281.705 189.031 281.705 189.531 281.905 189.731C282.205 189.931 282.005 189.431 282.005 189.131C282.205 189.231 282.305 189.831 282.505 189.831V190.131C282.905 190.731 282.505 189.831 282.705 189.931C282.605 189.731 282.505 189.631 282.405 189.731C282.305 189.531 282.305 189.331 282.405 189.331C282.305 189.031 282.205 188.631 282.405 188.731C282.505 189.131 282.605 188.931 282.705 189.131V189.231C282.705 189.031 282.905 189.031 282.905 189.031V189.131C282.905 188.931 282.705 188.531 282.905 188.531C283.005 188.731 283.105 189.231 283.205 189.131C283.305 189.431 283.205 189.531 283.105 189.431C283.205 189.531 283.505 189.931 283.405 190.031C283.605 190.331 283.505 189.831 283.605 189.931C283.505 189.831 283.505 189.731 283.405 189.631C283.605 190.131 283.705 189.531 283.505 189.231V189.531C283.305 189.131 283.305 188.831 283.205 188.631C283.505 189.231 283.405 188.231 283.705 188.631L283.505 188.331C283.805 188.331 283.705 187.631 283.805 187.331C283.805 187.531 284.205 188.231 283.905 188.031C284.205 188.031 284.305 188.631 284.605 188.931C284.905 189.031 284.405 188.331 284.305 188.031L284.205 188.231C283.905 187.431 284.705 188.131 284.705 187.531C284.805 187.731 284.705 187.631 284.705 187.731C285.005 188.031 284.805 187.631 284.705 187.431C284.805 187.431 285.105 187.531 285.305 188.031C285.505 188.031 285.105 187.731 285.105 187.631L285.205 187.731L285.005 187.131C285.205 187.231 285.505 187.331 285.805 187.731C286.005 187.531 285.205 186.731 285.305 186.431C285.505 186.631 285.505 186.731 285.605 186.931L285.705 186.831C286.005 187.331 285.705 187.231 286.105 187.731C285.805 187.031 286.205 187.431 286.105 186.931C285.905 186.531 286.305 186.631 286.305 186.531C286.405 186.831 286.305 186.931 286.305 187.031C286.505 187.131 286.705 186.731 286.405 186.231C286.505 186.231 286.805 186.331 286.905 186.631C287.205 186.531 286.405 185.931 286.705 185.831L287.005 186.231C287.605 186.531 287.005 185.431 287.605 185.731L287.205 185.331C287.405 185.431 287.605 185.531 287.705 185.631V185.831C288.105 186.131 287.505 185.431 287.805 185.531C287.705 185.431 287.305 185.231 287.205 185.031C287.005 185.631 286.105 185.331 286.105 186.031C286.205 186.031 286.205 186.131 286.305 186.231C286.205 186.131 286.205 186.331 286.005 186.131C286.005 186.331 285.505 185.831 285.405 185.831C285.605 186.131 285.105 185.831 285.505 186.331L285.205 186.031C285.305 186.231 285.505 186.531 285.505 186.631C285.405 186.631 285.205 186.431 285.205 186.231C284.805 186.231 284.505 186.531 284.305 186.831L284.205 186.531C284.005 186.431 284.205 187.131 283.905 186.431C283.905 186.731 283.405 186.431 283.805 187.131C283.305 186.531 283.305 187.031 283.105 187.231C283.505 187.831 283.005 187.531 283.105 187.831C282.805 187.331 283.005 187.231 282.905 186.931C283.105 187.831 282.105 186.631 282.605 187.931L282.505 187.831C282.505 187.831 282.305 187.631 282.205 187.631C282.305 187.831 282.405 187.931 282.305 188.031C282.205 188.031 282.105 187.631 282.005 187.531C282.005 187.931 281.805 188.131 282.005 188.631C281.905 188.531 281.705 188.231 281.705 188.131C281.605 188.631 281.405 188.131 281.305 188.531C281.405 188.531 281.105 187.931 281.305 188.131C280.905 187.431 281.005 188.431 280.605 188.031L280.705 188.531C280.605 188.631 280.505 188.231 280.505 188.031C280.205 187.831 280.205 188.131 280.005 188.131C280.005 188.031 280.005 187.931 280.005 188.031H279.805C279.805 188.131 279.805 188.431 279.905 188.731C279.805 188.531 279.805 188.331 280.005 188.531Z" fill="#322015"/>
<path d="M282.905 190.131C282.805 190.031 282.805 189.931 282.805 189.931C282.805 190.031 282.805 190.131 282.905 190.131Z" fill="#322015"/>
<path d="M277.705 190.131C277.805 190.931 277.805 190.031 278.005 190.231C277.905 190.331 278.005 190.831 278.005 191.031C278.005 190.031 278.205 191.231 278.405 190.931C278.505 191.231 278.305 191.331 278.405 191.631C278.505 191.331 278.705 191.231 278.705 190.631C278.905 190.631 279.105 190.731 279.305 190.631C279.205 190.831 279.405 191.131 279.305 191.631C279.405 190.931 279.605 190.131 279.705 189.331C279.905 189.931 279.905 189.931 280.005 190.531C280.405 190.831 279.905 189.931 280.305 190.031L280.205 189.931C280.305 189.731 280.105 189.131 280.105 188.731L279.805 188.931C279.705 188.531 279.905 188.531 279.905 188.431C279.905 187.931 279.705 188.131 279.605 187.731C279.605 188.031 279.505 188.031 279.505 188.131L279.405 187.931C279.205 187.731 279.305 188.331 279.205 188.331C279.205 188.231 279.205 188.231 279.205 188.231C279.205 188.531 279.205 188.831 279.205 188.931H279.305C279.305 189.431 279.105 189.831 279.405 190.431L279.105 190.331C279.005 189.731 279.005 188.831 279.105 188.731V188.531C278.905 188.231 278.805 189.031 279.005 189.531C279.105 190.931 278.505 189.631 278.405 190.231C278.305 189.831 278.405 189.731 278.505 189.431C278.605 189.331 278.605 189.331 278.705 189.631C279.005 189.331 278.505 188.431 278.805 188.531C279.005 188.731 278.705 189.131 278.905 189.231V188.131C278.805 188.131 278.705 188.331 278.605 188.531C278.405 188.931 278.105 188.931 277.905 188.931C277.705 188.931 277.605 188.731 277.605 188.731C276.705 188.931 275.805 189.031 274.905 188.931C274.605 189.031 274.505 188.931 274.205 189.931C274.205 190.131 274.405 190.131 274.305 190.431C274.405 190.031 274.605 189.831 274.705 189.931C274.705 190.331 274.505 190.131 274.505 190.231C274.405 190.431 274.405 190.531 274.305 190.531C274.405 191.131 274.805 191.031 275.005 190.331C275.105 190.731 274.805 190.931 274.705 191.231C275.205 191.631 275.605 191.531 276.205 191.631C276.205 190.931 276.305 191.231 276.405 190.731V190.931C276.405 190.831 276.505 190.331 276.405 190.231C276.705 190.731 276.805 189.331 276.905 189.031V189.431C277.105 189.331 277.105 189.331 277.205 189.131C277.505 189.831 277.005 189.231 277.105 190.131L277.205 190.031C277.205 190.331 277.105 190.931 277.105 191.231C277.405 190.631 277.505 191.431 277.805 191.031C277.805 191.431 277.505 191.731 277.505 191.831C277.605 191.831 277.805 191.531 277.805 191.931V191.431C278.005 191.331 277.805 191.931 277.905 192.231C277.905 191.931 277.405 190.431 277.705 190.131Z" fill="#322015"/>
<path d="M281.705 189.531C281.605 189.531 281.605 189.531 281.605 189.631C281.705 189.531 281.705 189.531 281.705 189.531Z" fill="#322015"/>
<path d="M281.205 190.631C281.205 190.731 281.205 190.731 281.205 190.831C281.305 190.731 281.305 190.731 281.205 190.631Z" fill="#322015"/>
<path d="M281.405 191.331C281.305 191.131 281.405 191.131 281.305 190.831C281.305 191.031 281.105 191.031 281.405 191.331Z" fill="#322015"/>
<path d="M292.405 182.831C292.305 182.731 292.305 182.531 292.105 182.531V182.731L292.405 182.831Z" fill="#322015"/>
<path d="M291.705 182.831H291.505L292.005 183.331C292.005 183.131 291.605 182.931 291.705 182.831Z" fill="#322015"/>
<path d="M291.205 182.931L291.105 182.831C291.105 182.831 291.105 182.931 291.205 182.931Z" fill="#322015"/>
<path d="M291.405 183.131L291.705 183.431L291.605 183.031L291.405 183.131C291.305 183.031 291.305 183.031 291.205 182.931L291.405 183.131Z" fill="#322015"/>
<path d="M290.305 183.031C290.505 183.131 290.605 183.331 290.805 183.431C291.005 183.431 290.505 182.931 290.805 183.031C291.005 183.431 291.105 183.131 291.305 183.231C290.905 183.031 290.605 182.831 290.305 183.031L290.605 183.131C290.605 183.131 290.505 183.031 290.305 183.031Z" fill="#322015"/>
<path d="M290.405 184.131L290.105 183.731C290.305 183.831 290.405 183.731 290.805 184.031C290.805 183.931 290.605 183.831 290.605 183.631C290.805 183.731 291.005 183.831 290.805 183.531C290.405 183.531 290.305 183.431 290.105 183.531C290.005 183.431 290.105 183.431 290.105 183.431H289.805C290.105 183.831 290.005 184.031 290.405 184.131Z" fill="#322015"/>
<path d="M290.005 184.031C290.105 183.931 289.805 183.531 289.505 183.431C289.505 183.631 289.605 183.731 289.605 183.831C289.605 183.831 289.705 183.731 290.005 184.031Z" fill="#322015"/>
<path d="M289.805 184.231C289.605 184.131 289.105 183.831 289.405 184.231C289.505 184.031 290.005 184.531 289.805 184.231Z" fill="#322015"/>
<path d="M288.805 184.631H289.205C289.705 185.031 289.205 184.831 289.405 185.131C289.605 185.031 289.505 184.931 289.305 184.631C289.405 184.631 289.205 184.331 289.105 184.131C289.305 184.631 288.205 183.631 288.805 184.631Z" fill="#322015"/>
<path d="M289.605 184.631L289.505 184.431V184.631H289.605Z" fill="#322015"/>
<path d="M287.905 184.631C287.305 184.231 288.005 185.131 287.605 185.031C287.605 185.031 287.505 184.931 287.505 184.831L287.405 184.931L287.305 184.831C287.605 185.131 287.605 185.331 287.805 185.631C288.205 185.831 287.505 185.231 287.905 185.431C288.005 185.631 288.205 185.831 288.305 185.931C288.205 185.731 288.105 185.531 287.905 185.331C287.905 185.231 288.105 185.431 288.205 185.531C288.105 185.231 287.705 184.831 287.905 184.831C288.205 185.031 288.305 185.331 288.305 185.031C287.805 184.631 288.505 184.931 288.305 184.631C288.505 184.631 288.805 184.831 289.005 185.031C288.605 184.631 288.405 184.231 288.405 184.131L288.505 184.631L288.005 184.231C288.205 184.531 288.105 184.631 287.905 184.631Z" fill="#322015"/>
<path d="M289.205 185.231L289.305 185.331L289.405 185.431L289.205 185.231Z" fill="#322015"/>
<path d="M288.205 186.231L287.905 186.031L288.105 186.231H288.205Z" fill="#322015"/>
<path d="M285.405 188.031C285.605 188.131 285.405 187.831 285.205 187.531C285.005 187.531 285.405 187.831 285.405 188.031Z" fill="#322015"/>
<path d="M283.805 189.531C284.005 189.731 283.905 189.331 284.105 189.231C283.905 189.131 283.805 189.331 283.805 189.531Z" fill="#322015"/>
<path d="M283.605 191.131C283.605 191.031 283.605 190.931 283.505 190.931L283.305 190.231C283.005 190.031 283.405 190.931 283.605 191.131Z" fill="#322015"/>
<path d="M282.605 191.731L282.705 191.431H282.605C282.505 191.131 282.505 191.031 282.505 190.731C282.405 190.931 282.405 191.231 282.605 191.731Z" fill="#322015"/>
<path d="M282.505 190.531C282.605 190.631 282.605 190.731 282.505 190.531V190.531Z" fill="#322015"/>
<path d="M282.405 190.631C282.505 190.631 282.505 190.631 282.405 190.631C282.405 190.431 282.505 190.531 282.405 190.631Z" fill="#322015"/>
<path d="M282.305 191.431L282.005 191.631L282.205 191.731C282.105 191.231 282.505 191.831 282.305 191.431Z" fill="#322015"/>
<path d="M280.705 191.531L280.605 191.131C280.405 191.031 280.405 192.131 280.105 191.431C280.205 191.631 280.105 191.931 280.305 192.031C280.305 191.531 280.505 191.431 280.705 191.531Z" fill="#322015"/>
<path d="M279.905 191.031C279.905 190.931 279.805 190.831 279.805 190.731C279.705 190.731 279.705 190.931 279.805 191.131C279.605 190.431 279.905 191.431 279.905 191.031Z" fill="#322015"/>
<path d="M279.005 191.231C279.105 191.231 279.105 191.131 279.005 191.031C278.805 191.131 279.005 191.531 278.905 191.931C279.205 192.131 279.205 191.431 279.005 191.231Z" fill="#322015"/>
<path d="M277.405 188.131C277.505 188.531 277.605 188.431 277.605 188.331C277.605 188.331 277.505 188.231 277.405 188.131Z" fill="#322015"/>
<path d="M277.705 191.331L277.805 191.431V190.831L277.705 191.331Z" fill="#322015"/>
</g>
</g>
<path d="M68.1054 276.131C65.7054 274.831 306.505 272.531 320.505 276.131C330.605 278.731 294.005 281.331 250.905 281.231C205.105 281.231 151.905 278.431 137.005 279.931C108.005 282.731 76.2054 280.531 68.1054 276.131Z" fill="#1B1C1E"/>
<path d="M262.805 242.531C254.505 249.431 248.305 269.631 246.305 276.531C245.905 277.931 244.605 278.931 243.105 278.931H237.705C236.105 278.931 234.805 277.731 234.605 276.131C232.305 255.331 239.205 231.831 239.205 231.831C239.205 231.831 245.705 225.631 254.405 227.531C263.205 229.631 277.405 230.331 262.805 242.531Z" fill="#D29F7E"/>
<path d="M237.905 278.731C237.905 278.731 237.405 274.431 238.105 270.931" stroke="#1B1C1E" stroke-width="1.2604" stroke-miterlimit="10" stroke-linecap="round" stroke-linejoin="round"/>
<path d="M242.405 278.331C242.405 278.331 242.605 274.531 243.005 272.831" stroke="#1B1C1E" stroke-width="1.2604" stroke-miterlimit="10" stroke-linecap="round" stroke-linejoin="round"/>
<mask id="mask1_14_768" style="mask-type:luminance" maskUnits="userSpaceOnUse" x="234" y="227" width="36" height="52">
<path d="M262.805 242.531C254.505 249.431 248.305 269.631 246.305 276.531C245.905 277.931 244.605 278.931 243.105 278.931H237.705C236.105 278.931 234.805 277.731 234.605 276.131C232.305 255.331 239.205 231.831 239.205 231.831C239.205 231.831 245.705 225.631 254.405 227.531C263.205 229.631 277.405 230.331 262.805 242.531Z" fill="white"/>
</mask>
<g mask="url(#mask1_14_768)">
<g opacity="0.84">
<path d="M248.305 232.831V232.531C248.405 232.631 248.405 232.731 248.305 232.831Z" fill="#322015"/>
<path d="M253.305 236.631C253.305 236.631 253.305 236.731 253.205 236.731C253.205 236.631 253.305 236.631 253.305 236.631Z" fill="#322015"/>
<path d="M259.705 237.331C259.805 237.331 259.805 237.431 259.705 237.331V237.431C259.705 237.531 259.705 237.431 259.705 237.331Z" fill="#322015"/>
<path d="M258.305 241.531L258.105 241.731C258.205 241.531 258.205 241.531 258.305 241.531Z" fill="#322015"/>
<path d="M260.005 236.431C260.005 236.531 259.905 236.531 259.905 236.631C259.905 236.531 259.905 236.531 260.005 236.431Z" fill="#322015"/>
<path d="M254.305 233.631C254.305 233.731 254.305 233.731 254.305 233.731C254.205 233.731 254.205 233.731 254.305 233.631Z" fill="#322015"/>
<path d="M246.205 232.431C246.105 232.431 246.105 232.331 246.105 232.331C246.205 232.231 246.205 232.231 246.205 232.431Z" fill="#322015"/>
<path d="M258.305 235.831C257.605 236.331 258.405 236.031 257.805 236.531C257.905 236.331 257.905 236.131 257.505 236.431C257.205 236.831 257.705 236.531 257.205 237.031L257.305 236.731C257.005 236.931 256.705 237.331 256.605 237.231C257.205 236.431 256.005 237.131 256.005 236.931V237.031C255.805 237.131 255.705 237.131 255.605 237.231L255.705 237.131C255.305 237.431 255.105 237.631 255.105 237.531C255.205 237.231 255.205 237.231 255.105 237.131C255.005 237.031 254.905 237.031 255.005 236.831C255.005 237.031 255.105 237.031 255.205 236.931L255.405 236.331C255.205 236.331 255.205 236.931 255.205 236.431C255.405 235.831 255.505 236.131 255.505 236.331C255.505 236.431 255.505 236.431 255.605 236.431C255.605 236.331 255.705 236.131 255.605 236.031V235.931H255.705C255.905 235.931 256.305 235.931 255.905 236.731C256.105 236.631 256.305 236.331 256.305 236.231C256.105 236.731 256.705 235.931 256.605 236.431C257.105 235.831 256.505 235.831 256.605 235.331C256.305 235.531 256.205 235.431 256.105 235.331C255.905 235.231 255.905 234.931 255.705 234.831C255.505 235.431 255.505 235.931 255.305 236.231C254.905 236.531 255.205 235.831 255.105 235.431C254.905 235.531 254.705 236.331 254.505 236.331V236.731C254.105 237.431 254.505 236.331 254.305 236.431C254.405 236.231 254.505 236.031 254.605 236.131C254.705 235.831 254.705 235.731 254.605 235.631C254.705 235.231 254.805 234.831 254.605 234.931C254.605 235.431 254.305 235.231 254.205 235.431V235.531C254.105 235.331 254.005 235.331 253.905 235.231V235.331C253.905 235.131 254.005 234.531 253.805 234.631C253.705 234.831 253.705 235.531 253.605 235.431C253.505 235.831 253.705 235.931 253.805 235.831C253.605 235.931 253.405 236.531 253.505 236.531C253.305 236.931 253.405 236.331 253.205 236.431C253.305 236.331 253.305 236.131 253.305 236.031C253.105 236.631 253.005 235.931 253.105 235.531L253.205 235.931C253.405 235.431 253.305 235.031 253.405 234.831C253.105 235.631 253.105 234.331 252.805 234.931L253.005 234.531C252.605 234.631 252.505 233.731 252.205 233.431C252.305 233.731 252.005 234.631 252.305 234.331C251.905 234.431 252.005 235.131 251.705 235.531C251.405 235.731 251.805 234.731 251.805 234.431L251.905 234.631C251.905 233.531 251.205 234.631 251.005 233.931C250.905 234.231 251.005 234.131 251.105 234.231C250.805 234.731 251.005 234.131 250.905 233.831C250.705 233.831 250.405 234.031 250.405 234.731C250.205 234.831 250.505 234.331 250.505 234.131L250.405 234.231V233.431C250.205 233.631 249.905 233.931 249.705 234.531C249.305 234.331 249.905 233.031 249.705 232.731C249.505 233.031 249.605 233.231 249.605 233.431L249.405 233.331C249.305 234.031 249.605 233.731 249.405 234.531C249.405 233.631 249.205 234.231 249.005 233.631V233.531C249.005 232.931 248.605 233.231 248.505 233.131C248.505 233.531 248.705 233.531 248.805 233.731C248.605 233.931 248.205 233.631 248.105 232.831C248.005 232.931 247.705 233.231 247.805 233.531C247.405 233.631 247.805 232.431 247.505 232.631L247.405 233.231C246.905 233.931 246.805 232.431 246.405 233.031L246.505 232.331C246.405 232.631 246.205 232.731 246.105 233.031L246.205 233.331C246.005 233.931 246.105 232.731 245.905 233.131C245.905 232.931 246.205 232.431 246.205 232.231C246.805 232.731 247.705 231.931 248.305 232.731C248.305 232.831 248.205 232.931 248.205 233.031C248.305 232.831 248.405 233.131 248.505 232.731V232.631C248.705 232.831 249.005 232.031 249.105 232.031C249.105 232.531 249.505 231.931 249.305 232.731L249.505 232.231C249.505 232.531 249.405 232.931 249.405 233.131C249.505 233.131 249.605 232.731 249.605 232.531C250.205 232.331 250.705 232.531 251.205 232.931V232.531C251.405 232.331 251.505 233.331 251.605 232.331C251.805 232.731 252.405 232.231 252.105 233.231C252.505 232.331 252.805 233.031 253.105 233.231C252.805 234.031 253.305 233.531 253.305 233.931C253.505 233.331 253.205 233.231 253.305 232.731C253.405 233.831 254.505 232.331 254.105 234.031C254.205 233.931 254.205 233.931 254.205 233.831C254.305 233.831 254.505 233.631 254.505 233.531C254.405 233.831 254.305 233.931 254.405 234.031C254.505 234.031 254.605 233.531 254.705 233.331C254.805 233.731 255.205 234.031 255.005 234.731C255.105 234.531 255.305 234.231 255.305 234.131C255.505 234.831 255.705 234.131 256.005 234.631C255.805 234.531 256.205 233.931 255.905 234.131C256.105 233.731 256.305 233.831 256.505 233.931C256.705 234.131 256.905 234.531 257.305 234.431C257.205 234.631 257.205 234.831 257.105 235.031C257.305 235.331 257.705 234.831 257.605 234.531C258.005 234.531 258.105 234.631 258.105 234.831C258.205 234.931 258.205 235.131 258.305 235.231C258.405 235.231 258.405 235.131 258.405 235.031C258.505 235.131 258.605 235.231 258.705 235.331C258.605 235.431 258.505 235.831 258.205 236.031C258.505 236.131 258.605 235.831 258.305 235.831Z" fill="#322015"/>
<path d="M254.005 236.831C254.105 236.731 254.105 236.631 254.205 236.631C254.205 236.731 254.105 236.731 254.005 236.831Z" fill="#322015"/>
<path d="M259.605 239.831C258.805 240.331 259.605 239.531 259.305 239.531C259.305 239.731 258.805 240.031 258.605 240.131C259.505 239.231 258.305 240.131 258.305 239.631C258.005 239.831 258.005 240.031 257.705 240.331C257.805 240.031 257.805 239.631 258.305 239.231C258.105 238.931 257.805 238.931 257.805 238.731C257.705 239.031 257.305 239.231 256.905 239.631C257.405 238.931 257.905 237.931 258.405 237.031C257.805 237.531 257.705 237.531 257.205 238.031C256.605 238.031 257.705 237.531 257.305 237.331H257.505C257.605 237.031 258.105 236.531 258.405 236.231C258.505 236.331 258.605 236.531 258.605 236.631C259.005 236.331 258.805 236.131 258.805 235.931C259.205 235.431 259.305 235.831 259.605 235.431C259.305 235.731 259.605 235.831 259.505 236.031L259.705 235.831C260.105 235.831 259.605 236.331 259.705 236.531C259.805 236.531 259.805 236.431 259.905 236.431C259.705 236.631 259.405 236.931 259.405 237.131V237.031C259.005 237.531 258.905 238.131 258.205 238.331L258.605 238.531C259.205 238.031 260.005 237.331 259.905 237.031L260.105 236.831C260.605 236.731 260.005 237.631 259.405 237.931C258.105 239.131 259.805 238.531 259.405 239.231C259.805 238.931 259.905 238.731 260.105 238.431C260.105 238.331 260.105 238.231 259.705 238.531C259.705 238.031 261.005 237.731 260.505 237.431C260.205 237.431 260.105 238.131 259.805 237.831L260.705 236.831C260.805 237.031 260.805 237.331 260.705 237.531C260.605 238.831 261.605 238.931 261.605 238.931C262.305 240.231 262.905 241.431 263.505 242.731C263.605 243.231 263.705 243.331 262.605 244.131C262.305 244.131 262.305 243.931 261.905 244.231C262.305 243.931 262.505 243.631 262.305 243.531C261.905 243.731 262.205 243.831 262.105 243.831H262.005C261.805 243.931 261.705 244.131 261.705 244.131C261.005 244.231 260.905 243.831 261.505 243.231C261.005 243.331 260.905 243.731 260.705 244.031C260.005 243.631 259.805 243.131 259.405 242.631C260.105 242.131 259.805 242.231 260.205 241.931L259.905 242.031C260.005 241.931 260.505 241.531 260.705 241.631C259.905 241.631 261.405 240.631 261.505 240.131L261.105 240.431C261.005 240.231 261.005 240.131 261.105 239.831C260.205 239.931 261.205 240.231 260.205 240.731L260.305 240.531C260.005 240.831 259.405 241.231 259.205 241.531C259.605 240.831 258.705 241.231 258.905 240.631C258.505 240.931 258.405 241.431 258.405 241.531C258.305 241.431 258.405 241.031 258.105 241.331L258.605 240.931C258.505 240.731 258.105 241.231 257.805 241.431C257.705 241.131 259.505 240.431 259.605 239.831Z" fill="#322015"/>
<path d="M255.405 236.031C255.505 236.031 255.505 236.031 255.605 236.131C255.505 236.131 255.505 236.031 255.405 236.031Z" fill="#322015"/>
<path d="M255.705 237.431C255.605 237.531 255.605 237.531 255.605 237.631C255.505 237.531 255.605 237.531 255.705 237.431Z" fill="#322015"/>
<path d="M255.105 238.131C255.305 237.931 255.305 237.931 255.505 237.631C255.405 237.731 255.505 237.931 255.105 238.131Z" fill="#322015"/>
<path d="M239.005 234.631C239.005 234.431 238.905 234.231 238.905 234.131L239.105 234.331L239.005 234.631Z" fill="#322015"/>
<path d="M239.505 234.031L239.705 233.831L239.805 234.631C239.505 234.631 239.705 234.031 239.505 234.031Z" fill="#322015"/>
<path d="M240.105 233.931V234.531L239.905 234.031L240.105 233.931C240.005 233.731 240.105 233.731 240.105 233.631V233.931Z" fill="#322015"/>
<path d="M240.905 232.931C240.805 233.131 240.905 233.531 240.905 233.731C240.705 233.931 240.705 233.031 240.505 233.331C240.705 233.831 240.405 233.631 240.205 234.031C240.305 233.431 240.405 233.131 240.705 232.931V233.331C240.905 233.331 240.805 233.031 240.905 232.931Z" fill="#322015"/>
<path d="M241.905 233.931L241.805 233.331C241.705 233.631 241.505 233.531 241.405 234.131C241.305 234.031 241.305 233.831 241.305 233.631C241.205 233.931 241.105 234.131 241.105 233.731C241.505 233.331 241.405 233.231 241.805 233.131C241.805 233.031 241.805 233.031 241.705 233.031L242.005 232.731C241.905 233.431 242.205 233.531 241.905 233.931Z" fill="#322015"/>
<path d="M242.305 233.531C242.105 233.431 242.105 232.931 242.205 232.631L242.505 233.131C242.405 233.031 242.305 233.031 242.305 233.531Z" fill="#322015"/>
<path d="M242.605 233.531C242.705 233.231 242.905 232.631 243.005 233.231C242.705 233.131 242.705 234.031 242.605 233.531Z" fill="#322015"/>
<path d="M243.905 233.231L243.505 233.531C243.305 234.231 243.605 233.831 243.705 234.131C243.405 234.231 243.505 234.031 243.305 233.531C243.205 233.531 243.105 233.131 243.005 232.931C243.505 233.631 243.705 231.831 243.905 233.231Z" fill="#322015"/>
<path d="M243.105 233.831V233.531L243.305 233.831H243.105Z" fill="#322015"/>
<path d="M244.905 232.531C245.205 231.731 245.205 233.131 245.505 232.731C245.505 232.631 245.505 232.631 245.505 232.531L245.705 232.631V232.431C245.605 232.931 245.805 233.231 245.805 233.631C245.505 234.131 245.805 232.931 245.505 233.531C245.505 233.731 245.505 234.131 245.505 234.331C245.405 234.031 245.405 233.731 245.405 233.431C245.305 233.331 245.305 233.631 245.205 233.831C245.105 233.531 245.205 232.731 244.905 232.931C244.705 233.331 244.905 233.631 244.705 233.431C244.905 232.631 244.405 233.531 244.405 233.031C244.205 233.131 244.005 233.631 244.005 233.931C244.105 233.331 244.005 232.731 243.905 232.531L244.205 233.131L244.405 232.431C244.605 232.631 244.705 232.631 244.905 232.531Z" fill="#322015"/>
<path d="M244.005 234.131L244.105 234.231L244.005 234.431V234.131Z" fill="#322015"/>
<path d="M245.905 234.431L246.105 234.031V234.331L245.905 234.431Z" fill="#322015"/>
<path d="M250.305 234.831C250.105 235.031 250.205 234.531 250.305 234.131C250.505 234.131 250.205 234.631 250.305 234.831Z" fill="#322015"/>
<path d="M252.705 236.131C252.505 236.431 252.505 235.931 252.305 235.831C252.505 235.731 252.705 235.931 252.705 236.131Z" fill="#322015"/>
<path d="M253.305 238.231C253.305 238.031 253.305 237.931 253.405 237.931L253.605 237.031C253.805 236.731 253.405 237.831 253.305 238.231Z" fill="#322015"/>
<path d="M254.405 238.731L254.305 238.331H254.405C254.505 237.931 254.505 237.831 254.505 237.431C254.605 237.731 254.605 238.131 254.405 238.731Z" fill="#322015"/>
<path d="M254.405 237.231C254.505 237.331 254.505 237.331 254.405 237.231C254.405 237.431 254.405 237.531 254.405 237.231Z" fill="#322015"/>
<path d="M254.605 237.431V237.531C254.505 237.431 254.505 237.431 254.605 237.431C254.605 237.231 254.505 237.231 254.605 237.431Z" fill="#322015"/>
<path d="M254.705 238.331C254.705 238.431 254.705 238.431 254.705 238.431L254.605 238.531C254.705 238.231 254.705 238.331 254.605 238.431C254.605 238.531 254.505 238.631 254.705 238.331Z" fill="#322015"/>
<path d="M255.605 238.531L256.005 238.231C256.205 238.331 255.505 239.331 256.305 238.831C256.005 238.931 255.905 239.331 255.605 239.231C256.005 238.831 255.805 238.631 255.605 238.531Z" fill="#322015"/>
<path d="M256.805 238.631C256.905 238.531 257.005 238.431 257.205 238.431C257.305 238.431 257.205 238.731 257.005 238.831C257.405 238.231 256.505 239.031 256.805 238.631Z" fill="#322015"/>
<path d="M257.405 239.531C257.405 239.431 257.405 239.331 257.505 239.331C257.605 239.531 257.105 239.831 256.805 240.131C256.505 240.231 257.105 239.631 257.405 239.531Z" fill="#322015"/>
<path d="M261.705 238.431C261.305 238.731 261.205 238.531 261.405 238.331C261.305 238.531 261.505 238.531 261.705 238.431Z" fill="#322015"/>
<path d="M258.505 240.731H258.305L258.905 240.331L258.505 240.731Z" fill="#322015"/>
<path d="M258.805 242.031L258.505 242.331V242.131L258.805 242.031Z" fill="#322015"/>
<path d="M259.105 242.131L259.205 242.331H259.005C258.805 242.331 259.105 242.131 259.105 242.131Z" fill="#322015"/>
<path d="M259.305 242.731H259.205L259.405 242.431L259.305 242.731Z" fill="#322015"/>
<path d="M263.605 244.031C264.005 243.731 263.805 244.131 264.005 244.131C263.905 244.131 263.305 244.331 263.605 244.031Z" fill="#322015"/>
</g>
</g>
<path d="M91.2054 227.631C91.2054 227.631 75.2054 235.331 71.9054 254.331C71.6054 255.931 71.5054 257.631 71.6054 259.331C71.6054 260.431 72.4054 261.431 73.5054 261.631C74.6054 261.831 76.0054 262.031 77.1054 262.231C78.3054 262.431 79.5054 261.931 80.2054 260.931C82.2054 258.031 87.0054 251.931 95.0054 248.631C95.0054 248.631 103.505 248.031 105.905 241.931C108.305 235.831 98.8054 226.131 96.4054 226.131C94.1054 226.231 91.2054 227.631 91.2054 227.631Z" fill="#D29F7E"/>
<path d="M73.8054 261.731C73.8054 261.731 74.3054 257.431 75.2054 255.231" stroke="#1B1C1E" stroke-width="1.2604" stroke-miterlimit="10" stroke-linecap="round" stroke-linejoin="round"/>
<path d="M76.5054 262.231C76.5054 262.231 77.8054 257.331 79.8054 255.531" stroke="#1B1C1E" stroke-width="1.2604" stroke-miterlimit="10" stroke-linecap="round" stroke-linejoin="round"/>
<mask id="mask2_14_768" style="mask-type:luminance" maskUnits="userSpaceOnUse" x="71" y="226" width="36" height="37">
<path d="M91.2054 227.631C91.2054 227.631 75.2054 235.331 71.9054 254.331C71.6054 255.931 71.5054 257.631 71.6054 259.331C71.6054 260.431 72.4054 261.431 73.5054 261.631C74.6054 261.831 76.0054 262.031 77.1054 262.231C78.3054 262.431 79.5054 261.931 80.2054 260.931C82.2054 258.031 87.0054 251.931 95.0054 248.631C95.0054 248.631 103.505 248.031 105.905 241.931C108.305 235.831 98.8054 226.131 96.4054 226.131C94.1054 226.231 91.2054 227.631 91.2054 227.631Z" fill="white"/>
</mask>
<g mask="url(#mask2_14_768)">
<path d="M93.6054 238.931C93.5054 238.931 93.5054 239.031 93.4054 239.031C93.4054 238.931 93.5054 238.931 93.6054 238.931Z" fill="#322015"/>
<path d="M93.4054 232.531H93.7054C93.5054 232.631 93.4054 232.631 93.4054 232.531Z" fill="#322015"/>
<path d="M92.0054 239.431C91.9054 239.531 91.9054 239.531 91.7054 239.631L92.0054 239.431Z" fill="#322015"/>
<path d="M94.0054 245.031V245.131C93.9054 245.131 94.0054 245.031 94.0054 245.031Z" fill="#322015"/>
<path d="M93.7054 244.831C93.6054 244.931 93.6054 244.931 93.7054 244.831V244.831Z" fill="#322015"/>
<path d="M94.7054 244.431C94.6054 244.431 94.6054 244.531 94.5054 244.531C94.5054 244.531 94.6054 244.431 94.7054 244.431Z" fill="#322015"/>
<path d="M93.7054 238.931H93.6054C93.7054 238.831 93.7054 238.831 93.7054 238.931Z" fill="#322015"/>
<path d="M93.6054 230.231C93.6054 230.131 93.7054 230.131 93.7054 230.031C93.7054 230.131 93.7054 230.231 93.6054 230.231Z" fill="#322015"/>
<path d="M93.8054 243.031C93.0054 243.031 93.8054 243.231 93.1054 243.231C93.3054 243.131 93.4054 243.031 93.0054 242.931C92.6054 243.031 93.0054 243.131 92.4054 243.231L92.6054 243.031C92.3054 242.931 91.8054 243.131 91.8054 243.031C92.7054 242.831 91.5054 242.531 91.6054 242.331L91.5054 242.431L91.1054 242.131C91.1054 242.131 91.2054 242.131 91.3054 242.131C90.9054 242.031 90.6054 241.831 90.7054 241.631C91.2054 241.531 90.9054 240.931 91.3054 240.831C91.2054 240.931 91.2054 241.031 91.3054 241.131H91.9054C91.9054 240.931 91.4054 241.131 91.7054 240.931C92.5054 240.931 91.7054 241.231 91.8054 241.331C92.0054 241.231 92.1054 241.231 92.2054 241.131C92.2054 241.431 92.5054 241.731 91.7054 241.931C91.9054 242.031 92.2054 241.931 92.3054 241.931C91.8054 242.131 92.8054 242.031 92.3054 242.231C93.0054 242.131 92.7054 241.831 93.1054 241.631C92.5054 241.331 93.1054 241.031 93.2054 240.731C92.7054 240.731 92.2054 240.931 91.9054 240.831C91.5054 240.531 92.2054 240.531 92.5054 240.331C92.3054 240.131 91.6054 240.331 91.6054 240.031L91.2054 240.231C90.4054 240.031 91.5054 240.031 91.3054 239.931C91.5054 239.931 91.7054 239.931 91.7054 240.131C92.0054 240.131 92.1054 240.031 92.1054 239.931C92.5054 239.831 92.9054 239.831 92.7054 239.631C92.2054 239.731 92.4054 239.431 92.1054 239.431L92.0054 239.531C92.2054 239.331 92.1054 239.231 92.2054 239.131H92.1054C92.3054 239.031 92.9054 238.931 92.7054 238.831C92.5054 238.831 91.9054 239.031 92.0054 238.831C91.7054 238.831 91.6054 239.031 91.8054 239.231C91.7054 239.031 91.1054 238.931 91.1054 239.231C90.7054 239.131 91.3054 239.031 91.1054 238.931C91.2054 238.931 91.4054 238.931 91.5054 238.931C90.9054 238.931 91.5054 238.531 91.9054 238.531L91.6054 238.731C92.1054 238.731 92.4054 238.531 92.6054 238.631C91.9054 238.531 93.0054 238.131 92.3054 238.031L92.7054 238.131C92.5054 237.731 93.3054 237.431 93.5054 237.031C93.3054 237.131 92.5054 237.131 92.7054 237.431C92.5054 237.031 91.9054 237.331 91.5054 237.131C91.2054 236.831 92.3054 237.031 92.5054 236.931H92.3054C93.2054 236.731 92.1054 236.131 92.7054 235.731C92.5054 235.731 92.6054 235.831 92.5054 235.831C92.0054 235.631 92.6054 235.631 92.8054 235.531C92.7054 235.331 92.5054 235.131 91.9054 235.231C91.8054 235.031 92.3054 235.231 92.4054 235.131H92.3054L93.0054 234.931C92.8054 234.731 92.5054 234.531 91.9054 234.431C92.0054 234.031 93.2054 234.331 93.5054 234.031C93.2054 233.831 93.0054 234.031 92.8054 234.031L92.9054 233.731C92.2054 233.831 92.6054 234.031 91.8054 234.031C92.6054 233.831 92.0054 233.731 92.6054 233.431H92.7054C93.2054 233.331 92.9054 233.031 93.0054 232.831C92.7054 232.931 92.6054 233.131 92.5054 233.231C92.3054 233.031 92.5054 232.531 93.2054 232.331C93.1054 232.231 92.8054 231.931 92.5054 232.131C92.4054 231.731 93.5054 232.031 93.3054 231.631H92.8054C92.1054 231.231 93.5054 230.931 92.9054 230.531H93.5054C93.2054 230.431 93.1054 230.231 92.9054 230.231L92.7054 230.431C92.2054 230.231 93.2054 230.331 92.9054 230.031C93.1054 230.031 93.5054 230.231 93.7054 230.231C93.3054 231.031 94.1054 231.831 93.4054 232.531C93.3054 232.531 93.2054 232.431 93.1054 232.431C93.2054 232.531 93.1054 232.631 93.4054 232.631C93.2054 232.831 94.0054 233.031 94.0054 233.231C93.6054 233.331 94.2054 233.631 93.4054 233.531L93.9054 233.731C93.6054 233.731 93.3054 233.731 93.1054 233.831C93.2054 233.931 93.4054 234.031 93.6054 233.931C93.9054 234.531 93.8054 235.131 93.5054 235.631L93.9054 235.531C94.1054 235.631 93.3054 236.031 94.2054 235.931C93.8054 236.231 94.4054 236.631 93.5054 236.631C94.4054 236.831 93.9054 237.331 93.7054 237.631C92.9054 237.531 93.5054 237.931 93.1054 238.031C93.7054 238.131 93.7054 237.731 94.1054 237.731C93.1054 238.131 94.8054 238.831 93.2054 238.931C93.3054 238.931 93.3054 238.931 93.4054 238.931C93.4054 239.031 93.7054 239.131 93.7054 239.231C93.4054 239.231 93.3054 239.131 93.2054 239.331C93.3054 239.431 93.7054 239.431 93.9054 239.431C93.5054 239.731 93.4054 240.131 92.8054 240.231C93.0054 240.331 93.3054 240.431 93.4054 240.331C92.9054 240.731 93.5054 240.731 93.2054 241.231C93.2054 241.031 93.9054 241.131 93.6054 240.931C94.5054 241.131 93.4054 241.631 93.9054 241.931L93.3054 242.131C93.2054 242.331 93.7054 242.331 93.9054 242.231C94.3054 242.631 93.9054 242.731 93.9054 243.031C94.0054 243.031 94.1054 243.031 94.1054 243.031V243.431C94.0054 243.431 93.7054 243.631 93.3054 243.631C93.8054 243.331 94.0054 243.231 93.8054 243.031Z" fill="#322015"/>
<path d="M91.0054 239.731C91.1054 239.731 91.2054 239.831 91.2054 239.831C91.1054 239.831 91.0054 239.831 91.0054 239.731Z" fill="#322015"/>
<path d="M92.7054 247.131C91.8054 247.131 92.8054 246.831 92.6054 246.731C92.5054 246.931 92.0054 246.931 91.7054 246.931C92.8054 246.631 91.5054 246.731 91.7054 246.331C91.3054 246.331 91.3054 246.531 90.9054 246.631C91.2054 246.431 91.3054 246.031 91.9054 246.031C91.9054 245.631 91.7054 245.431 91.7054 245.231C91.5054 245.531 91.1054 245.331 90.6054 245.531C91.3054 245.231 92.2054 244.631 93.0054 244.231C92.3054 244.231 92.2054 244.231 91.6054 244.231C91.1054 243.831 92.2054 244.131 92.0054 243.731L92.1054 243.931C92.3054 243.731 92.9054 243.731 93.4054 243.631L93.3054 244.131C93.8054 244.131 93.7054 243.831 93.8054 243.731C94.4054 243.531 94.2054 243.931 94.7054 243.931C94.3054 244.031 94.5054 244.231 94.3054 244.331H94.6054C94.9054 244.531 94.2054 244.731 94.3054 244.931C94.4054 244.931 94.4054 244.931 94.5054 244.931C94.2054 245.031 93.9054 245.131 93.8054 245.231V245.131C93.2054 245.331 92.8054 245.731 92.2054 245.531L92.4054 246.031C93.1054 245.931 94.1054 245.831 94.1054 245.531H94.4054C94.8054 245.731 93.9054 246.131 93.3054 246.031C91.7054 246.331 93.3054 246.731 92.6054 247.131C93.0054 247.131 93.2054 246.931 93.5054 246.831C93.5054 246.731 93.5054 246.631 93.2054 246.631C93.4054 246.131 94.6054 246.631 94.4054 246.131C94.2054 245.931 93.7054 246.431 93.6054 246.131L94.8054 245.831C94.8054 246.031 94.6054 246.231 94.5054 246.431C93.8054 247.531 94.5054 248.131 94.5054 248.131C94.5054 248.831 94.5054 249.631 94.6054 250.331C94.6054 251.031 94.7054 251.731 94.8054 252.231C94.7054 252.531 94.7054 252.431 94.0054 253.331C93.7054 253.431 93.6054 253.131 93.4054 253.431C93.7054 253.131 93.9054 252.931 93.8054 252.731C93.4054 252.831 93.7054 253.031 93.6054 253.031C93.4054 253.131 93.3054 253.231 93.3054 253.331C92.5054 253.331 92.5054 252.631 93.2054 252.231C92.7054 252.131 92.6054 252.531 92.3054 252.831C91.7054 252.031 91.7054 251.431 91.5054 250.631C92.3054 250.531 92.0054 250.431 92.5054 250.331H92.2054C92.3054 250.331 92.8054 250.131 93.0054 250.331C92.4054 249.931 93.9054 249.631 94.2054 249.331L93.8054 249.431C93.8054 249.131 93.8054 249.131 94.0054 248.831C93.2054 248.531 93.9054 249.231 92.9054 249.231L93.0054 249.131C92.6054 249.231 92.0054 249.331 91.7054 249.531C92.3054 249.031 91.4054 248.931 91.8054 248.531C91.4054 248.631 91.1054 249.031 91.0054 249.131C90.9054 249.031 91.2054 248.731 90.8054 248.731L91.3054 248.631C91.3054 248.331 90.8054 248.731 90.4054 248.631C90.6054 247.331 92.4054 247.731 92.7054 247.131Z" fill="#322015"/>
<path d="M92.1054 240.931C92.1054 241.031 92.1054 241.031 92.1054 241.131C92.0054 241.031 92.0054 241.031 92.1054 240.931Z" fill="#322015"/>
<path d="M90.3054 242.331C90.6054 242.331 90.6054 242.231 90.9054 242.231C90.7054 242.331 90.7054 242.531 90.3054 242.331Z" fill="#322015"/>
<path d="M92.5054 225.931C92.6054 225.731 93.1054 225.731 93.4054 225.831L92.9054 226.231C93.0054 226.131 93.0054 226.031 92.5054 225.931Z" fill="#322015"/>
<path d="M92.5054 226.231C92.8054 226.331 93.3054 226.531 92.8054 226.631C92.9054 226.431 92.1054 226.431 92.5054 226.231Z" fill="#322015"/>
<path d="M92.8054 227.831L92.5054 227.431C91.8054 227.231 92.3054 227.631 92.0054 227.631C91.9054 227.231 92.1054 227.431 92.6054 227.231C92.6054 227.131 92.9054 227.031 93.1054 226.931C92.4054 227.331 94.0054 227.531 92.8054 227.831Z" fill="#322015"/>
<path d="M92.2054 226.931H92.5054L92.2054 227.031V226.931Z" fill="#322015"/>
<path d="M93.4054 228.831C94.2054 229.131 92.9054 229.231 93.2054 229.531C93.2054 229.531 93.3054 229.531 93.4054 229.531L93.3054 229.731H93.5054C93.0054 229.631 92.8054 229.931 92.4054 229.931C91.9054 229.631 93.0054 229.831 92.5054 229.631C92.3054 229.631 92.0054 229.631 91.8054 229.731C92.1054 229.631 92.3054 229.631 92.6054 229.531C92.7054 229.431 92.4054 229.431 92.2054 229.331C92.5054 229.231 93.2054 229.231 93.1054 228.931C92.7054 228.731 92.4054 228.931 92.6054 228.731C93.3054 228.931 92.5054 228.431 93.0054 228.331C92.9054 228.131 92.4054 227.931 92.2054 227.931C92.8054 228.031 93.3054 227.831 93.5054 227.731L93.0054 228.031L93.7054 228.231C93.2054 228.431 93.3054 228.631 93.4054 228.831Z" fill="#322015"/>
<path d="M91.8054 229.631C91.8054 229.631 91.7054 229.631 91.7054 229.731C91.7054 229.731 91.7054 229.731 91.8054 229.631Z" fill="#322015"/>
<path d="M92.0054 227.931L91.8054 228.031L91.6054 227.931H92.0054Z" fill="#322015"/>
<path d="M91.3054 229.831C91.3054 229.731 91.5054 229.831 91.5054 229.831H91.3054Z" fill="#322015"/>
<path d="M91.7054 230.031L92.1054 230.231H91.8054L91.7054 230.031Z" fill="#322015"/>
<path d="M91.8054 235.031C91.6054 234.831 92.0054 234.931 92.4054 234.931C92.5054 235.131 92.0054 234.831 91.8054 235.031Z" fill="#322015"/>
<path d="M91.2054 238.131C90.9054 237.931 91.4054 237.831 91.3054 237.631C91.5054 237.731 91.4054 237.931 91.2054 238.131Z" fill="#322015"/>
<path d="M89.5054 239.431C89.7054 239.431 89.7054 239.331 89.8054 239.431L90.6054 239.231C91.0054 239.431 89.9054 239.431 89.5054 239.431Z" fill="#322015"/>
<path d="M89.4054 240.931L89.7054 240.731V240.831C90.0054 240.731 90.2054 240.731 90.5054 240.631C90.4054 240.731 90.0054 240.931 89.4054 240.931Z" fill="#322015"/>
<path d="M90.7054 240.331C90.7054 240.431 90.7054 240.431 90.7054 240.331C90.4054 240.431 90.5054 240.431 90.7054 240.331Z" fill="#322015"/>
<path d="M90.6054 240.531C90.7054 240.431 90.8054 240.531 90.6054 240.531V240.531Z" fill="#322015"/>
<path d="M89.9054 241.131L89.8054 241.531L89.6054 241.331C90.1054 241.331 89.3054 241.131 89.9054 241.131Z" fill="#322015"/>
<path d="M90.3054 243.331H90.8054C90.9054 243.631 89.8054 243.931 90.7054 244.131C90.4054 244.031 90.1054 244.331 90.0054 244.031C90.4054 243.931 90.5054 243.531 90.3054 243.331Z" fill="#322015"/>
<path d="M91.1054 244.231C91.2054 244.231 91.4054 244.231 91.5054 244.231C91.6054 244.331 91.3054 244.431 91.1054 244.431C91.8054 244.331 90.7054 244.431 91.1054 244.231Z" fill="#322015"/>
<path d="M91.1054 245.531C91.1054 245.431 91.1054 245.331 91.3054 245.431C91.3054 245.631 90.7054 245.631 90.4054 245.731C90.1054 245.631 90.9054 245.331 91.1054 245.531Z" fill="#322015"/>
<path d="M95.0054 247.031C94.6054 247.031 94.6054 246.831 94.8054 246.831C94.7054 246.931 94.8054 247.031 95.0054 247.031Z" fill="#322015"/>
<path d="M91.4054 247.431L91.3054 247.331L91.9054 247.231L91.4054 247.431Z" fill="#322015"/>
<path d="M91.2054 248.831L90.8054 249.031V248.831H91.2054Z" fill="#322015"/>
<path d="M91.3054 249.131V249.331L91.1054 249.231C91.0054 249.131 91.3054 249.131 91.3054 249.131Z" fill="#322015"/>
<path d="M91.3054 249.831C91.3054 249.831 91.3054 249.831 91.2054 249.731L91.5054 249.431L91.3054 249.831Z" fill="#322015"/>
<path d="M94.7054 252.231C95.0054 251.931 94.9054 252.131 95.0054 252.031C94.9054 252.131 94.5054 252.531 94.7054 252.231Z" fill="#322015"/>
</g>
<path d="M93.1054 112.331C90.6054 114.631 87.5054 118.931 87.7054 126.031C87.7054 126.031 109.805 111.931 100.105 110.231C97.6054 109.731 95.0054 110.631 93.1054 112.331Z" fill="#1B1C1E"/>
<path d="M123.905 160.231C123.905 160.231 121.605 179.231 140.105 184.431C158.605 189.631 231.905 181.431 256.005 179.931C275.805 178.631 287.705 189.731 286.605 209.031C286.105 218.931 286.205 226.031 286.705 231.031C287.505 240.031 294.605 259.531 297.805 265.431C299.405 268.431 298.805 272.031 296.505 274.431L295.405 275.431C293.705 277.031 291.205 277.331 289.205 276.031C284.105 272.631 274.005 263.831 262.805 242.731C262.605 242.331 262.305 241.831 262.105 241.331C260.005 237.331 258.105 235.431 258.105 235.431C258.105 235.431 252.405 232.831 238.905 232.631C228.405 232.531 213.305 233.831 192.405 239.031C160.305 247.031 128.305 247.331 121.405 243.431C121.405 243.431 116.605 254.431 116.605 276.031C116.605 277.931 115.105 279.431 113.205 279.531L108.405 279.731C106.905 279.831 105.505 278.931 104.805 277.631C104.405 276.831 103.905 275.731 103.305 274.431C101.105 269.531 98.0054 261.331 95.1054 249.331C93.7054 243.431 92.4054 236.631 91.2054 228.931C91.1054 228.231 91.0054 227.631 90.9054 226.931C86.3054 192.431 90.5054 160.731 90.5054 160.731C90.5054 160.731 53.7054 173.031 45.0054 147.331C44.1054 144.731 45.9054 141.931 48.6054 141.731C49.0054 141.731 49.5054 141.731 50.0054 141.731C56.5054 141.931 75.3054 143.131 82.5054 129.331C87.8054 119.331 96.7054 107.631 107.905 109.131C108.405 109.231 108.805 109.231 109.305 109.331C109.705 109.431 123.605 127.131 123.905 160.231Z" fill="#D29F7E"/>
<path d="M95.1054 248.731C93.8054 243.031 92.5054 236.431 91.4054 229.031C91.3054 228.631 91.3054 228.331 91.2054 227.931" stroke="#1B1C1E" stroke-width="1.2604" stroke-miterlimit="10" stroke-linecap="round" stroke-linejoin="round"/>
<path d="M109.705 109.431C109.705 109.431 106.705 109.431 108.105 116.231C109.205 121.931 111.205 127.931 107.705 143.831C103.705 161.931 112.905 166.131 123.105 161.631C133.405 157.131 131.605 147.131 129.605 137.431C127.605 127.731 118.905 108.531 109.705 109.431Z" fill="#1B1C1E"/>
<path d="M44.0054 144.531C43.9054 142.931 45.2054 141.531 46.8054 141.431C49.1054 141.331 52.7054 141.231 54.6054 141.031C57.5054 140.731 58.9054 144.931 54.7054 149.631C50.5054 154.331 46.3054 152.231 44.6054 147.131C44.2054 146.131 44.1054 145.331 44.0054 144.531Z" fill="#1B1C1E"/>
<path d="M74.1054 163.731C74.1054 163.731 83.7054 163.531 84.7054 150.531" stroke="#1B1C1E" stroke-width="1.2604" stroke-linecap="round" stroke-linejoin="round"/>
<path d="M82.9054 149.931C82.9054 149.931 84.6054 151.231 86.4054 150.731" stroke="#1B1C1E" stroke-width="1.2604" stroke-miterlimit="10" stroke-linecap="round" stroke-linejoin="round"/>
<path d="M90.4054 137.631C90.2054 139.031 89.1054 140.131 88.1054 139.931C87.1054 139.731 86.6054 138.531 86.8054 137.031C87.0054 135.631 88.0054 134.531 89.0054 134.731C90.0054 134.931 90.6054 136.231 90.4054 137.631Z" fill="#1B1C1E"/>
<path d="M127.005 233.331C127.005 233.331 123.805 238.131 121.405 243.631" stroke="#1B1C1E" stroke-width="1.2604" stroke-miterlimit="10" stroke-linecap="round" stroke-linejoin="round"/>
<path d="M258.205 235.531C258.205 235.531 254.605 230.731 252.205 223.931" stroke="#1B1C1E" stroke-width="1.2604" stroke-miterlimit="10" stroke-linecap="round" stroke-linejoin="round"/>
<path d="M125.905 172.631C120.105 175.531 114.405 177.231 109.505 178.231C101.105 179.931 95.1054 179.531 95.1054 179.531C96.0054 178.431 96.6054 176.931 96.7054 175.231C96.7054 174.331 96.6054 173.531 96.3054 172.731C96.3054 172.731 113.205 171.531 124.005 166.531C124.405 168.331 125.005 170.431 125.905 172.631Z" fill="#D1493B"/>
<path d="M113.105 279.531C113.105 279.531 113.005 272.531 112.905 270.731" stroke="#1B1C1E" stroke-width="1.2604" stroke-miterlimit="10" stroke-linecap="round" stroke-linejoin="round"/>
<path d="M294.905 276.231C294.905 276.231 291.805 274.331 289.605 271.931" stroke="#1B1C1E" stroke-width="1.2604" stroke-miterlimit="10" stroke-linecap="round" stroke-linejoin="round"/>
<path d="M297.305 274.031C297.305 274.031 295.205 271.731 293.905 269.831" stroke="#1B1C1E" stroke-width="1.2604" stroke-miterlimit="10" stroke-linecap="round" stroke-linejoin="round"/>
<path d="M109.305 279.931C109.105 279.231 108.205 276.831 106.905 272.231" stroke="#1B1C1E" stroke-width="1.2604" stroke-miterlimit="10" stroke-linecap="round" stroke-linejoin="round"/>
<path d="M97.4054 176.031C97.3054 179.931 94.6054 182.931 91.5054 182.831C90.4054 182.831 89.4054 182.331 88.5054 181.731C86.9054 180.431 85.9054 178.231 86.0054 175.731C86.1054 171.831 88.8054 168.831 91.9054 168.931C93.8054 169.031 95.4054 170.131 96.4054 171.931C97.1054 173.031 97.5054 174.531 97.4054 176.031Z" fill="#FFAE1F"/>
<path d="M96.5054 171.831C97.2054 173.031 97.5054 174.431 97.5054 176.031C97.4054 179.931 94.7054 182.931 91.6054 182.831C90.5054 182.831 89.5054 182.331 88.6054 181.731" stroke="#1B1C1E" stroke-width="1.2604" stroke-miterlimit="10" stroke-linecap="round" stroke-linejoin="round"/>
<mask id="mask3_14_768" style="mask-type:luminance" maskUnits="userSpaceOnUse" x="90" y="151" width="13" height="18">
<path d="M99.3054 166.431C94.3054 170.731 90.0054 167.731 90.0054 167.731C90.4054 163.331 90.7054 160.831 90.7054 160.831C90.7054 160.831 95.5054 159.631 100.005 154.831L102.505 151.431C102.605 151.431 104.305 162.131 99.3054 166.431Z" fill="white"/>
</mask>
<g mask="url(#mask3_14_768)">
<g opacity="0.88">
<path d="M95.6054 158.731C95.6054 158.831 95.6054 158.831 95.7054 158.931C95.7054 158.931 95.7054 158.831 95.6054 158.731Z" fill="#322015"/>
<path d="M98.7054 156.131L98.5054 155.931C98.5054 156.031 98.6054 156.131 98.7054 156.131Z" fill="#322015"/>
<path d="M96.3054 160.131C96.3054 160.231 96.3054 160.331 96.4054 160.431L96.3054 160.131Z" fill="#322015"/>
<path d="M91.8054 163.931L91.9054 164.131C91.9054 164.131 91.9054 164.031 91.8054 163.931Z" fill="#322015"/>
<path d="M92.4054 159.931C92.4054 160.031 92.4054 160.031 92.5054 160.131C92.4054 160.031 92.5054 159.931 92.4054 159.931Z" fill="#322015"/>
<path d="M99.5054 154.831V154.731C99.4054 154.731 99.4054 154.831 99.5054 154.831Z" fill="#322015"/>
<path d="M93.5054 160.131C93.9054 160.731 93.4054 160.231 93.7054 160.731C93.7054 160.531 93.7054 160.431 93.9054 160.731C94.0054 161.031 93.7054 160.731 94.0054 161.231V161.031C94.2054 161.231 94.3054 161.631 94.4054 161.631C94.1054 160.931 94.9054 161.731 94.9054 161.531V161.631L95.2054 161.831C95.2054 161.831 95.2054 161.731 95.1054 161.731C95.4054 162.031 95.6054 162.131 95.7054 162.031C95.5054 161.631 96.0054 161.631 95.9054 161.331C95.9054 161.431 95.9054 161.531 95.7054 161.431L95.4054 161.031C95.5054 160.931 95.7054 161.431 95.6054 161.131C95.2054 160.531 95.4054 161.231 95.3054 161.231C95.2054 161.031 95.2054 160.931 95.2054 160.831C95.0054 160.931 94.7054 160.831 95.0054 161.431C94.9054 161.331 94.7054 161.031 94.7054 161.031C94.8054 161.431 94.4054 160.731 94.5054 161.131C94.2054 160.531 94.5054 160.731 94.4054 160.331C94.8054 160.631 94.7054 160.131 94.8054 159.931C95.1054 160.331 95.2054 160.731 95.4054 160.931C95.7054 161.031 95.4054 160.631 95.3054 160.331C95.5054 160.431 95.8054 160.931 96.0054 160.831L96.1054 161.131C96.6054 161.631 96.0054 160.831 96.2054 160.931C96.1054 160.831 96.0054 160.631 95.9054 160.731C95.7054 160.531 95.7054 160.431 95.8054 160.331C95.6054 160.031 95.4054 159.731 95.6054 159.831C95.8054 160.231 95.9054 160.031 96.0054 160.131V160.231C96.0054 160.031 96.1054 160.031 96.1054 159.931L96.2054 160.031C96.2054 159.831 95.9054 159.431 96.0054 159.431C96.1054 159.631 96.4054 160.131 96.4054 159.931C96.6054 160.131 96.5054 160.331 96.3054 160.231C96.5054 160.231 96.8054 160.631 96.7054 160.731C97.0054 161.031 96.7054 160.531 96.9054 160.631C96.8054 160.531 96.7054 160.431 96.7054 160.331C97.0054 160.731 96.9054 160.231 96.7054 159.931L96.8054 160.231C96.5054 159.931 96.5054 159.631 96.3054 159.431C96.8054 159.931 96.4054 158.931 96.8054 159.331L96.5054 159.131C96.8054 159.131 96.5054 158.431 96.5054 158.131C96.6054 158.331 97.1054 158.831 96.8054 158.831C97.1054 158.731 97.4054 159.331 97.7054 159.531C98.0054 159.531 97.3054 158.931 97.2054 158.731V158.931C96.7054 158.231 97.7054 158.731 97.5054 158.131C97.7054 158.231 97.6054 158.231 97.6054 158.331C98.0054 158.531 97.6054 158.231 97.5054 158.031C97.6054 158.031 97.9054 158.031 98.2054 158.431C98.4054 158.431 98.0054 158.231 97.9054 158.031L98.0054 158.131L97.7054 157.631C97.9054 157.631 98.2054 157.731 98.6054 158.031C98.7054 157.731 97.8054 157.231 97.7054 156.931C98.0054 157.031 98.0054 157.231 98.1054 157.331L98.2054 157.131C98.6054 157.531 98.3054 157.531 98.8054 157.931C98.4054 157.331 98.8054 157.631 98.6054 157.231H98.5054C98.2054 156.831 98.6054 156.931 98.6054 156.731C98.8054 156.931 98.7054 157.031 98.8054 157.231C99.1054 157.231 99.1054 156.831 98.7054 156.431C98.8054 156.431 99.1054 156.431 99.2054 156.631C99.4054 156.431 98.6054 156.031 98.8054 155.931L99.2054 156.231C99.9054 156.431 99.0054 155.431 99.6054 155.631L99.1054 155.331C99.3054 155.431 99.5054 155.431 99.7054 155.531L99.8054 155.731C100.305 155.931 99.5054 155.431 99.8054 155.431C99.7054 155.331 99.3054 155.231 99.1054 155.131C99.1054 155.731 98.1054 155.631 98.3054 156.431C98.4054 156.431 98.4054 156.531 98.5054 156.531C98.4054 156.531 98.4054 156.631 98.2054 156.431C98.2054 156.631 97.6054 156.231 97.6054 156.331C97.9054 156.631 97.3054 156.431 97.9054 156.831L97.5054 156.631C97.7054 156.831 97.9054 157.031 98.0054 157.131C97.9054 157.131 97.7054 157.031 97.6054 156.831C97.2054 156.931 97.0054 157.331 96.9054 157.731L96.7054 157.431C96.5054 157.431 96.9054 158.031 96.4054 157.431C96.5054 157.731 95.9054 157.631 96.5054 158.131C95.9054 157.631 96.0054 158.131 95.9054 158.431C96.4054 158.931 95.9054 158.731 96.1054 159.031C95.7054 158.631 95.9054 158.431 95.6054 158.231C96.0054 159.031 94.7054 158.231 95.5054 159.331C95.4054 159.331 95.4054 159.231 95.4054 159.231C95.4054 159.231 95.2054 159.131 95.1054 159.131C95.2054 159.331 95.4054 159.331 95.4054 159.531C95.3054 159.531 95.1054 159.231 95.0054 159.131C95.1054 159.431 94.9054 159.731 95.3054 160.231C95.2054 160.131 94.9054 159.931 94.9054 159.831C95.0054 160.331 94.6054 159.931 94.6054 160.331C94.7054 160.231 94.3054 159.831 94.5054 159.931C94.0054 159.331 94.2054 160.231 93.8054 160.031L94.0054 160.531C93.9054 160.631 93.7054 160.231 93.6054 160.031C93.3054 159.931 93.3054 160.231 93.2054 160.331C93.2054 160.331 93.1054 160.231 93.2054 160.231L93.0054 160.331C93.0054 160.431 93.1054 160.731 93.3054 161.031C93.4054 160.231 93.3054 160.031 93.5054 160.131Z" fill="#322015"/>
<path d="M96.7054 160.931C96.6054 160.831 96.5054 160.831 96.5054 160.831C96.6054 160.831 96.6054 160.931 96.7054 160.931Z" fill="#322015"/>
<path d="M91.7054 162.331C92.0054 163.031 91.8054 162.131 92.0054 162.331C91.9054 162.431 92.1054 162.931 92.2054 163.131C92.0054 162.131 92.4054 163.231 92.6054 162.931C92.7054 163.231 92.6054 163.331 92.8054 163.631C92.8054 163.331 93.0054 163.131 92.8054 162.631C93.0054 162.531 93.3054 162.631 93.4054 162.531C93.3054 162.831 93.6054 163.031 93.7054 163.531C93.6054 162.831 93.6054 162.031 93.4054 161.231C93.7054 161.731 93.8054 161.831 94.0054 162.331C94.5054 162.531 93.8054 161.831 94.1054 161.831H93.9054C93.9054 161.631 93.6054 161.131 93.5054 160.731L93.3054 160.931C93.1054 160.531 93.3054 160.531 93.3054 160.431C93.1054 159.931 93.0054 160.231 92.8054 159.831C92.9054 160.131 92.8054 160.131 92.8054 160.231L92.7054 160.031C92.5054 159.931 92.7054 160.431 92.6054 160.431C92.6054 160.331 92.5054 160.331 92.5054 160.331C92.6054 160.531 92.7054 160.831 92.6054 160.931C92.7054 161.431 92.6054 161.831 93.1054 162.331H92.7054C92.5054 161.831 92.2054 160.931 92.3054 160.831L92.2054 160.631C92.0054 160.331 92.1054 161.231 92.4054 161.631C92.9054 162.931 92.0054 161.831 92.0054 162.531C91.8054 162.131 91.9054 162.031 91.8054 161.731C91.8054 161.631 91.9054 161.631 92.0054 161.931C92.2054 161.631 91.5054 160.831 91.8054 160.831C92.0054 160.931 91.9054 161.431 92.1054 161.431L91.8054 160.431C91.7054 160.531 91.7054 160.731 91.6054 160.931C91.5054 161.431 91.2054 161.531 91.0054 161.531C90.8054 161.531 90.7054 161.431 90.7054 161.431C89.9054 161.831 89.1054 162.131 88.2054 162.331C87.9054 162.531 87.9054 162.431 87.8054 163.531C87.9054 163.731 88.1054 163.631 88.0054 164.031C88.0054 163.631 88.1054 163.431 88.3054 163.431C88.4054 163.831 88.2054 163.631 88.2054 163.731C88.2054 163.931 88.2054 164.031 88.1054 164.031C88.3054 164.631 88.7054 164.431 88.7054 163.631C88.9054 164.031 88.7054 164.231 88.6054 164.531C89.2054 164.731 89.6054 164.631 90.2054 164.531C90.0054 163.831 90.2054 164.131 90.1054 163.631L90.2054 163.831C90.1054 163.731 90.1054 163.231 90.0054 163.131C90.4054 163.531 90.1054 162.131 90.2054 161.831L90.3054 162.131C90.4054 162.031 90.5054 162.031 90.6054 161.831C91.1054 162.431 90.4054 162.031 90.7054 162.831V162.631C90.8054 162.931 90.9054 163.531 90.9054 163.831C91.0054 163.231 91.4054 163.931 91.5054 163.431C91.6054 163.831 91.4054 164.231 91.4054 164.231C91.5054 164.231 91.6054 163.931 91.7054 164.231L91.6054 163.731C91.8054 163.631 91.7054 164.131 91.9054 164.431C92.4054 164.031 91.5054 162.731 91.7054 162.331Z" fill="#322015"/>
<path d="M95.5054 160.631C95.4054 160.631 95.4054 160.631 95.5054 160.631C95.4054 160.631 95.4054 160.731 95.5054 160.631Z" fill="#322015"/>
<path d="M95.6054 162.431C95.5054 162.231 95.5054 162.231 95.4054 161.931C95.4054 162.131 95.3054 162.231 95.6054 162.431Z" fill="#322015"/>
<path d="M102.805 151.831L102.705 151.731C102.705 151.731 102.805 151.731 102.805 151.831Z" fill="#322015"/>
<path d="M103.105 151.931L103.505 152.131L103.305 151.831L103.105 151.931C103.005 151.831 102.905 151.831 102.805 151.831L103.105 151.931Z" fill="#322015"/>
<path d="M102.005 152.031C102.205 152.031 102.405 152.231 102.605 152.331C102.805 152.231 102.205 151.931 102.405 151.931C102.705 152.231 102.705 151.931 103.005 152.031C102.605 151.931 102.305 151.831 102.105 151.931L102.405 152.031C102.305 152.231 102.205 152.031 102.005 152.031Z" fill="#322015"/>
<path d="M102.405 153.131L102.005 152.831C102.205 152.931 102.305 152.731 102.705 152.931C102.705 152.831 102.505 152.731 102.405 152.631C102.605 152.631 102.805 152.731 102.505 152.531C102.105 152.631 102.005 152.531 101.805 152.731C101.705 152.731 101.705 152.631 101.805 152.631H101.505C102.105 152.931 102.005 153.131 102.405 153.131Z" fill="#322015"/>
<path d="M102.005 153.231C102.005 153.131 101.705 152.831 101.405 152.731C101.505 152.831 101.505 153.031 101.605 153.131C101.605 153.131 101.605 152.931 102.005 153.231Z" fill="#322015"/>
<path d="M101.905 153.431C101.705 153.331 101.205 153.231 101.505 153.531C101.505 153.331 102.105 153.631 101.905 153.431Z" fill="#322015"/>
<path d="M101.005 154.031L101.405 153.931C101.905 154.131 101.505 154.131 101.705 154.331C101.905 154.231 101.705 154.131 101.505 153.831C101.605 153.831 101.305 153.531 101.205 153.431C101.505 153.931 100.205 153.331 101.005 154.031Z" fill="#322015"/>
<path d="M101.805 153.831L101.605 153.731L101.705 153.931L101.805 153.831Z" fill="#322015"/>
<path d="M100.205 154.231C99.5054 154.031 100.405 154.731 100.105 154.731L100.005 154.631V154.831L99.9054 154.731C100.305 154.931 100.305 155.131 100.605 155.431C101.105 155.531 100.205 155.131 100.705 155.231C100.805 155.331 101.105 155.531 101.205 155.631C101.105 155.431 100.905 155.331 100.705 155.131C100.705 155.031 100.905 155.131 101.005 155.231C100.805 155.031 100.305 154.631 100.505 154.631C100.905 154.731 101.005 155.031 100.905 154.731C100.305 154.431 101.105 154.631 100.805 154.331C101.005 154.231 101.405 154.431 101.605 154.531C101.105 154.231 100.805 153.931 100.705 153.831L101.005 154.231L100.405 154.031C100.405 154.131 100.305 154.231 100.205 154.231Z" fill="#322015"/>
<path d="M101.605 154.531V154.631H101.805L101.605 154.531Z" fill="#322015"/>
<path d="M101.305 155.831C101.305 155.831 101.205 155.731 101.105 155.731L101.305 155.831Z" fill="#322015"/>
<path d="M100.805 155.731L100.505 155.631L100.705 155.831L100.805 155.731Z" fill="#322015"/>
<path d="M98.6054 158.231C98.8054 158.331 98.5054 158.031 98.3054 157.831C98.1054 157.831 98.5054 158.031 98.6054 158.231Z" fill="#322015"/>
<path d="M97.5054 160.031C97.8054 160.131 97.6054 159.731 97.7054 159.731C97.4054 159.631 97.4054 159.831 97.5054 160.031Z" fill="#322015"/>
<path d="M97.7054 161.731C97.6054 161.631 97.6054 161.531 97.5054 161.531L97.1054 160.831C96.8054 160.831 97.5054 161.531 97.7054 161.731Z" fill="#322015"/>
<path d="M96.9054 162.531V162.231H96.8054C96.7054 161.931 96.6054 161.831 96.5054 161.631C96.5054 161.831 96.5054 162.131 96.9054 162.531Z" fill="#322015"/>
<path d="M96.5054 161.431C96.6054 161.531 96.6054 161.631 96.5054 161.431V161.431Z" fill="#322015"/>
<path d="M96.4054 161.531C96.5054 161.531 96.5054 161.531 96.4054 161.531C96.4054 161.331 96.4054 161.431 96.4054 161.531Z" fill="#322015"/>
<path d="M96.5054 162.331L96.3054 162.531L96.5054 162.631C96.3054 162.231 96.8054 162.731 96.5054 162.331Z" fill="#322015"/>
<path d="M95.0054 162.831L94.7054 162.431C94.5054 162.431 94.8054 163.431 94.3054 162.831C94.5054 163.031 94.4054 163.331 94.7054 163.331C94.6054 162.931 94.8054 162.831 95.0054 162.831Z" fill="#322015"/>
<path d="M94.0054 162.631C94.0054 162.531 93.9054 162.431 93.8054 162.331C93.7054 162.331 93.8054 162.531 93.9054 162.731C93.7054 162.131 94.2054 162.931 94.0054 162.631Z" fill="#322015"/>
<path d="M93.3054 163.031C93.3054 163.031 93.4054 162.931 93.3054 162.831C93.2054 162.931 93.4054 163.331 93.5054 163.631C93.7054 163.831 93.5054 163.131 93.3054 163.031Z" fill="#322015"/>
<path d="M90.9054 160.431C91.0054 160.831 91.1054 160.731 91.1054 160.531C91.1054 160.631 91.0054 160.531 90.9054 160.431Z" fill="#322015"/>
<path d="M92.0054 163.431H92.1054L92.0054 162.931V163.431Z" fill="#322015"/>
<path d="M91.2054 164.031V164.431L91.4054 164.331L91.2054 164.031Z" fill="#322015"/>
<path d="M91.0054 163.931L90.8054 164.031L90.9054 164.131C91.1054 164.231 91.0054 164.031 91.0054 163.931Z" fill="#322015"/>
</g>
</g>
<path d="M262.905 242.831C262.705 242.431 262.405 241.931 262.205 241.431C260.105 237.431 258.205 235.531 258.205 235.531C258.205 235.531 252.505 232.931 239.005 232.731" stroke="#1B1C1E" stroke-width="1.2604" stroke-miterlimit="10" stroke-linecap="round" stroke-linejoin="round"/>
</svg>
